<svg width="53" height="53" viewBox="0 0 53 53" fill="none" xmlns="http://www.w3.org/2000/svg">
<circle cx="26.7142" cy="26" r="26" fill="#FAFAFA"/>
<path fill-rule="evenodd" clip-rule="evenodd" d="M26.7142 52.4321C12.3548 52.4321 0.714233 40.6948 0.714233 26.2161C0.714233 11.7373 12.3548 0 26.7142 0C41.0736 0 52.7142 11.7373 52.7142 26.2161C52.7142 40.6948 41.0736 52.4321 26.7142 52.4321ZM27.8385 19.6741C25.5099 20.6507 20.8559 22.6721 13.8766 25.7381C12.7433 26.1925 12.1496 26.6371 12.0955 27.0718C12.0042 27.8065 12.9166 28.0957 14.1591 28.4897C14.3281 28.5433 14.5032 28.5988 14.6827 28.6576C15.9051 29.0583 17.5494 29.527 18.4042 29.5456C19.1796 29.5625 20.0451 29.2402 21.0006 28.5786C27.5215 24.1402 30.8877 21.8968 31.099 21.8484C31.2481 21.8143 31.4547 21.7714 31.5947 21.8969C31.7347 22.0223 31.721 22.2599 31.7061 22.3237C31.6157 22.7122 28.0342 26.0696 26.1808 27.807C25.603 28.3487 25.1931 28.7329 25.1093 28.8206C24.9216 29.0172 24.7303 29.2031 24.5465 29.3818C23.4109 30.4857 22.5593 31.3134 24.5937 32.6652C25.5713 33.3148 26.3536 33.852 27.1341 34.3879C27.9864 34.9732 28.8366 35.557 29.9365 36.284C30.2167 36.4692 30.4844 36.6616 30.7451 36.849C31.737 37.562 32.6281 38.2026 33.7291 38.1004C34.3689 38.0411 35.0297 37.4345 35.3653 35.6255C36.1584 31.3503 37.7174 22.0872 38.0777 18.2701C38.1092 17.9357 38.0695 17.5077 38.0376 17.3198C38.0058 17.1319 37.9391 16.8642 37.6969 16.666C37.4101 16.4313 36.9672 16.3818 36.7692 16.3852C35.8687 16.4014 34.4872 16.8857 27.8385 19.6741Z" fill="#8367BE"/>
</svg>
