<svg width="31" height="31" viewBox="0 0 31 31" fill="none" xmlns="http://www.w3.org/2000/svg">
<path d="M16.7142 15.5L23.8528 8.36138C23.9939 8.19665 24.0676 7.98475 24.0592 7.76803C24.0509 7.55131 23.961 7.34573 23.8077 7.19237C23.6543 7.03901 23.4487 6.94917 23.232 6.9408C23.0153 6.93243 22.8034 7.00614 22.6386 7.14722L15.5 14.2858L8.36142 7.13861C8.19927 6.97646 7.97935 6.88536 7.75003 6.88536C7.52072 6.88536 7.30079 6.97646 7.13864 7.13861C6.97649 7.30076 6.8854 7.52068 6.8854 7.75C6.8854 7.97931 6.97649 8.19923 7.13864 8.36138L14.2859 15.5L7.13864 22.6386C7.0485 22.7158 6.97529 22.8108 6.9236 22.9176C6.87191 23.0245 6.84287 23.1408 6.83829 23.2594C6.83371 23.378 6.85369 23.4963 6.89698 23.6068C6.94027 23.7173 7.00594 23.8176 7.08986 23.9016C7.17378 23.9855 7.27414 24.0511 7.38464 24.0944C7.49514 24.1377 7.6134 24.1577 7.73199 24.1531C7.85059 24.1485 7.96695 24.1195 8.07378 24.0678C8.18062 24.0161 8.27561 23.9429 8.35281 23.8528L15.5 16.7142L22.6386 23.8528C22.8034 23.9938 23.0153 24.0676 23.232 24.0592C23.4487 24.0508 23.6543 23.961 23.8077 23.8076C23.961 23.6543 24.0509 23.4487 24.0592 23.232C24.0676 23.0152 23.9939 22.8033 23.8528 22.6386L16.7142 15.5Z" fill="#6E54A6"/>
</svg>
