<svg width="60" height="60" viewBox="0 0 60 60" fill="none" xmlns="http://www.w3.org/2000/svg">
<circle cx="30" cy="30" r="30" fill="url(#paint0_linear_322_2532)"/>
<path d="M17.0577 41.9589L17.3902 42.6324C17.4346 42.7227 17.5003 42.8009 17.5816 42.8602C17.6629 42.9195 17.7575 42.958 17.8571 42.9726L18.6012 43.0806C18.7153 43.0979 18.8223 43.1468 18.9102 43.2216C18.998 43.2965 19.0633 43.3943 19.0986 43.5042C19.134 43.6141 19.138 43.7317 19.1102 43.8437C19.0824 43.9557 19.0239 44.0578 18.9413 44.1384L18.403 44.6631C18.331 44.7332 18.2772 44.8198 18.2461 44.9154C18.2149 45.0109 18.2075 45.1126 18.2244 45.2116L18.352 45.9523C18.3715 46.0663 18.3587 46.1835 18.3151 46.2907C18.2714 46.3978 18.1987 46.4905 18.1051 46.5585C18.0115 46.6264 17.9008 46.6668 17.7854 46.6751C17.67 46.6834 17.5546 46.6593 17.4523 46.6054L16.7873 46.2559C16.6983 46.209 16.5992 46.1845 16.4986 46.1845C16.398 46.1845 16.2989 46.209 16.2099 46.2559L15.5449 46.6054C15.4425 46.6593 15.3271 46.6834 15.2117 46.6751C15.0964 46.6668 14.9856 46.6264 14.892 46.5585C14.7984 46.4905 14.7257 46.3978 14.6821 46.2907C14.6384 46.1835 14.6256 46.0663 14.6451 45.9523L14.7718 45.2116C14.7892 45.1127 14.782 45.0109 14.7511 44.9153C14.7201 44.8197 14.6662 44.7331 14.5941 44.6631L14.0558 44.1384C13.9729 44.0579 13.9142 43.9559 13.8862 43.8437C13.8582 43.7316 13.8621 43.6139 13.8975 43.5039C13.9329 43.3939 13.9983 43.296 14.0864 43.2211C14.1745 43.1463 14.2817 43.0976 14.396 43.0806L15.1401 42.9726C15.2396 42.9579 15.3341 42.9192 15.4154 42.86C15.4967 42.8007 15.5625 42.7226 15.6069 42.6324L15.9394 41.9589C15.9899 41.8534 16.0692 41.7644 16.1682 41.7021C16.2671 41.6398 16.3816 41.6067 16.4986 41.6067C16.6155 41.6067 16.73 41.6398 16.829 41.7021C16.9279 41.7644 17.0072 41.8534 17.0577 41.9589Z" fill="white"/>
<path d="M23.5879 41.959L23.9204 42.6325C23.9646 42.723 24.0303 42.8012 24.1117 42.8605C24.193 42.9198 24.2876 42.9583 24.3873 42.9727L25.1305 43.0807C25.2448 43.0978 25.352 43.1465 25.4401 43.2213C25.5282 43.2961 25.5936 43.394 25.629 43.5041C25.6644 43.6141 25.6683 43.7318 25.6403 43.8439C25.6123 43.956 25.5536 44.0581 25.4707 44.1386L24.9324 44.6633C24.8603 44.7333 24.8064 44.8199 24.7754 44.9155C24.7445 45.0111 24.7373 45.1128 24.7546 45.2118L24.8813 45.9525C24.9008 46.0665 24.888 46.1837 24.8444 46.2908C24.8008 46.3979 24.728 46.4907 24.6344 46.5586C24.5408 46.6266 24.4301 46.667 24.3147 46.6753C24.1994 46.6836 24.084 46.6594 23.9816 46.6056L23.3166 46.256C23.2276 46.2091 23.1285 46.1846 23.0279 46.1846C22.9273 46.1846 22.8282 46.2091 22.7392 46.256L22.0742 46.6056C21.9718 46.6594 21.8564 46.6836 21.7411 46.6753C21.6257 46.667 21.515 46.6266 21.4214 46.5586C21.3278 46.4907 21.255 46.3979 21.2114 46.2908C21.1678 46.1837 21.155 46.0665 21.1745 45.9525L21.302 45.2118C21.319 45.1127 21.3115 45.0111 21.2804 44.9155C21.2493 44.82 21.1954 44.7334 21.1235 44.6633L20.5852 44.1386C20.5026 44.0579 20.4441 43.9559 20.4163 43.8438C20.3885 43.7318 20.3925 43.6142 20.4278 43.5044C20.4632 43.3945 20.5284 43.2966 20.6163 43.2218C20.7042 43.1469 20.8112 43.0981 20.9253 43.0807L21.6694 42.9727C21.769 42.9581 21.8635 42.9196 21.9449 42.8603C22.0262 42.8011 22.0919 42.7229 22.1363 42.6325L22.4688 41.959C22.5192 41.8533 22.5985 41.7641 22.6975 41.7016C22.7965 41.6391 22.9112 41.606 23.0283 41.606C23.1454 41.606 23.2601 41.6391 23.3592 41.7016C23.4582 41.7641 23.5375 41.8533 23.5879 41.959Z" fill="white"/>
<path d="M30.1172 41.959L30.4497 42.6325C30.494 42.723 30.5596 42.8012 30.641 42.8605C30.7223 42.9198 30.8169 42.9583 30.9166 42.9727L31.6598 43.0807C31.7741 43.0978 31.8814 43.1465 31.9694 43.2213C32.0575 43.2961 32.1229 43.394 32.1583 43.5041C32.1937 43.6141 32.1976 43.7318 32.1696 43.8439C32.1416 43.956 32.0829 44.0581 32 44.1386L31.4625 44.6633C31.3904 44.7332 31.3364 44.8198 31.3052 44.9154C31.2741 45.011 31.2668 45.1127 31.284 45.2118L31.4107 45.9525C31.4302 46.0665 31.4174 46.1837 31.3737 46.2908C31.3301 46.3979 31.2574 46.4907 31.1638 46.5586C31.0702 46.6266 30.9594 46.667 30.8441 46.6753C30.7287 46.6836 30.6133 46.6594 30.5109 46.6056L29.8459 46.256C29.7571 46.2091 29.6581 46.1846 29.5577 46.1846C29.4572 46.1846 29.3582 46.2091 29.2694 46.256L28.6044 46.6056C28.502 46.6594 28.3866 46.6836 28.2712 46.6753C28.1559 46.667 28.0451 46.6266 27.9515 46.5586C27.8579 46.4907 27.7852 46.3979 27.7416 46.2908C27.6979 46.1837 27.6852 46.0665 27.7046 45.9525L27.8314 45.2118C27.8484 45.1128 27.8412 45.0111 27.8102 44.9156C27.7793 44.82 27.7255 44.7334 27.6536 44.6633L27.1153 44.1386C27.0324 44.0581 26.9737 43.956 26.9457 43.8439C26.9177 43.7318 26.9216 43.6141 26.957 43.5041C26.9924 43.394 27.0578 43.2961 27.1459 43.2213C27.234 43.1465 27.3412 43.0978 27.4555 43.0807L28.1987 42.9727C28.2984 42.9583 28.393 42.9198 28.4743 42.8605C28.5557 42.8012 28.6213 42.723 28.6656 42.6325L28.9981 41.959C29.0485 41.8533 29.1278 41.7641 29.2268 41.7016C29.3259 41.6391 29.4406 41.606 29.5577 41.606C29.6747 41.606 29.7894 41.6391 29.8885 41.7016C29.9875 41.7641 30.0668 41.8533 30.1172 41.959Z" fill="white"/>
<path d="M36.6431 41.9589L36.9756 42.6324C37.02 42.7227 37.0857 42.8009 37.167 42.8602C37.2484 42.9194 37.3429 42.958 37.4425 42.9725L38.1866 43.0805C38.3007 43.0979 38.4077 43.1468 38.4956 43.2216C38.5835 43.2965 38.6487 43.3943 38.6841 43.5042C38.7194 43.6141 38.7234 43.7317 38.6956 43.8437C38.6678 43.9557 38.6093 44.0578 38.5268 44.1384L37.9885 44.6631C37.9165 44.7332 37.8626 44.8198 37.8315 44.9154C37.8004 45.0109 37.793 45.1126 37.8099 45.2116L37.9374 45.9523C37.9569 46.0663 37.9441 46.1835 37.9005 46.2906C37.8569 46.3978 37.7841 46.4905 37.6905 46.5585C37.5969 46.6264 37.4862 46.6668 37.3708 46.6751C37.2555 46.6834 37.1401 46.6593 37.0377 46.6054L36.3727 46.2559C36.2837 46.209 36.1846 46.1845 36.084 46.1845C35.9834 46.1845 35.8843 46.209 35.7953 46.2559L35.1303 46.6054C35.0279 46.6593 34.9125 46.6834 34.7972 46.6751C34.6818 46.6668 34.5711 46.6264 34.4775 46.5585C34.3839 46.4905 34.3111 46.3978 34.2675 46.2906C34.2239 46.1835 34.2111 46.0663 34.2306 45.9523L34.3581 45.2116C34.375 45.1126 34.3676 45.0109 34.3365 44.9154C34.3054 44.8198 34.2515 44.7332 34.1795 44.6631L33.6412 44.1384C33.5583 44.0579 33.4996 43.9559 33.4716 43.8437C33.4436 43.7316 33.4475 43.6139 33.4829 43.5039C33.5183 43.3939 33.5837 43.2959 33.6718 43.2211C33.7599 43.1463 33.8671 43.0976 33.9814 43.0805L34.7255 42.9725C34.825 42.9579 34.9195 42.9192 35.0008 42.86C35.0822 42.8007 35.1479 42.7226 35.1924 42.6324L35.5376 41.9589C35.5895 41.8568 35.6685 41.7711 35.7661 41.7112C35.8637 41.6513 35.9759 41.6196 36.0904 41.6196C36.2049 41.6196 36.3171 41.6513 36.4147 41.7112C36.5122 41.7711 36.5913 41.8568 36.6431 41.9589Z" fill="white"/>
<path d="M43.1767 41.959L43.5092 42.6325C43.5535 42.723 43.6191 42.8012 43.7005 42.8605C43.7819 42.9198 43.8765 42.9583 43.9761 42.9727L44.7193 43.0807C44.8336 43.0978 44.9409 43.1465 45.0289 43.2213C45.117 43.2961 45.1824 43.3941 45.2178 43.5041C45.2532 43.6141 45.2571 43.7318 45.2291 43.8439C45.2012 43.956 45.1424 44.0581 45.0595 44.1386L44.5212 44.6633C44.4493 44.7334 44.3955 44.82 44.3646 44.9156C44.3336 45.0111 44.3264 45.1128 44.3435 45.2118L44.4702 45.9525C44.4897 46.0665 44.4769 46.1837 44.4332 46.2908C44.3896 46.3979 44.3169 46.4907 44.2233 46.5586C44.1297 46.6266 44.0189 46.667 43.9036 46.6753C43.7882 46.6836 43.6728 46.6595 43.5705 46.6056L42.9055 46.2561C42.8166 46.2091 42.7176 46.1846 42.6172 46.1846C42.5167 46.1846 42.4177 46.2091 42.3289 46.2561L41.663 46.6056C41.5607 46.6596 41.4453 46.6838 41.33 46.6755C41.2146 46.6673 41.1039 46.6268 41.0103 46.5588C40.9167 46.4909 40.8441 46.398 40.8005 46.2909C40.757 46.1837 40.7444 46.0665 40.7642 45.9525L40.8909 45.2118C40.9078 45.1127 40.9004 45.0111 40.8693 44.9155C40.8381 44.82 40.7843 44.7334 40.7123 44.6633L40.174 44.1386C40.0914 44.0579 40.0329 43.9559 40.0051 43.8438C39.9773 43.7318 39.9813 43.6142 40.0167 43.5044C40.052 43.3945 40.1173 43.2966 40.2052 43.2218C40.293 43.1469 40.4 43.0981 40.5141 43.0807L41.2582 42.9727C41.3578 42.9581 41.4524 42.9196 41.5337 42.8603C41.615 42.8011 41.6807 42.7229 41.7251 42.6325L42.0576 41.959C42.108 41.8533 42.1873 41.7641 42.2863 41.7016C42.3854 41.6391 42.5001 41.606 42.6172 41.606C42.7343 41.606 42.849 41.6391 42.948 41.7016C43.047 41.7641 43.1263 41.8533 43.1767 41.959Z" fill="white"/>
<path d="M32.3563 35.9033L32.5026 29.3749L36.0802 29.4548C36.2319 29.4581 36.3819 29.4224 36.5159 29.3511C36.6499 29.2799 36.7634 29.1754 36.8454 29.0478C36.9275 28.9201 36.9755 28.7736 36.9847 28.6221C36.994 28.4706 36.9642 28.3193 36.8983 28.1826L30.3502 14.4913C30.3035 14.3934 30.2305 14.3104 30.1393 14.2515C30.0482 14.1926 29.9426 14.1601 29.8341 14.1576C29.7257 14.1552 29.6186 14.1828 29.5249 14.2375C29.4313 14.2922 29.3546 14.3718 29.3034 14.4675L22.1507 27.8527C22.0791 27.9866 22.043 28.1366 22.0459 28.2884C22.0489 28.4403 22.0908 28.5888 22.1676 28.7198C22.2444 28.8508 22.3536 28.9599 22.4846 29.0366C22.6157 29.1134 22.7642 29.1552 22.9161 29.158L27.083 29.2507L26.9367 35.7792C26.9278 36.1356 26.9893 36.4902 27.1176 36.8229C27.2459 37.1555 27.4386 37.4595 27.6845 37.7176C27.9305 37.9756 28.225 38.1826 28.5511 38.3267C28.8771 38.4709 29.2285 38.5492 29.5849 38.5574C29.9412 38.5653 30.2955 38.5029 30.6277 38.3737C30.9598 38.2446 31.2633 38.0513 31.5207 37.8048C31.7781 37.5583 31.9844 37.2635 32.1277 36.9372C32.2711 36.6109 32.3488 36.2596 32.3563 35.9033Z" fill="white"/>
<path d="M16.9361 27.3772C16.8289 27.3771 16.7223 27.3611 16.6198 27.3296L12.577 26.0965C12.3065 26.0087 12.0813 25.8183 11.9498 25.5662C11.8183 25.314 11.791 25.0204 11.8738 24.7484C11.9566 24.4763 12.1429 24.2477 12.3925 24.1116C12.6422 23.9755 12.9353 23.9429 13.2088 24.0207L17.2567 25.2546C17.5079 25.3285 17.7238 25.4908 17.8647 25.7115C18.0057 25.9321 18.0621 26.1962 18.0235 26.4552C17.985 26.7142 17.8541 26.9505 17.6551 27.1205C17.456 27.2906 17.2022 27.3829 16.9404 27.3806L16.9361 27.3772Z" fill="white"/>
<path d="M17.9532 38.3924C17.7614 38.3928 17.573 38.3424 17.4071 38.2462C17.2412 38.1501 17.1037 38.0118 17.0086 37.8453C16.9136 37.6787 16.8643 37.49 16.8659 37.2982C16.8675 37.1065 16.9199 36.9186 17.0177 36.7537L19.1828 33.1148C19.2537 32.989 19.349 32.8786 19.4631 32.7901C19.5772 32.7015 19.7079 32.6367 19.8474 32.5993C19.9869 32.562 20.1325 32.5529 20.2756 32.5726C20.4186 32.5923 20.5563 32.6404 20.6806 32.7141C20.8048 32.7877 20.9131 32.8854 20.999 33.0015C21.085 33.1176 21.1469 33.2496 21.1811 33.3899C21.2153 33.5303 21.2211 33.676 21.1982 33.8186C21.1753 33.9612 21.1242 34.0978 21.0478 34.2204L18.8869 37.8583C18.7911 38.0208 18.6545 38.1555 18.4908 38.2491C18.3271 38.3428 18.1418 38.3921 17.9532 38.3924Z" fill="white"/>
<path d="M13.5915 33.8249C13.3497 33.8249 13.1148 33.744 12.9242 33.5952C12.7337 33.4464 12.5983 33.2382 12.5396 33.0036C12.481 32.769 12.5024 32.5216 12.6006 32.3006C12.6987 32.0796 12.8679 31.8977 13.0813 31.7839L16.8154 29.794C16.941 29.727 17.0787 29.6854 17.2205 29.6716C17.3622 29.6578 17.5053 29.6721 17.6416 29.7135C17.7778 29.755 17.9046 29.823 18.0146 29.9134C18.1246 30.0039 18.2157 30.1152 18.2827 30.2409C18.3497 30.3666 18.3913 30.5042 18.4051 30.646C18.4189 30.7878 18.4047 30.9309 18.3632 31.0671C18.3217 31.2034 18.2537 31.3301 18.1633 31.4401C18.0728 31.5501 17.9615 31.6412 17.8358 31.7082L14.1017 33.6982C13.9448 33.7819 13.7694 33.8255 13.5915 33.8249Z" fill="white"/>
<path d="M42.2336 27.3772C41.9718 27.3796 41.718 27.2873 41.5189 27.1172C41.3199 26.9472 41.189 26.7109 41.1505 26.4519C41.1119 26.1929 41.1683 25.9288 41.3093 25.7081C41.4502 25.4875 41.6661 25.3252 41.9173 25.2512L45.9652 24.0173C46.1023 23.9728 46.2469 23.9561 46.3906 23.9681C46.5342 23.9802 46.6741 24.0207 46.8019 24.0874C46.9297 24.1541 47.043 24.2455 47.135 24.3565C47.2271 24.4674 47.2961 24.5956 47.3381 24.7335C47.3801 24.8714 47.3942 25.0163 47.3795 25.1597C47.3649 25.3031 47.3218 25.4422 47.2528 25.5688C47.1838 25.6954 47.0903 25.8069 46.9777 25.897C46.8651 25.987 46.7357 26.0537 46.597 26.0932L42.55 27.3322C42.4474 27.3628 42.3407 27.378 42.2336 27.3772Z" fill="white"/>
<path d="M41.2166 38.3925C41.028 38.3928 40.8426 38.3441 40.6785 38.2511C40.5145 38.158 40.3776 38.0238 40.2811 37.8618L38.122 34.2204C37.983 33.9735 37.9461 33.682 38.0194 33.4082C38.0927 33.1345 38.2702 32.9003 38.5139 32.7558C38.7577 32.6113 39.0483 32.568 39.3236 32.6351C39.5989 32.7022 39.837 32.8744 39.9869 33.1149L42.1477 36.7529C42.2456 36.9178 42.298 37.1057 42.2996 37.2974C42.3012 37.4892 42.2519 37.6779 42.1569 37.8444C42.0618 38.011 41.9243 38.1493 41.7584 38.2454C41.5925 38.3415 41.4041 38.392 41.2123 38.3916L41.2166 38.3925Z" fill="white"/>
<path d="M45.5782 33.825C45.4002 33.8254 45.2249 33.7815 45.068 33.6975L41.3339 31.7076C41.2082 31.6406 41.097 31.5494 41.0065 31.4394C40.916 31.3294 40.8481 31.2027 40.8066 31.0664C40.7651 30.9301 40.7508 30.7871 40.7646 30.6453C40.7784 30.5035 40.82 30.3659 40.887 30.2402C40.954 30.1145 41.0451 30.0032 41.1551 29.9128C41.2651 29.8223 41.3919 29.7543 41.5281 29.7128C41.6644 29.6713 41.8075 29.6571 41.9493 29.6709C42.091 29.6847 42.2287 29.7263 42.3544 29.7933L46.0876 31.7832C46.301 31.897 46.4702 32.0789 46.5683 32.2998C46.6664 32.5208 46.6879 32.7683 46.6292 33.0029C46.5706 33.2375 46.4352 33.4457 46.2446 33.5945C46.054 33.7434 45.8192 33.8242 45.5774 33.8242L45.5782 33.825Z" fill="white"/>
<path d="M17.0577 41.9589L17.3902 42.6324C17.4346 42.7227 17.5003 42.8009 17.5816 42.8602C17.6629 42.9195 17.7575 42.958 17.8571 42.9726L18.6012 43.0806C18.7153 43.0979 18.8223 43.1468 18.9102 43.2216C18.998 43.2965 19.0633 43.3943 19.0986 43.5042C19.134 43.6141 19.138 43.7317 19.1102 43.8437C19.0824 43.9557 19.0239 44.0578 18.9413 44.1384L18.403 44.6631C18.331 44.7332 18.2772 44.8198 18.2461 44.9154C18.2149 45.0109 18.2075 45.1126 18.2244 45.2116L18.352 45.9523C18.3715 46.0663 18.3587 46.1835 18.3151 46.2907C18.2714 46.3978 18.1987 46.4905 18.1051 46.5585C18.0115 46.6264 17.9008 46.6668 17.7854 46.6751C17.67 46.6834 17.5546 46.6593 17.4523 46.6054L16.7873 46.2559C16.6983 46.209 16.5992 46.1845 16.4986 46.1845C16.398 46.1845 16.2989 46.209 16.2099 46.2559L15.5449 46.6054C15.4425 46.6593 15.3271 46.6834 15.2117 46.6751C15.0964 46.6668 14.9856 46.6264 14.892 46.5585C14.7984 46.4905 14.7257 46.3978 14.6821 46.2907C14.6384 46.1835 14.6256 46.0663 14.6451 45.9523L14.7718 45.2116C14.7892 45.1127 14.782 45.0109 14.7511 44.9153C14.7201 44.8197 14.6662 44.7331 14.5941 44.6631L14.0558 44.1384C13.9729 44.0579 13.9142 43.9559 13.8862 43.8437C13.8582 43.7316 13.8621 43.6139 13.8975 43.5039C13.9329 43.3939 13.9983 43.296 14.0864 43.2211C14.1745 43.1463 14.2817 43.0976 14.396 43.0806L15.1401 42.9726C15.2396 42.9579 15.3341 42.9192 15.4154 42.86C15.4967 42.8007 15.5625 42.7226 15.6069 42.6324L15.9394 41.9589C15.9899 41.8534 16.0692 41.7644 16.1682 41.7021C16.2671 41.6398 16.3816 41.6067 16.4986 41.6067C16.6155 41.6067 16.73 41.6398 16.829 41.7021C16.9279 41.7644 17.0072 41.8534 17.0577 41.9589Z" fill="white"/>
<path d="M23.5879 41.959L23.9204 42.6325C23.9646 42.723 24.0303 42.8012 24.1117 42.8605C24.193 42.9198 24.2876 42.9583 24.3873 42.9727L25.1305 43.0807C25.2448 43.0978 25.352 43.1465 25.4401 43.2213C25.5282 43.2961 25.5936 43.394 25.629 43.5041C25.6644 43.6141 25.6683 43.7318 25.6403 43.8439C25.6123 43.956 25.5536 44.0581 25.4707 44.1386L24.9324 44.6633C24.8603 44.7333 24.8064 44.8199 24.7754 44.9155C24.7445 45.0111 24.7373 45.1128 24.7546 45.2118L24.8813 45.9525C24.9008 46.0665 24.888 46.1837 24.8444 46.2908C24.8008 46.3979 24.728 46.4907 24.6344 46.5586C24.5408 46.6266 24.4301 46.667 24.3147 46.6753C24.1994 46.6836 24.084 46.6594 23.9816 46.6056L23.3166 46.256C23.2276 46.2091 23.1285 46.1846 23.0279 46.1846C22.9273 46.1846 22.8282 46.2091 22.7392 46.256L22.0742 46.6056C21.9718 46.6594 21.8564 46.6836 21.7411 46.6753C21.6257 46.667 21.515 46.6266 21.4214 46.5586C21.3278 46.4907 21.255 46.3979 21.2114 46.2908C21.1678 46.1837 21.155 46.0665 21.1745 45.9525L21.302 45.2118C21.319 45.1127 21.3115 45.0111 21.2804 44.9155C21.2493 44.82 21.1954 44.7334 21.1235 44.6633L20.5852 44.1386C20.5026 44.0579 20.4441 43.9559 20.4163 43.8438C20.3885 43.7318 20.3925 43.6142 20.4278 43.5044C20.4632 43.3945 20.5284 43.2966 20.6163 43.2218C20.7042 43.1469 20.8112 43.0981 20.9253 43.0807L21.6694 42.9727C21.769 42.9581 21.8635 42.9196 21.9449 42.8603C22.0262 42.8011 22.0919 42.7229 22.1363 42.6325L22.4688 41.959C22.5192 41.8533 22.5985 41.7641 22.6975 41.7016C22.7965 41.6391 22.9112 41.606 23.0283 41.606C23.1454 41.606 23.2601 41.6391 23.3592 41.7016C23.4582 41.7641 23.5375 41.8533 23.5879 41.959Z" fill="white"/>
<path d="M30.1172 41.959L30.4497 42.6325C30.494 42.723 30.5596 42.8012 30.641 42.8605C30.7223 42.9198 30.8169 42.9583 30.9166 42.9727L31.6598 43.0807C31.7741 43.0978 31.8814 43.1465 31.9694 43.2213C32.0575 43.2961 32.1229 43.394 32.1583 43.5041C32.1937 43.6141 32.1976 43.7318 32.1696 43.8439C32.1416 43.956 32.0829 44.0581 32 44.1386L31.4625 44.6633C31.3904 44.7332 31.3364 44.8198 31.3052 44.9154C31.2741 45.011 31.2668 45.1127 31.284 45.2118L31.4107 45.9525C31.4302 46.0665 31.4174 46.1837 31.3737 46.2908C31.3301 46.3979 31.2574 46.4907 31.1638 46.5586C31.0702 46.6266 30.9594 46.667 30.8441 46.6753C30.7287 46.6836 30.6133 46.6594 30.5109 46.6056L29.8459 46.256C29.7571 46.2091 29.6581 46.1846 29.5577 46.1846C29.4572 46.1846 29.3582 46.2091 29.2694 46.256L28.6044 46.6056C28.502 46.6594 28.3866 46.6836 28.2712 46.6753C28.1559 46.667 28.0451 46.6266 27.9515 46.5586C27.8579 46.4907 27.7852 46.3979 27.7416 46.2908C27.6979 46.1837 27.6852 46.0665 27.7046 45.9525L27.8314 45.2118C27.8484 45.1128 27.8412 45.0111 27.8102 44.9156C27.7793 44.82 27.7255 44.7334 27.6536 44.6633L27.1153 44.1386C27.0324 44.0581 26.9737 43.956 26.9457 43.8439C26.9177 43.7318 26.9216 43.6141 26.957 43.5041C26.9924 43.394 27.0578 43.2961 27.1459 43.2213C27.234 43.1465 27.3412 43.0978 27.4555 43.0807L28.1987 42.9727C28.2984 42.9583 28.393 42.9198 28.4743 42.8605C28.5557 42.8012 28.6213 42.723 28.6656 42.6325L28.9981 41.959C29.0485 41.8533 29.1278 41.7641 29.2268 41.7016C29.3259 41.6391 29.4406 41.606 29.5577 41.606C29.6747 41.606 29.7894 41.6391 29.8885 41.7016C29.9875 41.7641 30.0668 41.8533 30.1172 41.959Z" fill="white"/>
<path d="M36.6431 41.9589L36.9756 42.6324C37.02 42.7227 37.0857 42.8009 37.167 42.8602C37.2484 42.9194 37.3429 42.958 37.4425 42.9725L38.1866 43.0805C38.3007 43.0979 38.4077 43.1468 38.4956 43.2216C38.5835 43.2965 38.6487 43.3943 38.6841 43.5042C38.7194 43.6141 38.7234 43.7317 38.6956 43.8437C38.6678 43.9557 38.6093 44.0578 38.5268 44.1384L37.9885 44.6631C37.9165 44.7332 37.8626 44.8198 37.8315 44.9154C37.8004 45.0109 37.793 45.1126 37.8099 45.2116L37.9374 45.9523C37.9569 46.0663 37.9441 46.1835 37.9005 46.2906C37.8569 46.3978 37.7841 46.4905 37.6905 46.5585C37.5969 46.6264 37.4862 46.6668 37.3708 46.6751C37.2555 46.6834 37.1401 46.6593 37.0377 46.6054L36.3727 46.2559C36.2837 46.209 36.1846 46.1845 36.084 46.1845C35.9834 46.1845 35.8843 46.209 35.7953 46.2559L35.1303 46.6054C35.0279 46.6593 34.9125 46.6834 34.7972 46.6751C34.6818 46.6668 34.5711 46.6264 34.4775 46.5585C34.3839 46.4905 34.3111 46.3978 34.2675 46.2906C34.2239 46.1835 34.2111 46.0663 34.2306 45.9523L34.3581 45.2116C34.375 45.1126 34.3676 45.0109 34.3365 44.9154C34.3054 44.8198 34.2515 44.7332 34.1795 44.6631L33.6412 44.1384C33.5583 44.0579 33.4996 43.9559 33.4716 43.8437C33.4436 43.7316 33.4475 43.6139 33.4829 43.5039C33.5183 43.3939 33.5837 43.2959 33.6718 43.2211C33.7599 43.1463 33.8671 43.0976 33.9814 43.0805L34.7255 42.9725C34.825 42.9579 34.9195 42.9192 35.0008 42.86C35.0822 42.8007 35.1479 42.7226 35.1924 42.6324L35.5376 41.9589C35.5895 41.8568 35.6685 41.7711 35.7661 41.7112C35.8637 41.6513 35.9759 41.6196 36.0904 41.6196C36.2049 41.6196 36.3171 41.6513 36.4147 41.7112C36.5122 41.7711 36.5913 41.8568 36.6431 41.9589Z" fill="white"/>
<path d="M43.1767 41.959L43.5092 42.6325C43.5535 42.723 43.6191 42.8012 43.7005 42.8605C43.7819 42.9198 43.8765 42.9583 43.9761 42.9727L44.7193 43.0807C44.8336 43.0978 44.9409 43.1465 45.0289 43.2213C45.117 43.2961 45.1824 43.3941 45.2178 43.5041C45.2532 43.6141 45.2571 43.7318 45.2291 43.8439C45.2012 43.956 45.1424 44.0581 45.0595 44.1386L44.5212 44.6633C44.4493 44.7334 44.3955 44.82 44.3646 44.9156C44.3336 45.0111 44.3264 45.1128 44.3435 45.2118L44.4702 45.9525C44.4897 46.0665 44.4769 46.1837 44.4332 46.2908C44.3896 46.3979 44.3169 46.4907 44.2233 46.5586C44.1297 46.6266 44.0189 46.667 43.9036 46.6753C43.7882 46.6836 43.6728 46.6595 43.5705 46.6056L42.9055 46.2561C42.8166 46.2091 42.7176 46.1846 42.6172 46.1846C42.5167 46.1846 42.4177 46.2091 42.3289 46.2561L41.663 46.6056C41.5607 46.6596 41.4453 46.6838 41.33 46.6755C41.2146 46.6673 41.1039 46.6268 41.0103 46.5588C40.9167 46.4909 40.8441 46.398 40.8005 46.2909C40.757 46.1837 40.7444 46.0665 40.7642 45.9525L40.8909 45.2118C40.9078 45.1127 40.9004 45.0111 40.8693 44.9155C40.8381 44.82 40.7843 44.7334 40.7123 44.6633L40.174 44.1386C40.0914 44.0579 40.0329 43.9559 40.0051 43.8438C39.9773 43.7318 39.9813 43.6142 40.0167 43.5044C40.052 43.3945 40.1173 43.2966 40.2052 43.2218C40.293 43.1469 40.4 43.0981 40.5141 43.0807L41.2582 42.9727C41.3578 42.9581 41.4524 42.9196 41.5337 42.8603C41.615 42.8011 41.6807 42.7229 41.7251 42.6325L42.0576 41.959C42.108 41.8533 42.1873 41.7641 42.2863 41.7016C42.3854 41.6391 42.5001 41.606 42.6172 41.606C42.7343 41.606 42.849 41.6391 42.948 41.7016C43.047 41.7641 43.1263 41.8533 43.1767 41.959Z" fill="white"/>
<path d="M32.3563 35.9033L32.5026 29.3749L36.0802 29.4548C36.2319 29.4581 36.3819 29.4224 36.5159 29.3511C36.6499 29.2799 36.7634 29.1754 36.8454 29.0478C36.9275 28.9201 36.9755 28.7736 36.9847 28.6221C36.994 28.4706 36.9642 28.3193 36.8983 28.1826L30.3502 14.4913C30.3035 14.3934 30.2305 14.3104 30.1393 14.2515C30.0482 14.1926 29.9426 14.1601 29.8341 14.1576C29.7257 14.1552 29.6186 14.1828 29.5249 14.2375C29.4313 14.2922 29.3546 14.3718 29.3034 14.4675L22.1507 27.8527C22.0791 27.9866 22.043 28.1366 22.0459 28.2884C22.0489 28.4403 22.0908 28.5888 22.1676 28.7198C22.2444 28.8508 22.3536 28.9599 22.4846 29.0366C22.6157 29.1134 22.7642 29.1552 22.9161 29.158L27.083 29.2507L26.9367 35.7792C26.9278 36.1356 26.9893 36.4902 27.1176 36.8229C27.2459 37.1555 27.4386 37.4595 27.6845 37.7176C27.9305 37.9756 28.225 38.1826 28.5511 38.3267C28.8771 38.4709 29.2285 38.5492 29.5849 38.5574C29.9412 38.5653 30.2955 38.5029 30.6277 38.3737C30.9598 38.2446 31.2633 38.0513 31.5207 37.8048C31.7781 37.5583 31.9844 37.2635 32.1277 36.9372C32.2711 36.6109 32.3488 36.2596 32.3563 35.9033Z" fill="white"/>
<path d="M16.9361 27.3772C16.8289 27.3771 16.7223 27.3611 16.6198 27.3296L12.577 26.0965C12.3065 26.0087 12.0813 25.8183 11.9498 25.5662C11.8183 25.314 11.791 25.0204 11.8738 24.7484C11.9566 24.4763 12.1429 24.2477 12.3925 24.1116C12.6422 23.9755 12.9353 23.9429 13.2088 24.0207L17.2567 25.2546C17.5079 25.3285 17.7238 25.4908 17.8647 25.7115C18.0057 25.9321 18.0621 26.1962 18.0235 26.4552C17.985 26.7142 17.8541 26.9505 17.6551 27.1205C17.456 27.2906 17.2022 27.3829 16.9404 27.3806L16.9361 27.3772Z" fill="white"/>
<path d="M17.9532 38.3924C17.7614 38.3928 17.573 38.3424 17.4071 38.2462C17.2412 38.1501 17.1037 38.0118 17.0086 37.8453C16.9136 37.6787 16.8643 37.49 16.8659 37.2982C16.8675 37.1065 16.9199 36.9186 17.0177 36.7537L19.1828 33.1148C19.2537 32.989 19.349 32.8786 19.4631 32.7901C19.5772 32.7015 19.7079 32.6367 19.8474 32.5993C19.9869 32.562 20.1325 32.5529 20.2756 32.5726C20.4186 32.5923 20.5563 32.6404 20.6806 32.7141C20.8048 32.7877 20.9131 32.8854 20.999 33.0015C21.085 33.1176 21.1469 33.2496 21.1811 33.3899C21.2153 33.5303 21.2211 33.676 21.1982 33.8186C21.1753 33.9612 21.1242 34.0978 21.0478 34.2204L18.8869 37.8583C18.7911 38.0208 18.6545 38.1555 18.4908 38.2491C18.3271 38.3428 18.1418 38.3921 17.9532 38.3924Z" fill="white"/>
<path d="M13.5915 33.8249C13.3497 33.8249 13.1148 33.744 12.9242 33.5952C12.7337 33.4464 12.5983 33.2382 12.5396 33.0036C12.481 32.769 12.5024 32.5216 12.6006 32.3006C12.6987 32.0796 12.8679 31.8977 13.0813 31.7839L16.8154 29.794C16.941 29.727 17.0787 29.6854 17.2205 29.6716C17.3622 29.6578 17.5053 29.6721 17.6416 29.7135C17.7778 29.755 17.9046 29.823 18.0146 29.9134C18.1246 30.0039 18.2157 30.1152 18.2827 30.2409C18.3497 30.3666 18.3913 30.5042 18.4051 30.646C18.4189 30.7878 18.4047 30.9309 18.3632 31.0671C18.3217 31.2034 18.2537 31.3301 18.1633 31.4401C18.0728 31.5501 17.9615 31.6412 17.8358 31.7082L14.1017 33.6982C13.9448 33.7819 13.7694 33.8255 13.5915 33.8249Z" fill="white"/>
<path d="M42.2336 27.3772C41.9718 27.3796 41.718 27.2873 41.5189 27.1172C41.3199 26.9472 41.189 26.7109 41.1505 26.4519C41.1119 26.1929 41.1683 25.9288 41.3093 25.7081C41.4502 25.4875 41.6661 25.3252 41.9173 25.2512L45.9652 24.0173C46.1023 23.9728 46.2469 23.9561 46.3906 23.9681C46.5342 23.9802 46.6741 24.0207 46.8019 24.0874C46.9297 24.1541 47.043 24.2455 47.135 24.3565C47.2271 24.4674 47.2961 24.5956 47.3381 24.7335C47.3801 24.8714 47.3942 25.0163 47.3795 25.1597C47.3649 25.3031 47.3218 25.4422 47.2528 25.5688C47.1838 25.6954 47.0903 25.8069 46.9777 25.897C46.8651 25.987 46.7357 26.0537 46.597 26.0932L42.55 27.3322C42.4474 27.3628 42.3407 27.378 42.2336 27.3772Z" fill="white"/>
<path d="M41.2166 38.3925C41.028 38.3928 40.8426 38.3441 40.6785 38.2511C40.5145 38.158 40.3776 38.0238 40.2811 37.8618L38.122 34.2204C37.983 33.9735 37.9461 33.682 38.0194 33.4082C38.0927 33.1345 38.2702 32.9003 38.5139 32.7558C38.7577 32.6113 39.0483 32.568 39.3236 32.6351C39.5989 32.7022 39.837 32.8744 39.9869 33.1149L42.1477 36.7529C42.2456 36.9178 42.298 37.1057 42.2996 37.2974C42.3012 37.4892 42.2519 37.6779 42.1569 37.8444C42.0618 38.011 41.9243 38.1493 41.7584 38.2454C41.5925 38.3415 41.4041 38.392 41.2123 38.3916L41.2166 38.3925Z" fill="white"/>
<path d="M45.5782 33.825C45.4002 33.8254 45.2249 33.7815 45.068 33.6975L41.3339 31.7076C41.2082 31.6406 41.097 31.5494 41.0065 31.4394C40.916 31.3294 40.8481 31.2027 40.8066 31.0664C40.7651 30.9301 40.7508 30.7871 40.7646 30.6453C40.7784 30.5035 40.82 30.3659 40.887 30.2402C40.954 30.1145 41.0451 30.0032 41.1551 29.9128C41.2651 29.8223 41.3919 29.7543 41.5281 29.7128C41.6644 29.6713 41.8075 29.6571 41.9493 29.6709C42.091 29.6847 42.2287 29.7263 42.3544 29.7933L46.0876 31.7832C46.301 31.897 46.4702 32.0789 46.5683 32.2998C46.6664 32.5208 46.6879 32.7683 46.6292 33.0029C46.5706 33.2375 46.4352 33.4457 46.2446 33.5945C46.054 33.7434 45.8192 33.8242 45.5774 33.8242L45.5782 33.825Z" fill="white"/>
<defs>
<linearGradient id="paint0_linear_322_2532" x1="0" y1="0" x2="72.329" y2="32.8727" gradientUnits="userSpaceOnUse">
<stop stop-color="#7433FF"/>
<stop offset="1" stop-color="#FFA3FD"/>
</linearGradient>
</defs>
</svg>
