<svg width="60" height="60" viewBox="0 0 60 60" fill="none" xmlns="http://www.w3.org/2000/svg">
<circle cx="30" cy="30" r="30" fill="url(#paint0_linear_322_2617)"/>
<path d="M40.5633 28.6278V17.7079C40.5633 17.1046 40.3236 16.526 39.897 16.0994C39.4704 15.6728 38.8918 15.4331 38.2885 15.4331H16.2718C15.6685 15.4331 15.0899 15.6728 14.6633 16.0994C14.2366 16.526 13.997 17.1046 13.997 17.7079V28.6321C13.9973 28.7748 14.011 28.9171 14.0378 29.0573L13.9528 28.9901V31.5413C13.9528 31.6664 13.9899 31.7887 14.0594 31.8927C14.129 31.9967 14.2278 32.0778 14.3434 32.1257C14.4589 32.1735 14.5861 32.1861 14.7088 32.1617C14.8316 32.1373 14.9443 32.0771 15.0328 31.9886L16.1255 30.8958C16.1731 30.8958 16.2208 30.9009 16.2684 30.9009H38.2851C38.584 30.9014 38.88 30.8429 39.1563 30.7289C39.4325 30.6149 39.6836 30.4475 39.8952 30.2364C40.1068 30.0253 40.2747 29.7746 40.3893 29.4986C40.5039 29.2226 40.5631 28.9267 40.5633 28.6278ZM21.153 26.4125C20.9563 26.4125 20.7639 26.3542 20.6003 26.2449C20.4367 26.1355 20.3091 25.9801 20.2338 25.7983C20.1585 25.6165 20.1388 25.4165 20.1772 25.2235C20.2156 25.0305 20.3104 24.8532 20.4495 24.714C20.5886 24.5749 20.7659 24.4801 20.9589 24.4417C21.1519 24.4033 21.352 24.4231 21.5338 24.4984C21.7156 24.5737 21.871 24.7012 21.9803 24.8648C22.0896 25.0284 22.148 25.2208 22.148 25.4176C22.148 25.5483 22.1223 25.6776 22.0723 25.7983C22.0223 25.919 21.949 26.0287 21.8566 26.1211C21.7642 26.2135 21.6545 26.2868 21.5338 26.3368C21.4131 26.3868 21.2837 26.4125 21.153 26.4125ZM24.9569 26.4125C24.7601 26.4125 24.5677 26.3542 24.4041 26.2449C24.2405 26.1355 24.1129 25.9801 24.0376 25.7983C23.9623 25.6165 23.9426 25.4165 23.981 25.2235C24.0194 25.0305 24.1142 24.8532 24.2533 24.714C24.3925 24.5749 24.5697 24.4801 24.7627 24.4417C24.9558 24.4033 25.1558 24.4231 25.3376 24.4984C25.5194 24.5737 25.6748 24.7012 25.7841 24.8648C25.8935 25.0284 25.9518 25.2208 25.9518 25.4176C25.9518 25.5484 25.926 25.6779 25.8759 25.7987C25.8258 25.9196 25.7524 26.0293 25.6598 26.1217C25.5672 26.2142 25.4573 26.2874 25.3364 26.3373C25.2155 26.3872 25.086 26.4128 24.9552 26.4125H24.9569ZM28.7598 26.4125C28.563 26.4125 28.3707 26.3542 28.207 26.2449C28.0434 26.1355 27.9159 25.9801 27.8406 25.7983C27.7653 25.6165 27.7456 25.4165 27.784 25.2235C27.8224 25.0305 27.9171 24.8532 28.0563 24.714C28.1954 24.5749 28.3727 24.4801 28.5657 24.4417C28.7587 24.4033 28.9588 24.4231 29.1406 24.4984C29.3224 24.5737 29.4778 24.7012 29.5871 24.8648C29.6964 25.0284 29.7548 25.2208 29.7548 25.4176C29.7548 25.6815 29.65 25.9345 29.4634 26.1211C29.2768 26.3077 29.0237 26.4125 28.7598 26.4125ZM33.9566 19.8271L33.8112 23.1981C33.8028 23.3928 33.7196 23.5767 33.5789 23.7116C33.4382 23.8464 33.2509 23.9217 33.056 23.9217C32.8612 23.9217 32.674 23.8464 32.5334 23.7115C32.3928 23.5766 32.3098 23.3927 32.3017 23.1981L32.1563 19.8271C32.1519 19.7252 32.1682 19.6235 32.2042 19.528C32.2402 19.4326 32.2951 19.3454 32.3657 19.2718C32.4362 19.1981 32.5209 19.1396 32.6147 19.0995C32.7085 19.0595 32.8095 19.0388 32.9114 19.0388H33.204C33.3057 19.0391 33.4064 19.0601 33.4999 19.1003C33.5934 19.1405 33.6778 19.1991 33.7481 19.2727C33.8184 19.3463 33.873 19.4334 33.9089 19.5287C33.9447 19.6239 33.9609 19.7254 33.9566 19.8271ZM33.9498 25.4958V25.6923C33.9499 25.7915 33.9304 25.8897 33.8925 25.9814C33.8546 26.073 33.799 26.1563 33.7288 26.2265C33.6587 26.2966 33.5754 26.3522 33.4837 26.3902C33.3921 26.4281 33.2938 26.4475 33.1946 26.4474H32.9284C32.8292 26.4475 32.7309 26.4281 32.6392 26.3902C32.5475 26.3523 32.4641 26.2967 32.3939 26.2266C32.3237 26.1564 32.268 26.0731 32.23 25.9814C32.192 25.8898 32.1724 25.7915 32.1724 25.6923V25.4958C32.1724 25.3966 32.192 25.2983 32.23 25.2067C32.268 25.115 32.3237 25.0317 32.3939 24.9616C32.4641 24.8914 32.5475 24.8358 32.6392 24.7979C32.7309 24.76 32.8292 24.7406 32.9284 24.7407H33.1946C33.2938 24.7406 33.3921 24.76 33.4837 24.7979C33.5754 24.8358 33.6587 24.8914 33.7288 24.9616C33.799 25.0317 33.8546 25.115 33.8925 25.2067C33.9304 25.2984 33.9499 25.3966 33.9498 25.4958Z" fill="white"/>
<path d="M16.6757 43.2902C16.6566 43.191 16.6469 43.0902 16.6468 42.9892V35.3246C16.6468 35.115 16.6881 34.9075 16.7683 34.7139C16.8485 34.5203 16.9661 34.3444 17.1143 34.1962C17.2626 34.0481 17.4385 33.9306 17.6322 33.8505C17.8259 33.7703 18.0334 33.7291 18.243 33.7292H33.6887C33.8982 33.7291 34.1058 33.7703 34.2994 33.8505C34.4931 33.9306 34.6691 34.0481 34.8173 34.1962C34.9655 34.3444 35.0831 34.5203 35.1633 34.7139C35.2435 34.9075 35.2848 35.115 35.2848 35.3246V42.9892C35.2848 43.1988 35.2435 43.4063 35.1633 43.5999C35.0831 43.7935 34.9655 43.9694 34.8173 44.1176C34.6691 44.2657 34.4931 44.3832 34.2994 44.4633C34.1058 44.5435 33.8982 44.5846 33.6887 44.5845H18.243C18.209 44.5845 18.1758 44.5845 18.1426 44.5845L17.3773 45.3499C17.3152 45.4119 17.2361 45.4542 17.15 45.4713C17.0639 45.4884 16.9747 45.4796 16.8936 45.446C16.8125 45.4124 16.7432 45.3556 16.6944 45.2826C16.6457 45.2096 16.6196 45.1238 16.6196 45.0361V43.2443L16.6757 43.2902ZM24.0741 39.5272L24.5036 39.9575L25.8404 41.2943L27.6066 39.5272C27.6946 39.4396 27.7643 39.3355 27.8119 39.2209C27.8595 39.1063 27.884 38.9834 27.884 38.8593C27.884 38.7351 27.8595 38.6123 27.8119 38.4976C27.7643 38.383 27.6946 38.2789 27.6066 38.1913C27.519 38.1034 27.4149 38.0336 27.3003 37.986C27.1857 37.9384 27.0628 37.9139 26.9387 37.9139C26.8145 37.9139 26.6917 37.9384 26.577 37.986C26.4624 38.0336 26.3583 38.1034 26.2707 38.1913L25.8404 38.6207L25.4109 38.1913C25.3232 38.1033 25.2191 38.0336 25.1044 37.9859C24.9897 37.9383 24.8667 37.9139 24.7425 37.9139C24.6183 37.9139 24.4954 37.9383 24.3807 37.9859C24.266 38.0336 24.1618 38.1033 24.0741 38.1913C23.8965 38.368 23.7964 38.608 23.7958 38.8586C23.7951 39.1091 23.894 39.3496 24.0707 39.5272H24.0741Z" fill="white"/>
<path d="M44.8373 37.4864L44.106 38.2177L42.3508 39.9729C42.213 40.1105 42.0263 40.1877 41.8316 40.1877C41.637 40.1877 41.4502 40.1105 41.3125 39.9729L38.8251 37.4864C38.5237 37.1845 38.3545 36.7755 38.3545 36.349C38.3545 35.9225 38.5237 35.5134 38.8251 35.2116C38.9744 35.0621 39.1517 34.9436 39.3469 34.8627C39.542 34.7819 39.7512 34.7402 39.9625 34.7402C40.1737 34.7402 40.3829 34.7819 40.5781 34.8627C40.7732 34.9436 40.9505 35.0621 41.0999 35.2116L41.8312 35.9429L42.5625 35.2116C42.7119 35.0621 42.8892 34.9436 43.0844 34.8627C43.2795 34.7819 43.4887 34.7402 43.6999 34.7402C43.9112 34.7402 44.1204 34.7819 44.3155 34.8627C44.5107 34.9436 44.688 35.0621 44.8373 35.2116C44.9868 35.3609 45.1053 35.5382 45.1862 35.7334C45.267 35.9285 45.3087 36.1377 45.3087 36.349C45.3087 36.5602 45.267 36.7694 45.1862 36.9645C45.1053 37.1597 44.9868 37.337 44.8373 37.4864Z" fill="white"/>
<defs>
<linearGradient id="paint0_linear_322_2617" x1="0" y1="0" x2="72.329" y2="32.8727" gradientUnits="userSpaceOnUse">
<stop stop-color="#7433FF"/>
<stop offset="1" stop-color="#FFA3FD"/>
</linearGradient>
</defs>
</svg>
