<svg width="60" height="60" viewBox="0 0 60 60" fill="none" xmlns="http://www.w3.org/2000/svg">
<circle cx="30" cy="30" r="30" fill="url(#paint0_linear_322_2449)"/>
<path d="M29.5583 17.0718C29.2707 17.0718 28.9948 16.9576 28.7914 16.7543C28.5879 16.551 28.4735 16.2752 28.4732 15.9876V11.756C28.4732 11.4682 28.5876 11.1922 28.7911 10.9887C28.9946 10.7852 29.2706 10.6709 29.5583 10.6709C29.8461 10.6709 30.1221 10.7852 30.3256 10.9887C30.5291 11.1922 30.6434 11.4682 30.6434 11.756V15.9876C30.6434 16.13 30.6154 16.2711 30.5608 16.4027C30.5063 16.5343 30.4263 16.6538 30.3256 16.7545C30.2248 16.8552 30.1052 16.9351 29.9735 16.9895C29.8419 17.044 29.7008 17.0719 29.5583 17.0718Z" fill="white"/>
<path d="M35.6812 17.8133C35.505 17.8143 35.3313 17.7723 35.1751 17.6911C35.0188 17.6099 34.8846 17.4919 34.7842 17.3472C34.6837 17.2025 34.62 17.0356 34.5985 16.8608C34.5769 16.686 34.5983 16.5086 34.6607 16.3439L36.1523 12.3844C36.1997 12.2474 36.2741 12.1212 36.3711 12.0134C36.4681 11.9056 36.5857 11.8183 36.717 11.7568C36.8482 11.6952 36.9905 11.6605 37.1354 11.6549C37.2803 11.6492 37.4249 11.6727 37.5606 11.7238C37.6963 11.775 37.8203 11.8528 37.9254 11.9527C38.0305 12.0527 38.1145 12.1726 38.1725 12.3056C38.2304 12.4385 38.2611 12.5817 38.2628 12.7267C38.2645 12.8717 38.2371 13.0155 38.1822 13.1498L36.6923 17.1092C36.615 17.3153 36.4769 17.493 36.2964 17.6187C36.1158 17.7445 35.9012 17.8123 35.6812 17.8133Z" fill="white"/>
<path d="M42.1859 50.1129C41.9972 50.1133 41.8117 50.0645 41.6476 49.9712C41.4836 49.878 41.3467 49.7437 41.2504 49.5814L39.0896 45.9443C38.9506 45.6974 38.9137 45.4058 38.987 45.1321C39.0602 44.8584 39.2377 44.6242 39.4815 44.4797C39.7252 44.3352 40.0159 44.2919 40.2912 44.359C40.5665 44.4261 40.8046 44.5983 40.9545 44.8388L43.1153 48.4759C43.2132 48.6405 43.2657 48.8281 43.2676 49.0196C43.2695 49.2111 43.2207 49.3997 43.1261 49.5662C43.0316 49.7328 42.8946 49.8713 42.7291 49.9678C42.5637 50.0642 42.3757 50.1152 42.1842 50.1154L42.1859 50.1129Z" fill="white"/>
<path d="M46.5484 45.5455C46.3703 45.5458 46.195 45.5019 46.0381 45.4179L42.304 43.428C42.0502 43.2927 41.8605 43.062 41.7767 42.7869C41.6929 42.5117 41.7218 42.2145 41.8572 41.9606C41.9925 41.7068 42.2231 41.5171 42.4983 41.4333C42.7735 41.3495 43.0707 41.3784 43.3245 41.5137L47.0586 43.5037C47.2712 43.6179 47.4397 43.7999 47.5374 44.0207C47.635 44.2415 47.6562 44.4885 47.5977 44.7227C47.5391 44.9569 47.4041 45.1649 47.2141 45.3138C47.024 45.4626 46.7898 45.5439 46.5484 45.5446V45.5455Z" fill="white"/>
<path d="M16.9308 50.113C16.739 50.1135 16.5504 50.0631 16.3844 49.9669C16.2183 49.8707 16.0807 49.7323 15.9857 49.5656C15.8906 49.399 15.8414 49.2101 15.8431 49.0182C15.8448 48.8263 15.8974 48.6384 15.9954 48.4734L18.1631 44.8363C18.2339 44.7104 18.3292 44.6 18.4433 44.5115C18.5574 44.4229 18.6881 44.3581 18.8276 44.3208C18.9671 44.2835 19.1127 44.2744 19.2558 44.2941C19.3988 44.3138 19.5365 44.3618 19.6608 44.4355C19.785 44.5091 19.8933 44.6069 19.9792 44.7229C20.0652 44.839 20.1271 44.9711 20.1613 45.1114C20.1955 45.2517 20.2013 45.3974 20.1784 45.54C20.1555 45.6826 20.1044 45.8192 20.028 45.9418L17.8671 49.5789C17.7711 49.7418 17.6342 49.8768 17.47 49.9704C17.3058 50.0641 17.1199 50.1133 16.9308 50.113Z" fill="white"/>
<path d="M12.5683 45.5455C12.3269 45.5447 12.0926 45.4635 11.9026 45.3146C11.7125 45.1658 11.5776 44.9578 11.519 44.7236C11.4605 44.4894 11.4817 44.2423 11.5793 44.0215C11.677 43.8007 11.8454 43.6188 12.0581 43.5045L15.7913 41.5154C15.917 41.4484 16.0547 41.4069 16.1964 41.393C16.3382 41.3792 16.4813 41.3935 16.6175 41.435C16.7538 41.4765 16.8806 41.5444 16.9906 41.6349C17.1006 41.7254 17.1917 41.8366 17.2587 41.9623C17.3257 42.088 17.3673 42.2257 17.3811 42.3674C17.3949 42.5092 17.3806 42.6523 17.3391 42.7886C17.2976 42.9248 17.2297 43.0516 17.1392 43.1616C17.0487 43.2716 16.9375 43.3627 16.8118 43.4297L13.0777 45.4196C12.9209 45.5029 12.7459 45.5462 12.5683 45.5455Z" fill="white"/>
<path d="M23.4398 17.8133C23.2192 17.8133 23.0038 17.7461 22.8224 17.6206C22.641 17.4951 22.5022 17.3173 22.4244 17.1109L20.9328 13.1515C20.8779 13.0173 20.8505 12.8734 20.8522 12.7284C20.8538 12.5834 20.8846 12.4402 20.9425 12.3073C21.0005 12.1743 21.0845 12.0544 21.1896 11.9544C21.2946 11.8545 21.4187 11.7767 21.5544 11.7255C21.6901 11.6744 21.8346 11.6509 21.9795 11.6566C22.1244 11.6622 22.2667 11.6969 22.398 11.7585C22.5293 11.82 22.6469 11.9073 22.7439 12.0151C22.8409 12.1229 22.9153 12.2491 22.9627 12.3861L24.456 16.3439C24.5178 16.508 24.539 16.6847 24.5176 16.8588C24.4962 17.0329 24.433 17.1992 24.3332 17.3435C24.2335 17.4878 24.1003 17.6058 23.945 17.6873C23.7896 17.7688 23.6169 17.8115 23.4415 17.8116L23.4398 17.8133Z" fill="white"/>
<path d="M42.5226 18.1721C42.2886 18.172 42.0571 18.2198 41.8423 18.3125L39.7784 19.2062C36.551 20.603 33.0716 21.3237 29.5549 21.3237C26.0382 21.3237 22.5589 20.603 19.3315 19.2062L17.2676 18.3125C17.0528 18.2198 16.8212 18.172 16.5873 18.1721C16.3489 18.1709 16.1129 18.2199 15.8946 18.3158C15.6763 18.4117 15.4806 18.5524 15.3203 18.7288C15.1599 18.9052 15.0384 19.1134 14.9637 19.3398C14.8889 19.5662 14.8626 19.8058 14.8865 20.043C15.2955 24.3086 16.4487 32.7317 19.0432 38.0016C19.7498 39.4267 20.7548 40.6831 21.9898 41.6855C24.1247 43.4338 26.799 44.3891 29.5583 44.3891C32.3177 44.3891 34.992 43.4338 37.1268 41.6855C38.3578 40.6806 39.3583 39.4228 40.0607 37.9974C42.6552 32.7249 43.8084 24.306 44.2174 20.0388C44.2406 19.8024 44.214 19.5638 44.1393 19.3383C44.0646 19.1128 43.9436 18.9055 43.7839 18.7296C43.6243 18.5538 43.4295 18.4133 43.2123 18.3173C42.995 18.2213 42.7601 18.1718 42.5226 18.1721ZM37.9483 28.0928L29.6434 36.6818L24.2961 32.5013C24.1796 32.4151 24.0815 32.3064 24.0077 32.1817C23.9339 32.057 23.8858 31.9188 23.8663 31.7752C23.8467 31.6316 23.8561 31.4856 23.894 31.3457C23.9318 31.2058 23.9973 31.0749 24.0865 30.9607C24.1757 30.8465 24.287 30.7514 24.4136 30.6809C24.5402 30.6104 24.6796 30.566 24.8237 30.5502C24.9677 30.5345 25.1135 30.5478 25.2523 30.5893C25.3912 30.6308 25.5203 30.6998 25.6321 30.792L29.4401 33.7684L36.3887 26.5834C36.5886 26.3766 36.8625 26.2576 37.1502 26.2528C37.4378 26.2479 37.7156 26.3575 37.9224 26.5574C38.1292 26.7574 38.2481 27.0313 38.253 27.3189C38.2578 27.6065 38.1483 27.8843 37.9483 28.0911V28.0928Z" fill="white"/>
<defs>
<linearGradient id="paint0_linear_322_2449" x1="0" y1="0" x2="72.329" y2="32.8727" gradientUnits="userSpaceOnUse">
<stop stop-color="#7433FF"/>
<stop offset="1" stop-color="#FFA3FD"/>
</linearGradient>
</defs>
</svg>
