<svg width="60" height="60" viewBox="0 0 60 60" fill="none" xmlns="http://www.w3.org/2000/svg">
<circle cx="30" cy="30" r="30" fill="url(#paint0_linear_322_2597)"/>
<path d="M16.7596 15.4066L17.0623 16.0197C17.1028 16.1017 17.1627 16.1727 17.2368 16.2263C17.3109 16.2799 17.397 16.3147 17.4875 16.3275L18.1678 16.4262C18.272 16.4411 18.3698 16.485 18.4502 16.5528C18.5307 16.6205 18.5905 16.7095 18.623 16.8095C18.6555 16.9095 18.6593 17.0167 18.6341 17.1188C18.6088 17.2209 18.5554 17.3138 18.4799 17.3871L17.991 17.8642C17.9257 17.9281 17.8768 18.0069 17.8485 18.0938C17.8202 18.1808 17.8134 18.2732 17.8285 18.3634L17.9442 19.0369C17.9622 19.1406 17.9508 19.2474 17.9112 19.345C17.8717 19.4426 17.8056 19.5271 17.7204 19.5891C17.6352 19.6511 17.5344 19.688 17.4294 19.6956C17.3244 19.7032 17.2193 19.6812 17.1261 19.6322L16.5215 19.3141C16.4405 19.2718 16.3505 19.2497 16.2591 19.2497C16.1678 19.2497 16.0778 19.2718 15.9968 19.3141L15.3922 19.6322C15.299 19.6812 15.1939 19.7032 15.0889 19.6956C14.9838 19.688 14.883 19.6511 14.7979 19.5891C14.7127 19.5271 14.6466 19.4426 14.6071 19.345C14.5675 19.2474 14.5561 19.1406 14.5741 19.0369L14.6897 18.3634C14.705 18.2732 14.6982 18.1807 14.67 18.0938C14.6417 18.0069 14.5927 17.9281 14.5273 17.8642L14.0383 17.3871C13.9629 17.3138 13.9095 17.2209 13.8842 17.1188C13.8589 17.0167 13.8627 16.9095 13.8952 16.8095C13.9277 16.7095 13.9876 16.6205 14.068 16.5528C14.1485 16.485 14.2463 16.4411 14.3504 16.4262L15.0307 16.3275C15.1212 16.3144 15.2072 16.2795 15.2812 16.2259C15.3553 16.1723 15.4152 16.1015 15.4559 16.0197L15.7578 15.4066C15.8053 15.3147 15.8772 15.2376 15.9655 15.1838C16.0538 15.13 16.1553 15.1016 16.2587 15.1016C16.3621 15.1016 16.4636 15.13 16.5519 15.1838C16.6403 15.2376 16.7121 15.3147 16.7596 15.4066Z" fill="white"/>
<path d="M22.6971 15.4065L22.9998 16.0196C23.0403 16.1016 23.1002 16.1726 23.1743 16.2262C23.2484 16.2798 23.3344 16.3146 23.425 16.3274L24.1053 16.4261C24.2094 16.441 24.3072 16.4849 24.3877 16.5527C24.4682 16.6204 24.528 16.7094 24.5605 16.8094C24.593 16.9094 24.5968 17.0166 24.5715 17.1187C24.5462 17.2208 24.4928 17.3137 24.4174 17.387L23.9284 17.8641C23.863 17.928 23.8141 18.0068 23.7858 18.0937C23.7575 18.1806 23.7507 18.2731 23.766 18.3633L23.8817 19.0368C23.8997 19.1405 23.8882 19.2473 23.8487 19.3449C23.8091 19.4425 23.743 19.527 23.6579 19.589C23.5727 19.651 23.4719 19.6879 23.3669 19.6955C23.2618 19.7031 23.1568 19.6811 23.0636 19.6321L22.459 19.314C22.378 19.2717 22.288 19.2496 22.1966 19.2496C22.1052 19.2496 22.0152 19.2717 21.9343 19.314L21.3296 19.6321C21.2364 19.6811 21.1314 19.7031 21.0263 19.6955C20.9213 19.6879 20.8205 19.651 20.7353 19.589C20.6502 19.527 20.5841 19.4425 20.5445 19.3449C20.505 19.2473 20.4936 19.1405 20.5116 19.0368L20.6272 18.3633C20.6425 18.2731 20.6357 18.1806 20.6074 18.0937C20.5791 18.0068 20.5302 17.928 20.4648 17.8641L19.9758 17.387C19.9004 17.3137 19.847 17.2208 19.8217 17.1187C19.7964 17.0166 19.8002 16.9094 19.8327 16.8094C19.8652 16.7094 19.9251 16.6204 20.0055 16.5527C20.086 16.4849 20.1838 16.441 20.2879 16.4261L20.9682 16.3274C21.0588 16.3146 21.1449 16.2798 21.219 16.2262C21.2931 16.1726 21.3529 16.1016 21.3934 16.0196L21.6962 15.4065C21.7437 15.3148 21.8155 15.2379 21.9038 15.1843C21.992 15.1307 22.0933 15.1023 22.1966 15.1023C22.2999 15.1023 22.4012 15.1307 22.4894 15.1843C22.5777 15.2379 22.6495 15.3148 22.6971 15.4065Z" fill="white"/>
<path d="M28.6345 15.4065L28.9372 16.0196C28.9777 16.1017 29.0376 16.1726 29.1117 16.2262C29.1858 16.2799 29.2719 16.3146 29.3624 16.3275L30.0385 16.4261C30.1426 16.4411 30.2404 16.4849 30.3209 16.5527C30.4013 16.6204 30.4612 16.7094 30.4937 16.8094C30.5262 16.9095 30.53 17.0166 30.5047 17.1187C30.4794 17.2208 30.426 17.3138 30.3506 17.3871L29.8616 17.8641C29.7962 17.928 29.7473 18.0068 29.719 18.0937C29.6907 18.1807 29.6839 18.2732 29.6992 18.3633L29.8149 19.0368C29.8328 19.1406 29.8214 19.2473 29.7819 19.3449C29.7423 19.4425 29.6762 19.5271 29.5911 19.589C29.5059 19.651 29.4051 19.6879 29.3001 19.6955C29.195 19.7031 29.09 19.6811 28.9968 19.6321L28.3921 19.3141C28.3112 19.2717 28.2212 19.2496 28.1298 19.2496C28.0384 19.2496 27.9484 19.2717 27.8675 19.3141L27.2628 19.6321C27.1696 19.6811 27.0646 19.7031 26.9595 19.6955C26.8545 19.6879 26.7537 19.651 26.6685 19.589C26.5834 19.5271 26.5173 19.4425 26.4777 19.3449C26.4382 19.2473 26.4268 19.1406 26.4447 19.0368L26.5604 18.3633C26.5757 18.2732 26.5689 18.1807 26.5406 18.0937C26.5123 18.0068 26.4634 17.928 26.398 17.8641L25.909 17.3871C25.8336 17.3138 25.7802 17.2208 25.7549 17.1187C25.7296 17.0166 25.7334 16.9095 25.7659 16.8094C25.7984 16.7094 25.8583 16.6204 25.9387 16.5527C26.0192 16.4849 26.117 16.4411 26.2211 16.4261L26.8972 16.3275C26.9877 16.3146 27.0738 16.2799 27.1479 16.2262C27.222 16.1726 27.2819 16.1017 27.3224 16.0196L27.6251 15.4065C27.6718 15.3126 27.7438 15.2337 27.833 15.1785C27.9221 15.1232 28.0249 15.094 28.1298 15.094C28.2347 15.094 28.3375 15.1232 28.4266 15.1785C28.5158 15.2337 28.5878 15.3126 28.6345 15.4065Z" fill="white"/>
<path d="M34.572 15.4065L34.8747 16.0196C34.9152 16.1017 34.975 16.1726 35.0491 16.2262C35.1232 16.2799 35.2093 16.3146 35.2999 16.3275L35.9759 16.4261C36.0801 16.4411 36.1779 16.4849 36.2583 16.5527C36.3388 16.6204 36.3987 16.7094 36.4311 16.8094C36.4636 16.9095 36.4674 17.0166 36.4422 17.1187C36.4169 17.2208 36.3635 17.3138 36.288 17.3871L35.7991 17.8641C35.7337 17.928 35.6847 18.0068 35.6564 18.0937C35.6281 18.1807 35.6213 18.2732 35.6366 18.3633L35.7523 19.0368C35.7703 19.1406 35.7589 19.2473 35.7193 19.3449C35.6798 19.4425 35.6137 19.5271 35.5285 19.589C35.4434 19.651 35.3425 19.6879 35.2375 19.6955C35.1325 19.7031 35.0274 19.6811 34.9342 19.6321L34.3296 19.3141C34.2486 19.2717 34.1586 19.2496 34.0672 19.2496C33.9759 19.2496 33.8859 19.2717 33.8049 19.3141L33.2003 19.6321C33.1071 19.6811 33.002 19.7031 32.897 19.6955C32.7919 19.6879 32.6911 19.651 32.606 19.589C32.5208 19.5271 32.4547 19.4425 32.4152 19.3449C32.3756 19.2473 32.3642 19.1406 32.3822 19.0368L32.4978 18.3633C32.5131 18.2732 32.5063 18.1807 32.4781 18.0937C32.4498 18.0068 32.4008 17.928 32.3354 17.8641L31.8464 17.3871C31.771 17.3138 31.7176 17.2208 31.6923 17.1187C31.667 17.0166 31.6709 16.9095 31.7033 16.8094C31.7358 16.7094 31.7957 16.6204 31.8762 16.5527C31.9566 16.4849 32.0544 16.4411 32.1585 16.4261L32.8346 16.3275C32.9252 16.3146 33.0112 16.2799 33.0853 16.2262C33.1594 16.1726 33.2193 16.1017 33.2598 16.0196L33.5625 15.4065C33.6093 15.3126 33.6813 15.2337 33.7704 15.1785C33.8596 15.1232 33.9624 15.094 34.0672 15.094C34.1721 15.094 34.2749 15.1232 34.3641 15.1785C34.4532 15.2337 34.5252 15.3126 34.572 15.4065Z" fill="white"/>
<path d="M40.5094 15.4064L40.8113 16.0195C40.852 16.1014 40.9119 16.1722 40.986 16.2258C41.06 16.2794 41.146 16.3143 41.2365 16.3274L41.9125 16.426C42.0166 16.441 42.1145 16.4848 42.1949 16.5526C42.2754 16.6203 42.3352 16.7093 42.3677 16.8093C42.4002 16.9094 42.404 17.0165 42.3787 17.1186C42.3534 17.2207 42.3001 17.3137 42.2246 17.387L41.7357 17.864C41.6702 17.9279 41.6213 18.0067 41.593 18.0936C41.5647 18.1806 41.5579 18.2731 41.5732 18.3632L41.6889 19.0367C41.7069 19.1405 41.6954 19.2472 41.6559 19.3448C41.6163 19.4424 41.5502 19.527 41.4651 19.5889C41.3799 19.6509 41.2791 19.6878 41.1741 19.6954C41.0691 19.703 40.964 19.681 40.8708 19.632L40.2662 19.314C40.1852 19.2716 40.0952 19.2495 40.0038 19.2495C39.9125 19.2495 39.8225 19.2716 39.7415 19.314L39.1368 19.632C39.0437 19.681 38.9386 19.703 38.8336 19.6954C38.7285 19.6878 38.6277 19.6509 38.5426 19.5889C38.4574 19.527 38.3913 19.4424 38.3518 19.3448C38.3122 19.2472 38.3008 19.1405 38.3188 19.0367L38.4344 18.3632C38.4496 18.2731 38.4427 18.1806 38.4144 18.0937C38.3862 18.0068 38.3373 17.928 38.272 17.864L37.783 17.387C37.7076 17.3137 37.6542 17.2207 37.6289 17.1186C37.6036 17.0165 37.6074 16.9094 37.6399 16.8093C37.6724 16.7093 37.7323 16.6203 37.8127 16.5526C37.8932 16.4848 37.991 16.441 38.0951 16.426L38.7712 16.3274C38.8618 16.3145 38.9478 16.2798 39.0219 16.2261C39.096 16.1725 39.1559 16.1016 39.1964 16.0195L39.4991 15.4064C39.5458 15.3123 39.6178 15.2331 39.707 15.1777C39.7963 15.1224 39.8992 15.093 40.0043 15.093C40.1093 15.093 40.2122 15.1224 40.3015 15.1777C40.3907 15.2331 40.4627 15.3123 40.5094 15.4064Z" fill="white"/>
<path d="M17.6916 43.3998L19.9732 41.1173L18.7232 39.8672C18.6701 39.8144 18.6315 39.749 18.6109 39.677C18.5903 39.6051 18.5884 39.5291 18.6054 39.4562C18.6225 39.3834 18.6579 39.3161 18.7082 39.2607C18.7586 39.2054 18.8223 39.1639 18.8932 39.1401L26.0195 36.8024C26.0704 36.7858 26.125 36.7836 26.177 36.7961C26.2291 36.8085 26.2767 36.8351 26.3146 36.873C26.3525 36.9109 26.3791 36.9585 26.3916 37.0106C26.404 37.0626 26.4018 37.1172 26.3852 37.1681L24.0475 44.2944C24.0237 44.3653 23.9822 44.429 23.9268 44.4794C23.8715 44.5297 23.8042 44.5651 23.7314 44.5822C23.6585 44.5992 23.5825 44.5973 23.5106 44.5767C23.4386 44.5561 23.3732 44.5175 23.3204 44.4644L21.8654 43.0086L19.5863 45.2944C19.335 45.5455 18.9943 45.6866 18.639 45.6866C18.2837 45.6866 17.943 45.5455 17.6916 45.2944C17.4405 45.0431 17.2994 44.7023 17.2994 44.3471C17.2994 43.9918 17.4405 43.6511 17.6916 43.3998Z" fill="white"/>
<path d="M30.0011 22.3269H16.2553C14.9708 22.3269 13.9295 23.3682 13.9295 24.6527V24.6816C13.9295 25.9662 14.9708 27.0075 16.2553 27.0075H30.0011C31.2856 27.0075 32.3269 25.9662 32.3269 24.6816V24.6527C32.3269 23.3682 31.2856 22.3269 30.0011 22.3269Z" fill="white"/>
<path d="M23.874 29.1531H15.7927C14.7637 29.1531 13.9295 29.9873 13.9295 31.0163V31.9704C13.9295 32.9994 14.7637 33.8336 15.7927 33.8336H23.874C24.903 33.8336 25.7372 32.9994 25.7372 31.9704V31.0163C25.7372 29.9873 24.903 29.1531 23.874 29.1531Z" fill="white"/>
<path d="M45.3626 42.6838C45.3627 42.9488 45.2842 43.2078 45.137 43.4282C44.9899 43.6485 44.7806 43.8203 44.5358 43.9217C44.291 44.0231 44.0217 44.0496 43.7618 43.9979C43.5019 43.9462 43.2632 43.8186 43.0759 43.6311L40.8904 41.4465L40.7934 41.3495L40.5885 41.5545C40.4041 41.7388 40.1756 41.8727 39.9248 41.9436C39.6739 42.0145 39.4091 42.0199 39.1556 41.9593C38.902 41.8988 38.6683 41.7743 38.4765 41.5977C38.2848 41.4211 38.1415 41.1984 38.0603 40.9507L37.8987 40.4592C38.7981 40.2544 39.6199 39.7962 40.2669 39.1388C40.914 38.4814 41.359 37.6523 41.5494 36.7498L42.0852 36.9258C42.3915 37.0259 42.6582 37.2208 42.8466 37.4823C43.0351 37.7439 43.1356 38.0585 43.1337 38.3808C43.134 38.5804 43.0947 38.7781 43.0179 38.9624C42.9411 39.1466 42.8284 39.3137 42.6864 39.454L42.7323 39.4999L44.968 41.7365C45.0929 41.8607 45.192 42.0083 45.2597 42.1708C45.3274 42.3334 45.3624 42.5077 45.3626 42.6838Z" fill="white"/>
<path d="M36.8408 28.7866C35.4623 28.7878 34.1151 29.1975 32.9694 29.964C31.8236 30.7305 30.9308 31.8194 30.4036 33.0931C29.8764 34.3668 29.7386 35.7681 30.0075 37.1201C30.2764 38.4721 30.94 39.7142 31.9144 40.6892C32.8889 41.6642 34.1305 42.3286 35.4823 42.5983C36.8341 42.868 38.2356 42.7311 39.5096 42.2047C40.7836 41.6783 41.873 40.786 42.6402 39.6408C43.4074 38.4955 43.818 37.1485 43.82 35.7701C43.8189 33.919 43.0833 32.1441 41.7748 30.8348C40.4664 29.5255 38.6918 28.7889 36.8408 28.7866ZM37.8987 40.4591C36.8855 40.6873 35.8257 40.5812 34.8778 40.1568C33.9299 39.7324 33.1449 39.0125 32.6402 38.1048C32.1355 37.1971 31.9383 36.1504 32.0781 35.1213C32.2179 34.0922 32.6872 33.136 33.4157 32.3958C34.1441 31.6556 35.0927 31.1712 36.1195 31.015C37.1462 30.8588 38.196 31.0393 39.1116 31.5294C40.0272 32.0196 40.7596 32.793 41.199 33.734C41.6385 34.675 41.7614 35.733 41.5494 36.7497C41.3592 37.6523 40.9142 38.4815 40.2672 39.139C39.6201 39.7964 38.7982 40.2546 37.8987 40.4591Z" fill="white"/>
<defs>
<linearGradient id="paint0_linear_322_2597" x1="0" y1="0" x2="72.329" y2="32.8727" gradientUnits="userSpaceOnUse">
<stop stop-color="#7433FF"/>
<stop offset="1" stop-color="#FFA3FD"/>
</linearGradient>
</defs>
</svg>
