<svg width="175" height="43" viewBox="0 0 175 43" fill="none" xmlns="http://www.w3.org/2000/svg">
<g clip-path="url(#clip0_309_86)">
<path d="M80.4387 13.7381V33.7864H75.1977V23.1333L70.9429 29.7215H67.909L63.6616 23.1027V33.7864H58.4208V13.7381H63.3811L69.4486 23.1333L75.5163 13.7381H80.4387Z" fill="#373F41"/>
<path d="M92.0279 13.7381C93.1733 13.7301 94.3168 13.8381 95.441 14.0603C96.4165 14.2516 97.3447 14.6375 98.1715 15.1954C98.9483 15.7329 99.5772 16.4613 99.9994 17.3122C100.439 18.3547 100.666 19.4765 100.666 20.6101C100.666 21.7437 100.439 22.8655 99.9994 23.908C99.581 24.7572 98.9508 25.4814 98.1715 26.0095C97.3414 26.5611 96.4146 26.9464 95.441 27.1446C94.3187 27.3825 93.1744 27.4982 92.0279 27.4897H89.4187V33.7864H84.178V13.7381H92.0279ZM95.2818 20.6408C95.2992 20.2509 95.2183 19.8629 95.0465 19.5133C94.8901 19.2223 94.6597 18.9788 94.3792 18.8077C94.0808 18.6331 93.7548 18.5112 93.4159 18.4473C93.04 18.382 92.6595 18.3486 92.2781 18.3476H89.4187V22.9493H92.2781C92.6598 22.9521 93.0406 22.9187 93.4159 22.8496C93.7558 22.7889 94.0821 22.6668 94.3792 22.4891C94.6576 22.3188 94.8876 22.0783 95.0465 21.7912C95.2281 21.4177 95.3093 21.0024 95.2818 20.5871V20.6408Z" fill="#373F41"/>
<path d="M118.035 13.7381V18.4625H112.453V33.8016H107.212V18.4625H101.6V13.7381H118.035Z" fill="#373F41"/>
<path d="M118.688 23.7623C118.68 22.4063 118.906 21.0593 119.355 19.7818C119.782 18.5407 120.461 17.4041 121.35 16.4455C122.278 15.4467 123.409 14.662 124.664 14.1447C127.661 13.0196 130.958 13.0196 133.955 14.1447C135.185 14.6474 136.295 15.4095 137.211 16.3803C138.126 17.351 138.827 18.508 139.265 19.7742C140.144 22.3533 140.144 25.156 139.265 27.7353C138.827 29.0013 138.126 30.1582 137.211 31.129C136.295 32.0998 135.185 32.8619 133.955 33.3647C130.958 34.4896 127.661 34.4896 124.664 33.3647C123.409 32.8473 122.278 32.0626 121.35 31.0636C120.461 30.1052 119.782 28.9685 119.355 27.7276C118.907 26.4548 118.682 25.1132 118.688 23.7623ZM134.555 23.7623C134.562 23.007 134.447 22.2557 134.213 21.5382C133.998 20.8882 133.661 20.2865 133.22 19.7665C132.772 19.248 132.207 18.8456 131.574 18.593C130.107 18.0351 128.49 18.0351 127.023 18.593C126.391 18.8477 125.827 19.2498 125.377 19.7665C124.936 20.2865 124.599 20.8882 124.384 21.5382C124.157 22.257 124.044 23.0077 124.05 23.7623C124.043 24.5144 124.156 25.2628 124.384 25.9788C124.597 26.6319 124.934 27.2364 125.377 27.7582C125.827 28.275 126.391 28.6769 127.023 28.9316C128.49 29.4897 130.107 29.4897 131.574 28.9316C132.207 28.6791 132.772 28.2766 133.22 27.7582C133.663 27.2364 134 26.6319 134.213 25.9788C134.447 25.2641 134.563 24.5152 134.555 23.7623Z" fill="#373F41"/>
<path d="M150.535 13.7382C151.681 13.7309 152.824 13.8388 153.948 14.0603C154.924 14.2516 155.852 14.6375 156.679 15.1954C157.456 15.7329 158.085 16.4613 158.507 17.3122C158.947 18.3547 159.174 19.4765 159.174 20.6101C159.174 21.7437 158.947 22.8655 158.507 23.908C158.088 24.7572 157.458 25.4815 156.679 26.0095C155.849 26.5611 154.922 26.9464 153.948 27.1446C152.826 27.3817 151.682 27.4974 150.535 27.4897H147.926V33.7864H142.685V13.7382H150.535ZM153.789 20.6408C153.807 20.25 153.724 19.8612 153.546 19.5134C153.395 19.2213 153.166 18.9772 152.886 18.8078C152.588 18.6331 152.262 18.5112 151.923 18.4473C151.547 18.382 151.167 18.3486 150.785 18.3476H147.926V22.9493H150.785C151.167 22.9521 151.548 22.9187 151.923 22.8496C152.263 22.7889 152.589 22.6668 152.886 22.4892C153.164 22.3206 153.392 22.0796 153.546 21.7912C153.734 21.4195 153.818 21.0033 153.789 20.5871V20.6408Z" fill="#373F41"/>
<path d="M168.116 31.2017C168.114 30.8103 168.152 30.4195 168.23 30.0361C168.291 29.7047 168.418 29.3891 168.602 29.108C168.783 28.8406 169.028 28.6242 169.315 28.479C169.663 28.3323 170.037 28.2568 170.414 28.2568C170.792 28.2568 171.166 28.3323 171.514 28.479C171.8 28.6223 172.043 28.8392 172.219 29.108C172.403 29.3902 172.532 29.705 172.599 30.0361C172.677 30.4195 172.715 30.8103 172.712 31.2017V32.0915H174.821V33.8785H168.116V31.2017ZM170.392 30.0898C170.26 30.0859 170.13 30.1149 170.013 30.1742C169.915 30.2279 169.834 30.3073 169.777 30.404C169.719 30.5063 169.678 30.6179 169.656 30.734C169.644 30.8616 169.644 30.9898 169.656 31.1174V32.0915H171.173V31.1097C171.181 30.9821 171.181 30.8539 171.173 30.7263C171.151 30.6102 171.11 30.4986 171.052 30.3966C170.995 30.2996 170.914 30.2202 170.816 30.1664C170.691 30.1061 170.553 30.0799 170.414 30.0898H170.392Z" fill="#373F41"/>
<path d="M174.821 27.4207H168.116V24.5676C168.117 24.2273 168.153 23.888 168.222 23.5552C168.285 23.2375 168.409 22.9353 168.587 22.6655C168.763 22.4005 169 22.1822 169.277 22.029C169.618 21.8579 169.996 21.7761 170.377 21.7912C170.632 21.7858 170.888 21.8168 171.135 21.8832C171.335 21.943 171.524 22.0335 171.696 22.1517C171.855 22.2677 171.996 22.4074 172.113 22.5658C172.23 22.7272 172.327 22.9023 172.402 23.0874L174.836 21.216V23.2408L172.652 24.859V25.626H174.836L174.821 27.4207ZM171.196 25.6337V24.4909C171.208 24.2652 171.141 24.0425 171.006 23.862C170.931 23.7824 170.84 23.72 170.74 23.6789C170.639 23.6379 170.531 23.6193 170.422 23.6242C170.313 23.6193 170.205 23.6379 170.105 23.6789C170.004 23.72 169.913 23.7824 169.838 23.862C169.704 24.0425 169.636 24.2652 169.648 24.4909V25.6337H171.196Z" fill="#373F41"/>
<path d="M171.469 20.9935C171.014 20.9957 170.562 20.9178 170.134 20.7635C169.719 20.6177 169.339 20.3851 169.019 20.0809C168.69 19.7636 168.431 19.3793 168.26 18.9534C167.888 17.9285 167.888 16.8031 168.26 15.7782C168.433 15.3511 168.691 14.9647 169.019 14.6431C169.343 14.344 169.722 14.1121 170.134 13.9605C170.562 13.8086 171.014 13.7333 171.469 13.7381C171.92 13.7333 172.37 13.8086 172.796 13.9605C173.22 14.11 173.607 14.3496 173.931 14.6631C174.256 14.9767 174.51 15.3569 174.677 15.7782C175.049 16.8031 175.049 17.9285 174.677 18.9534C174.509 19.3808 174.25 19.7657 173.918 20.0809C173.6 20.3874 173.22 20.6203 172.803 20.7635C172.375 20.9188 171.923 20.9967 171.469 20.9935ZM171.469 15.5712C171.211 15.5666 170.955 15.6054 170.71 15.6862C170.492 15.7609 170.292 15.8781 170.118 16.0313C169.942 16.1807 169.806 16.3734 169.724 16.5912C169.63 16.8355 169.584 17.096 169.588 17.3582C169.584 17.6203 169.631 17.8806 169.724 18.1251C169.808 18.3418 169.943 18.5341 170.118 18.685C170.292 18.8358 170.493 18.9504 170.71 19.0225C170.955 19.1032 171.211 19.1421 171.469 19.1375C171.726 19.1414 171.982 19.1025 172.227 19.0225C172.444 18.9487 172.644 18.8342 172.819 18.685C172.989 18.5299 173.124 18.3388 173.213 18.1251C173.307 17.8806 173.353 17.6203 173.349 17.3582C173.353 17.096 173.307 16.8355 173.213 16.5912C173.125 16.3768 172.99 16.1854 172.819 16.0313C172.644 15.8797 172.444 15.7626 172.227 15.6862C171.982 15.6061 171.726 15.5673 171.469 15.5712Z" fill="#373F41"/>
<path d="M164.021 32.406L161.601 34.2619C161.416 34.4047 161.195 34.4923 160.963 34.5149C160.731 34.5375 160.497 34.4943 160.288 34.3898C160.079 34.2853 159.903 34.1241 159.78 33.924C159.657 33.7239 159.592 33.4929 159.591 33.2572V29.5374C159.592 29.3017 159.657 29.071 159.78 28.8709C159.903 28.6708 160.079 28.5093 160.288 28.4048C160.497 28.3006 160.731 28.2571 160.963 28.2797C161.195 28.3023 161.416 28.3899 161.601 28.5327L164.021 30.3889C164.175 30.5069 164.299 30.6593 164.386 30.8343C164.471 31.0093 164.516 31.202 164.516 31.3974C164.516 31.5929 164.471 31.7855 164.386 31.9606C164.299 32.1353 164.175 32.288 164.021 32.406Z" fill="#6E54A6"/>
<path d="M34.3856 28.4302C35.2541 31.9507 35.8306 35.5387 36.1089 39.1565C36.1282 39.5768 36.0467 39.9958 35.8717 40.3775C35.6965 40.7596 35.4326 41.0928 35.1028 41.3495C34.7727 41.6061 34.3864 41.7784 33.9764 41.8517C33.5665 41.925 33.1453 41.8972 32.7482 41.7704C26.1478 37.039 22.0462 28.1427 24.6657 25.8945H27.1818C27.3919 25.8958 27.5982 25.8388 27.7784 25.7297C27.9586 25.6205 28.1055 25.4633 28.2034 25.2754C28.3012 25.0874 28.3459 24.8759 28.3331 24.6639C28.32 24.452 28.2497 24.2477 28.1298 24.0734L22.9165 16.3794C22.8101 16.2248 22.6684 16.0986 22.5033 16.0114C22.3383 15.9242 22.1548 15.8786 21.9686 15.8786C21.7824 15.8786 21.5989 15.9242 21.4339 16.0114C21.2689 16.0986 21.1271 16.2248 21.0208 16.3794L15.7473 24.056C15.6304 24.2309 15.5626 24.4347 15.5512 24.6456C15.5397 24.8564 15.585 25.0664 15.6823 25.2533C15.7796 25.4402 15.9251 25.5969 16.1035 25.7067C16.2818 25.8165 16.4863 25.8754 16.6951 25.8771H19.194C21.779 28.125 17.7119 37.0216 11.12 41.7442H11.0769C10.6799 41.871 10.2586 41.8988 9.84869 41.8255C9.43878 41.7524 9.05241 41.5802 8.72248 41.3236C8.39254 41.0667 8.12876 40.7334 7.95359 40.3514C7.77843 39.9696 7.69704 39.5506 7.71634 39.1303C7.99497 35.5125 8.57141 31.9247 9.4397 28.404C5.9562 25.6878 2.91242 22.4394 0.417877 18.7756C0.182602 18.3927 0.0420467 17.9582 0.00807126 17.5087C-0.0259041 17.0592 0.0477114 16.6081 0.222703 16.1935C0.397694 15.7789 0.668901 15.413 1.01336 15.1268C1.35782 14.8407 1.76539 14.6427 2.20157 14.5496C6.06796 13.8375 9.9831 13.4297 13.9119 13.3297C15.8506 7.93612 17.9359 3.5881 19.6335 1.17448C19.8911 0.811099 20.2307 0.515033 20.624 0.310785C21.0174 0.10654 21.4532 0 21.8954 0C22.3376 0 22.7733 0.10654 23.1667 0.310785C23.5601 0.515033 23.8996 0.811099 24.1573 1.17448C25.8807 3.5881 27.9316 7.93612 29.8789 13.3297C33.8077 13.4297 37.7229 13.8375 41.5892 14.5496C42.0254 14.6427 42.4329 14.8407 42.7774 15.1268C43.1217 15.413 43.3929 15.7789 43.5679 16.1935C43.7429 16.6081 43.8165 17.0592 43.7827 17.5087C43.7486 17.9582 43.608 18.3927 43.3727 18.7756C40.8881 22.4439 37.8564 25.7007 34.3856 28.4302Z" fill="#6E54A6"/>
<path d="M20.7966 37.649L18.7114 40.4371C18.5534 40.6502 18.457 40.9035 18.4329 41.1686C18.4089 41.4338 18.4582 41.7004 18.5752 41.9391C18.6922 42.1775 18.8725 42.3784 19.0958 42.5196C19.3192 42.6604 19.5769 42.7359 19.8402 42.7376H24.0107C24.2748 42.7376 24.5336 42.6632 24.7582 42.5229C24.9828 42.3826 25.1643 42.1816 25.2824 41.9429C25.4005 41.7039 25.4505 41.4366 25.4268 41.1708C25.4031 40.9049 25.3066 40.6507 25.1482 40.4371L23.0629 37.649C22.9303 37.472 22.759 37.3287 22.5624 37.2297C22.3658 37.1311 22.1493 37.0795 21.9298 37.0795C21.7102 37.0795 21.4937 37.1311 21.2971 37.2297C21.1005 37.3287 20.9292 37.472 20.7966 37.649Z" fill="#6E54A6"/>
</g>
<defs>
<clipPath id="clip0_309_86">
<rect width="175" height="43" fill="white"/>
</clipPath>
</defs>
</svg>
