<svg width="86" height="21" viewBox="0 0 86 21" fill="none" xmlns="http://www.w3.org/2000/svg">
<g clip-path="url(#clip0_116_4034)">
<path d="M39.2839 6.70898V16.5H36.7243V11.2973L34.6464 14.5148H33.1648L31.0904 11.2824V16.5H28.531V6.70898H30.9534L33.9166 11.2973L36.88 6.70898H39.2839Z" fill="#F9F9F9"/>
<path d="M44.9438 6.70919C45.5032 6.70528 46.0616 6.75798 46.6106 6.86651C47.0871 6.95995 47.5404 7.1484 47.9441 7.42086C48.3235 7.68336 48.6307 8.03909 48.8369 8.45464C49.0517 8.96378 49.1626 9.51165 49.1626 10.0653C49.1626 10.6189 49.0517 11.1667 48.8369 11.6759C48.6325 12.0906 48.3247 12.4443 47.9441 12.7022C47.5388 12.9715 47.0862 13.1597 46.6106 13.2565C46.0626 13.3727 45.5037 13.4292 44.9438 13.4251H43.6695V16.5002H41.1101V6.70919H44.9438ZM46.5329 10.0802C46.5414 9.88982 46.5019 9.70035 46.418 9.52963C46.3416 9.38752 46.2291 9.26856 46.0921 9.18503C45.9464 9.09974 45.7871 9.04021 45.6217 9.009C45.4381 8.97711 45.2522 8.9608 45.066 8.96031H43.6695V11.2077H45.066C45.2524 11.209 45.4384 11.1927 45.6217 11.159C45.7877 11.1293 45.947 11.0697 46.0921 10.9829C46.228 10.8997 46.3404 10.7823 46.418 10.6421C46.5067 10.4597 46.5463 10.2568 46.5329 10.054V10.0802Z" fill="#F9F9F9"/>
<path d="M57.6451 6.70898V9.01627H54.9188V16.5074H52.3594V9.01627H49.6184V6.70898H57.6451Z" fill="#F9F9F9"/>
<path d="M57.9637 11.6052C57.9599 10.9429 58.0702 10.2851 58.2897 9.6612C58.4981 9.05508 58.83 8.49998 59.2639 8.03185C59.7174 7.54405 60.2694 7.1608 60.8826 6.90818C62.3463 6.35873 63.9564 6.35873 65.4201 6.90818C66.0207 7.15368 66.5627 7.52589 67.0098 7.99998C67.457 8.47405 67.799 9.03911 68.0129 9.65746C68.4425 10.917 68.4425 12.2858 68.0129 13.5454C67.799 14.1637 67.457 14.7287 67.0098 15.2028C66.5627 15.6769 66.0207 16.0492 65.4201 16.2947C63.9564 16.8441 62.3463 16.8441 60.8826 16.2947C60.2694 16.042 59.7174 15.6588 59.2639 15.1709C58.83 14.7029 58.4981 14.1477 58.2897 13.5417C58.071 12.9201 57.9608 12.2649 57.9637 11.6052ZM65.7127 11.6052C65.7163 11.2363 65.66 10.8694 65.546 10.5189C65.4411 10.2015 65.2763 9.90768 65.0608 9.6537C64.8421 9.4005 64.5664 9.20399 64.257 9.08063C63.5406 8.80813 62.7508 8.80813 62.0346 9.08063C61.7258 9.205 61.4503 9.40135 61.2308 9.6537C61.0153 9.90768 60.8505 10.2015 60.7456 10.5189C60.6346 10.87 60.5796 11.2366 60.5825 11.6052C60.5793 11.9725 60.6343 12.338 60.7456 12.6876C60.8496 13.0066 61.0145 13.3018 61.2308 13.5566C61.4503 13.809 61.7258 14.0053 62.0346 14.1297C62.7508 14.4023 63.5406 14.4023 64.257 14.1297C64.5664 14.0064 64.8421 13.8098 65.0608 13.5566C65.2771 13.3018 65.4421 13.0066 65.546 12.6876C65.6604 12.3386 65.7167 11.9728 65.7127 11.6052Z" fill="#F9F9F9"/>
<path d="M73.5173 6.70915C74.0767 6.70562 74.6351 6.75831 75.1841 6.86647C75.6606 6.95991 76.114 7.14836 76.5176 7.42082C76.897 7.68332 77.2043 8.03905 77.4103 8.4546C77.6253 8.96374 77.7361 9.51161 77.7361 10.0652C77.7361 10.6188 77.6253 11.1667 77.4103 11.6758C77.206 12.0905 76.8983 12.4442 76.5176 12.7021C76.1123 12.9715 75.6596 13.1597 75.1841 13.2565C74.6361 13.3723 74.0773 13.4288 73.5173 13.425H72.2432V16.5002H69.6836V6.70915H73.5173ZM75.1064 10.0802C75.1153 9.88933 75.0744 9.69945 74.9879 9.5296C74.9137 9.38697 74.8023 9.26773 74.6656 9.18499C74.5198 9.0997 74.3608 9.04018 74.1951 9.00896C74.0116 8.97707 73.8257 8.96077 73.6395 8.96027H72.2432V11.2076H73.6395C73.8259 11.209 74.0118 11.1927 74.1951 11.1589C74.3611 11.1293 74.5205 11.0696 74.6656 10.9829C74.8013 10.9006 74.9127 10.7829 74.9879 10.642C75.0794 10.4605 75.1203 10.2572 75.1064 10.054V10.0802Z" fill="#F9F9F9"/>
<path d="M82.1033 15.238C82.1022 15.0469 82.1209 14.856 82.159 14.6687C82.1888 14.5069 82.2506 14.3528 82.3404 14.2155C82.4288 14.0849 82.5486 13.9792 82.6887 13.9083C82.8588 13.8367 83.0413 13.7998 83.2257 13.7998C83.4101 13.7998 83.5926 13.8367 83.7628 13.9083C83.9023 13.9783 84.0212 14.0842 84.1072 14.2155C84.197 14.3533 84.2598 14.5071 84.2925 14.6687C84.3306 14.856 84.3492 15.0469 84.348 15.238V15.6726H85.3778V16.5453H82.1033V15.238ZM83.2146 14.695C83.1505 14.6931 83.0868 14.7072 83.0295 14.7362C82.9818 14.7624 82.9421 14.8012 82.9146 14.8485C82.886 14.8984 82.866 14.9529 82.8553 15.0096C82.8495 15.0719 82.8495 15.1345 82.8553 15.1968V15.6726H83.5962V15.1931C83.6002 15.1307 83.6002 15.0681 83.5962 15.0058C83.5855 14.9491 83.5654 14.8946 83.5369 14.8448C83.5094 14.7974 83.4697 14.7587 83.422 14.7324C83.3609 14.7029 83.2933 14.6901 83.2257 14.695H83.2146Z" fill="#F9F9F9"/>
<path d="M85.3777 13.3915H82.1033V11.9982C82.1037 11.832 82.121 11.6663 82.1551 11.5037C82.1858 11.3486 82.2462 11.201 82.3329 11.0692C82.419 10.9398 82.5346 10.8332 82.67 10.7584C82.8366 10.6748 83.0213 10.6349 83.2071 10.6422C83.332 10.6396 83.4567 10.6547 83.5775 10.6872C83.6749 10.7164 83.7674 10.7606 83.8516 10.8183C83.9292 10.875 83.9979 10.9432 84.0552 11.0206C84.1122 11.0994 84.1595 11.1849 84.1961 11.2753L85.385 10.3613V11.3502L84.3183 12.1405V12.5151H85.385L85.3777 13.3915ZM83.6072 12.5188V11.9607C83.613 11.8505 83.5803 11.7417 83.5145 11.6536C83.478 11.6147 83.4336 11.5842 83.3844 11.5642C83.3352 11.5441 83.2823 11.535 83.2294 11.5375C83.1762 11.535 83.1234 11.5441 83.0743 11.5642C83.025 11.5842 82.9807 11.6147 82.9441 11.6536C82.8784 11.7417 82.8456 11.8505 82.8514 11.9607V12.5188H83.6072Z" fill="#F9F9F9"/>
<path d="M83.7403 10.2524C83.5183 10.2535 83.2976 10.2155 83.0884 10.1401C82.8858 10.0689 82.7003 9.9553 82.544 9.80671C82.3833 9.65178 82.2571 9.4641 82.1735 9.25611C81.9916 8.75558 81.9916 8.20595 82.1735 7.70542C82.2579 7.49682 82.3841 7.3081 82.544 7.15107C82.7021 7.005 82.8872 6.89175 83.0884 6.81771C83.2978 6.74351 83.5184 6.70676 83.7403 6.70909C83.9611 6.70674 84.1805 6.7435 84.3885 6.81771C84.5955 6.8907 84.7846 7.00771 84.9431 7.16083C85.1015 7.31397 85.2257 7.49966 85.3072 7.70542C85.489 8.20595 85.489 8.75558 85.3072 9.25611C85.2251 9.46483 85.0986 9.65278 84.9367 9.80671C84.7812 9.9564 84.5955 10.0702 84.3923 10.1401C84.1831 10.2159 83.9625 10.254 83.7403 10.2524ZM83.7403 7.6043C83.6147 7.60205 83.4894 7.62104 83.37 7.66047C83.2636 7.69695 83.1655 7.75422 83.081 7.82902C82.9947 7.90196 82.9283 7.99611 82.8884 8.10245C82.8424 8.22176 82.8198 8.34898 82.8218 8.47702C82.8201 8.60504 82.8427 8.73219 82.8884 8.85158C82.9294 8.95738 82.9955 9.05132 83.081 9.12501C83.1657 9.19864 83.2639 9.25464 83.37 9.28982C83.4894 9.32926 83.6147 9.34824 83.7403 9.346C83.866 9.3479 83.9912 9.32892 84.1107 9.28982C84.2165 9.25378 84.3145 9.19786 84.3997 9.12501C84.4829 9.04927 84.5487 8.95592 84.5923 8.85158C84.638 8.73219 84.6606 8.60504 84.6589 8.47702C84.6609 8.34898 84.6383 8.22176 84.5923 8.10245C84.5493 7.99775 84.4834 7.90426 84.3997 7.82902C84.3146 7.75498 84.2167 7.6978 84.1107 7.66047C83.9912 7.62138 83.866 7.6024 83.7403 7.6043Z" fill="#F9F9F9"/>
<path d="M80.103 15.8266L78.9213 16.733C78.8308 16.8027 78.7229 16.8455 78.6096 16.8566C78.4963 16.8676 78.3822 16.8465 78.2801 16.7955C78.1781 16.7444 78.0921 16.6657 78.032 16.568C77.9719 16.4702 77.94 16.3574 77.9397 16.2423V14.4257C77.94 14.3106 77.9719 14.1979 78.032 14.1002C78.0921 14.0025 78.1781 13.9236 78.2801 13.8726C78.3822 13.8217 78.4963 13.8004 78.6096 13.8114C78.7229 13.8225 78.8308 13.8653 78.9213 13.935L80.103 14.8415C80.1782 14.8991 80.2391 14.9736 80.2812 15.059C80.3231 15.1445 80.345 15.2386 80.345 15.3341C80.345 15.4295 80.3231 15.5236 80.2812 15.6091C80.2391 15.6944 80.1782 15.769 80.103 15.8266Z" fill="#6E54A6"/>
<path d="M16.793 13.8845C17.2171 15.6038 17.4987 17.3561 17.6346 19.1229C17.644 19.3282 17.6042 19.5328 17.5188 19.7193C17.4332 19.9058 17.3043 20.0686 17.1432 20.1939C16.982 20.3192 16.7934 20.4034 16.5932 20.4392C16.3929 20.475 16.1873 20.4614 15.9933 20.3995C12.7699 18.0888 10.7667 13.7441 12.046 12.6461H13.2748C13.3774 12.6468 13.4782 12.619 13.5662 12.5656C13.6542 12.5123 13.7259 12.4356 13.7737 12.3438C13.8215 12.252 13.8434 12.1487 13.8371 12.0452C13.8307 11.9416 13.7964 11.8419 13.7378 11.7568L11.1918 7.99925C11.1398 7.92376 11.0706 7.86209 10.99 7.8195C10.9094 7.77692 10.8198 7.75468 10.7289 7.75468C10.6379 7.75468 10.5483 7.77692 10.4677 7.8195C10.3871 7.86209 10.3179 7.92376 10.2659 7.99925L7.69052 11.7483C7.63344 11.8337 7.60033 11.9332 7.59475 12.0362C7.58916 12.1392 7.6113 12.2417 7.6588 12.333C7.7063 12.4243 7.77738 12.5008 7.86449 12.5544C7.95159 12.6081 8.05144 12.6368 8.15343 12.6376H9.37381C10.6363 13.7355 8.64999 18.0803 5.4307 20.3867H5.40965C5.21579 20.4486 5.01002 20.4622 4.80983 20.4264C4.60964 20.3907 4.42095 20.3066 4.25981 20.1813C4.09868 20.0558 3.96986 19.8931 3.88431 19.7065C3.79877 19.52 3.75902 19.3154 3.76844 19.1101C3.90452 17.3433 4.18604 15.5912 4.61009 13.8717C2.90884 12.5452 1.42235 10.9588 0.204079 9.16949C0.0891779 8.98249 0.0205345 8.77026 0.00394178 8.55076C-0.0126508 8.33124 0.0233009 8.11091 0.108762 7.90844C0.194223 7.70595 0.326673 7.52727 0.494898 7.38753C0.663123 7.24779 0.862169 7.15109 1.07518 7.10562C2.96342 6.75787 4.87547 6.55868 6.79416 6.50987C7.74101 3.87578 8.75941 1.75233 9.58843 0.573585C9.71426 0.396118 9.88009 0.251527 10.0722 0.151779C10.2643 0.052031 10.4771 0 10.6931 0C10.909 0 11.1219 0.052031 11.314 0.151779C11.5061 0.251527 11.6719 0.396118 11.7977 0.573585C12.6394 1.75233 13.641 3.87578 14.592 6.50987C16.5107 6.55868 18.4228 6.75787 20.311 7.10562C20.524 7.15109 20.723 7.24779 20.8913 7.38753C21.0594 7.52727 21.1919 7.70595 21.2774 7.90844C21.3628 8.11091 21.3988 8.33124 21.3823 8.55076C21.3656 8.77026 21.2969 8.98249 21.182 9.16949C19.9686 10.961 18.488 12.5515 16.793 13.8845Z" fill="#6E54A6"/>
<path d="M10.1565 18.3865L9.13815 19.7481C9.061 19.8522 9.01392 19.9759 9.00217 20.1054C8.99043 20.2349 9.01448 20.3651 9.07163 20.4817C9.1288 20.5981 9.21683 20.6962 9.32591 20.7652C9.43499 20.834 9.56083 20.8708 9.68943 20.8716H11.7262C11.8552 20.8716 11.9816 20.8353 12.0913 20.7668C12.2009 20.6983 12.2896 20.6001 12.3472 20.4835C12.4049 20.3668 12.4293 20.2363 12.4178 20.1065C12.4062 19.9766 12.3591 19.8525 12.2817 19.7481L11.2633 18.3865C11.1985 18.3001 11.1149 18.2301 11.0189 18.1818C10.9229 18.1336 10.8171 18.1084 10.7099 18.1084C10.6027 18.1084 10.497 18.1336 10.401 18.1818C10.305 18.2301 10.2213 18.3001 10.1565 18.3865Z" fill="#6E54A6"/>
</g>
<defs>
<clipPath id="clip0_116_4034">
<rect width="85.4651" height="21" fill="white"/>
</clipPath>
</defs>
</svg>
