<svg width="201" height="37" viewBox="0 0 201 37" fill="none" xmlns="http://www.w3.org/2000/svg">
<path d="M94.0099 31.3215H97.9758L103.519 10.7259V31.3215H107.981V4.10101H101.852L96.3083 24.0657L90.7651 4.10101H84.5008V31.3215H88.3315V10.7259L94.0099 31.3215ZM126.638 17.8465C126.638 13.0243 124.25 11.2216 119.293 11.2216C116.183 11.2216 113.749 12.168 112.307 13.0243V16.855C113.524 15.9086 116.273 14.9171 118.707 14.9171C121.005 14.9171 121.952 15.7734 121.952 17.8014V18.883H121.23C114.11 18.883 110.865 21.2716 110.865 25.2825C110.865 29.2935 113.254 31.5469 116.904 31.5469C119.653 31.5469 120.87 30.6906 121.726 29.7442H121.952C121.952 30.2399 122.177 30.961 122.312 31.3215H126.909C126.774 29.7442 126.684 28.0767 126.684 26.4993C126.638 26.4993 126.638 17.8465 126.638 17.8465ZM121.952 26.6346C121.366 27.4908 120.284 28.2119 118.571 28.2119C116.634 28.2119 115.687 26.9951 115.687 25.3276C115.687 23.0292 117.265 22.218 121.366 22.218H122.087V26.6796H121.952V26.6346ZM134.705 11.5822H130.379V37H135.066V29.0682C136.283 30.8709 137.95 31.7271 140.023 31.7271C144.62 31.7271 147.73 28.1218 147.73 21.4969C147.73 14.872 144.71 11.2667 140.249 11.2667C138.086 11.2667 136.283 12.2131 134.931 14.151C134.976 14.1059 134.705 11.5822 134.705 11.5822ZM138.716 28.0767C136.328 28.0767 134.976 26.0487 134.976 21.587C134.976 16.9902 136.283 14.9622 138.942 14.9622C141.466 14.9622 142.772 16.9902 142.772 21.4518C142.772 26.0487 141.466 28.0767 138.716 28.0767ZM162.287 31.3215H167.604L160.123 20.7308L166.748 11.5822H162.061L155.436 20.7308V11.5822H150.749V31.3215H155.436V21.6772L162.287 31.3215ZM183.243 30.0146V26.1839C181.801 27.1303 179.412 27.9866 177.114 27.9866C173.734 27.9866 172.427 26.4092 172.156 23.0292H183.333V20.5054C183.333 13.6552 180.313 11.1315 175.626 11.1315C169.948 11.1315 167.199 15.4579 167.199 21.4969C167.199 28.3471 170.579 31.7271 176.483 31.7271C179.773 31.6821 181.936 30.961 183.243 30.0146ZM175.671 14.9622C177.97 14.9622 178.691 16.9001 178.691 19.2886V19.6492H172.156C172.291 16.5395 173.508 14.9622 175.671 14.9622ZM200.098 15.3227V11.5822H184.46V15.3227H190.003V31.3215H194.69V15.3227H200.098Z" fill="#9696B8"/>
<path d="M56.6943 36.1438C66.6992 36.1438 74.7662 28.0768 74.7662 18.0719C74.7662 8.067 66.6992 0 56.6943 0C46.6894 0 38.6224 8.067 38.6224 18.0719C38.5323 28.0768 46.7345 36.1438 56.6943 36.1438Z" fill="#9696B8"/>
<path d="M18.0719 36.1438C28.0527 36.1438 36.1438 28.0527 36.1438 18.0719C36.1438 8.09106 28.0527 0 18.0719 0C8.09106 0 0 8.09106 0 18.0719C0 28.0527 8.09106 36.1438 18.0719 36.1438Z" fill="#9696B8"/>
<path d="M20.6858 10.1401H18.8831C15.7735 10.1401 14.1962 11.7175 14.1962 14.106C14.1962 16.765 15.2778 18.0719 17.5762 19.6493L19.3789 20.9562L14.1962 29.0232H9.95987L14.9172 21.6773C12.033 19.6493 10.4556 17.7114 10.4556 14.3313C10.4556 10.095 13.3399 7.21075 18.8831 7.21075H24.4264V28.888H20.821V10.095H20.6858V10.1401Z" fill="#F9F9F9"/>
<path d="M47.8162 9.91473L31.9075 30.7357L36.1438 35.5579L47.9514 19.9196L46.7346 28.4824L53.3594 30.7808L61.4264 17.8916C61.0659 20.2802 60.48 25.8234 65.7529 27.536C74.0452 30.0597 81.301 15.1425 84.636 7.57124L79.8138 5.04749C76.0732 12.8892 70.3046 21.542 68.0062 20.9562C65.7078 20.3703 67.7809 13.0244 69.0878 8.29231V8.15711L61.7419 5.63336L52.9538 19.9647L54.1706 12.123L47.8162 9.91473Z" fill="#F9F9F9"/>
</svg>
