<svg width="52" height="53" viewBox="0 0 52 53" fill="none" xmlns="http://www.w3.org/2000/svg">
<circle cx="26" cy="26" r="26" fill="#FAFAFA"/>
<path fill-rule="evenodd" clip-rule="evenodd" d="M26 0C40.3594 0 52 11.7373 52 26.2161C52 40.6948 40.3594 52.4321 26 52.4321C11.6406 52.4321 0 40.6948 0 26.2161C0 11.7373 11.6406 0 26 0ZM31.2126 20.2817C29.8654 18.9828 28.1517 18.3215 26.2431 18.3215C22.8572 18.3215 19.9918 20.6272 18.9695 23.7255C18.7095 24.512 18.5618 25.3521 18.5618 26.216C18.5618 27.0799 18.709 27.92 18.969 28.7065C19.9913 31.8048 22.8572 34.1106 26.2431 34.1106C27.9922 34.1106 29.4818 33.646 30.6459 32.8595C32.0227 31.93 32.9386 30.5418 33.24 28.9032H26.2436V23.8328H38.4873C38.6409 24.6908 38.7236 25.5845 38.7236 26.514C38.7236 30.506 37.3054 33.8664 34.8472 36.1484C32.6963 38.1504 29.7531 39.3241 26.2431 39.3241C21.1613 39.3241 16.7649 36.3867 14.6258 32.1027C13.7453 30.3331 13.2436 28.3312 13.2436 26.216C13.2436 24.1008 13.7459 22.0989 14.6263 20.3293C16.7654 16.0453 21.1613 13.108 26.2431 13.108C29.7472 13.108 32.6899 14.4069 34.9413 16.5221L31.2126 20.2817Z" fill="#9696B8"/>
</svg>
