<svg width="53" height="53" viewBox="0 0 53 53" fill="none" xmlns="http://www.w3.org/2000/svg">
<circle cx="26.4285" cy="26" r="26" fill="#FAFAFA"/>
<path d="M17.8138 21.0864C17.9525 27.9026 21.3325 31.9923 27.2605 31.9923H27.6071V28.0949C29.7825 28.3133 31.4291 29.9212 32.0878 31.9923H35.1645C34.8489 30.8154 34.2895 29.7194 33.5231 28.7765C32.7568 27.8335 31.8009 27.0651 30.7185 26.5219C31.6884 25.9263 32.5261 25.1355 33.1792 24.1987C33.8324 23.262 34.2869 22.1995 34.5145 21.0777H31.7238C31.1171 23.2449 29.3145 25.2111 27.6071 25.3946V21.0864H24.8078V28.6367C23.0745 28.1997 20.8905 26.085 20.7951 21.0864H17.8138Z" fill="#9696B8"/>
<path fill-rule="evenodd" clip-rule="evenodd" d="M26.4285 0C40.7879 0 52.4285 11.7373 52.4285 26.2161C52.4285 40.6948 40.7879 52.4321 26.4285 52.4321C12.0691 52.4321 0.428467 40.6948 0.428467 26.2161C0.428467 11.7373 12.0691 0 26.4285 0ZM13.4285 25.6917C13.4285 19.7582 13.4285 16.7958 15.2485 14.9432C17.0945 13.108 20.0325 13.108 25.9085 13.108H26.9485C32.8331 13.108 35.7711 13.108 37.6085 14.9432C39.4285 16.8045 39.4285 19.7669 39.4285 25.6917V26.7404C39.4285 32.674 39.4285 35.6364 37.6085 37.489C35.7625 39.3241 32.8245 39.3241 26.9485 39.3241H25.9085C20.0238 39.3241 17.0858 39.3241 15.2485 37.489C13.4285 35.6276 13.4285 32.6652 13.4285 26.7404V25.6917Z" fill="#9696B8"/>
</svg>
