<svg width="20" height="20" viewBox="0 0 20 20" fill="none" xmlns="http://www.w3.org/2000/svg">
<circle cx="10" cy="10" r="10" fill="#FAFAFA"/>
<path fill-rule="evenodd" clip-rule="evenodd" d="M7.875 13.5625C8.5 13.9375 9.25 14.125 10 14.125C12.3125 14.125 14.125 12.25 14.125 10.0625C14.125 8.9375 13.75 7.9375 12.9375 7.125C12.125 6.375 11.125 5.9375 10 5.9375C7.75 5.9375 5.875 7.8125 5.875 10.0625C5.875 10.8125 6.0625 11.5625 6.5 12.25L6.625 12.4375L6.1875 13.9375L7.75 13.5L7.875 13.5625ZM11.375 10.625C11.5 10.625 12.125 10.9375 12.25 11C12.2695 11.0097 12.2889 11.0179 12.3082 11.0261C12.4124 11.0701 12.5097 11.1112 12.5625 11.375C12.625 11.375 12.625 11.625 12.5 11.9375C12.4375 12.1875 11.9375 12.5 11.6875 12.5C11.6452 12.5 11.6046 12.5036 11.5613 12.5074C11.3489 12.5262 11.07 12.5509 10.1875 12.1875C9.0922 11.7494 8.33282 10.6874 8.11958 10.3892C8.08946 10.3471 8.07023 10.3202 8.0625 10.3125C8.05185 10.2912 8.03034 10.2573 8.00197 10.2125C7.8637 9.99414 7.5625 9.51859 7.5625 9C7.5625 8.375 7.87499 8.0625 7.99999 7.9375C8.12499 7.8125 8.24999 7.8125 8.31249 7.8125H8.56251C8.62501 7.8125 8.75 7.8125 8.8125 8C8.9375 8.25 9.18751 8.875 9.18751 8.9375C9.18751 8.95833 9.19445 8.97917 9.20139 9C9.21528 9.04167 9.22917 9.08333 9.18751 9.125C9.15626 9.15625 9.14063 9.1875 9.125 9.21875C9.10938 9.25 9.09375 9.28125 9.0625 9.3125L8.87501 9.5C8.81251 9.5625 8.75 9.625 8.8125 9.75C8.875 9.875 9.12501 10.3125 9.50001 10.625C9.92195 10.9942 10.2549 11.1409 10.4237 11.2152C10.4549 11.229 10.4805 11.2402 10.5 11.25C10.625 11.25 10.6875 11.25 10.75 11.1875C10.7813 11.125 10.8594 11.0313 10.9375 10.9375C11.0156 10.8437 11.0937 10.75 11.125 10.6875C11.1875 10.5625 11.25 10.5625 11.375 10.625Z" fill="#9696B8"/>
<path fill-rule="evenodd" clip-rule="evenodd" d="M0 10C0 4.47715 4.47715 0 10 0C15.5228 0 20 4.47715 20 10C20 15.5228 15.5228 20 10 20C4.47715 20 0 15.5228 0 10ZM10 5C11.3125 5 12.5625 5.5 13.5 6.4375C14.4375 7.375 15 8.625 15 9.9375C15 12.6875 12.75 14.9375 10 14.9375C9.1875 14.9375 8.37501 14.6875 7.62501 14.3125L5 15L5.6875 12.5C5.25001 11.75 5 10.875 5 10C5 7.25 7.25 5 10 5Z" fill="#9696B8"/>
</svg>
