<svg width="113" height="28" viewBox="0 0 113 28" fill="none" xmlns="http://www.w3.org/2000/svg">
<g clip-path="url(#clip0_193_3881)">
<path d="M51.9404 8.94575V22.0005H48.5562V15.0636L45.8088 19.3536H43.8498L41.1072 15.0436V22.0005H37.7231V8.94575H40.926L44.8439 15.0636L48.7619 8.94575H51.9404Z" fill="#373F41"/>
<path d="M59.4238 8.94576C60.1634 8.94056 60.9018 9.01083 61.6276 9.15553C62.2576 9.28011 62.8569 9.53138 63.3908 9.89466C63.8924 10.2447 64.2985 10.719 64.5711 11.273C64.8552 11.9519 65.0018 12.6824 65.0018 13.4205C65.0018 14.1587 64.8552 14.8892 64.5711 15.568C64.3009 16.1209 63.894 16.5926 63.3908 16.9364C62.8548 17.2956 62.2564 17.5465 61.6276 17.6755C60.903 17.8304 60.1641 17.9058 59.4238 17.9003H57.739V22.0005H54.355V8.94576H59.4238ZM61.5249 13.4405C61.5361 13.1866 61.4838 12.934 61.373 12.7064C61.2719 12.5169 61.1232 12.3583 60.9421 12.2469C60.7493 12.1332 60.5388 12.0538 60.3201 12.0122C60.0773 11.9697 59.8316 11.9479 59.5854 11.9473H57.739V14.9437H59.5854C59.8318 14.9456 60.0777 14.9238 60.3201 14.8788C60.5395 14.8393 60.7502 14.7598 60.9421 14.6441C61.1218 14.5332 61.2703 14.3766 61.373 14.1896C61.4902 13.9464 61.5426 13.676 61.5249 13.4055V13.4405Z" fill="#373F41"/>
<path d="M76.2172 8.94575V12.0221H72.6126V22.0103H69.2286V12.0221H65.6045V8.94575H76.2172Z" fill="#373F41"/>
<path d="M76.6383 15.4731C76.6332 14.5902 76.7791 13.7131 77.0694 12.8812C77.3448 12.073 77.7836 11.3329 78.3574 10.7087C78.9569 10.0583 79.6868 9.54732 80.4976 9.2105C82.4328 8.4779 84.5617 8.4779 86.4969 9.2105C87.2911 9.53783 88.0077 10.0341 88.5989 10.6662C89.1901 11.2983 89.6423 12.0517 89.9251 12.8762C90.4931 14.5556 90.4931 16.3807 89.9251 18.0602C89.6423 18.8846 89.1901 19.6379 88.5989 20.27C88.0077 20.9022 87.2911 21.3985 86.4969 21.7259C84.5617 22.4583 82.4328 22.4583 80.4976 21.7259C79.6868 21.389 78.9569 20.878 78.3574 20.2275C77.7836 19.6034 77.3448 18.8632 77.0694 18.0552C76.7802 17.2264 76.6344 16.3528 76.6383 15.4731ZM86.8838 15.4731C86.8886 14.9813 86.8141 14.4921 86.6635 14.0248C86.5248 13.6016 86.3069 13.2098 86.0219 12.8712C85.7327 12.5336 85.3682 12.2716 84.9591 12.1071C84.012 11.7438 82.9677 11.7438 82.0208 12.1071C81.6124 12.2729 81.2483 12.5347 80.958 12.8712C80.673 13.2098 80.4551 13.6016 80.3164 14.0248C80.1697 14.4929 80.097 14.9818 80.1008 15.4731C80.0966 15.9629 80.1693 16.4502 80.3164 16.9165C80.4539 17.3417 80.672 17.7353 80.958 18.0751C81.2483 18.4116 81.6124 18.6733 82.0208 18.8392C82.9677 19.2026 84.012 19.2026 84.9591 18.8392C85.3682 18.6747 85.7327 18.4127 86.0219 18.0751C86.3079 17.7353 86.526 17.3417 86.6635 16.9165C86.8146 16.4511 86.8891 15.9634 86.8838 15.4731Z" fill="#373F41"/>
<path d="M97.2026 8.94579C97.9422 8.94108 98.6806 9.01133 99.4065 9.15555C100.036 9.28013 100.636 9.5314 101.17 9.89468C101.671 10.2447 102.077 10.719 102.35 11.2731C102.634 11.9519 102.781 12.6824 102.781 13.4205C102.781 14.1587 102.634 14.8892 102.35 15.568C102.08 16.121 101.673 16.5926 101.17 16.9364C100.634 17.2956 100.035 17.5465 99.4065 17.6756C98.6818 17.8299 97.9431 17.9053 97.2026 17.9003H95.518V22.0005H92.1338V8.94579H97.2026ZM99.3037 13.4405C99.3154 13.186 99.2614 12.9329 99.147 12.7064C99.049 12.5162 98.9016 12.3572 98.7209 12.2469C98.5281 12.1332 98.3178 12.0538 98.0989 12.0122C97.8561 11.9697 97.6104 11.9479 97.3642 11.9473H95.518V14.9438H97.3642C97.6106 14.9456 97.8565 14.9238 98.0989 14.8788C98.3183 14.8393 98.529 14.7598 98.7209 14.6441C98.9002 14.5344 99.0476 14.3774 99.147 14.1896C99.2679 13.9476 99.3221 13.6766 99.3037 13.4056V13.4405Z" fill="#373F41"/>
<path d="M108.555 20.3174C108.554 20.0625 108.578 19.808 108.629 19.5584C108.668 19.3426 108.75 19.1371 108.868 18.954C108.985 18.7799 109.144 18.639 109.329 18.5444C109.554 18.449 109.795 18.3998 110.039 18.3998C110.283 18.3998 110.524 18.449 110.749 18.5444C110.934 18.6378 111.091 18.779 111.205 18.954C111.323 19.1378 111.406 19.3428 111.45 19.5584C111.5 19.808 111.525 20.0625 111.523 20.3174V20.8968H112.884V22.0604H108.555V20.3174ZM110.024 19.5934C109.94 19.5908 109.855 19.6097 109.78 19.6483C109.717 19.6833 109.664 19.735 109.628 19.798C109.59 19.8646 109.563 19.9373 109.549 20.0128C109.542 20.0959 109.542 20.1794 109.549 20.2625V20.8968H110.529V20.2575C110.534 20.1744 110.534 20.0909 110.529 20.0078C110.515 19.9322 110.488 19.8595 110.45 19.7931C110.414 19.73 110.362 19.6783 110.299 19.6433C110.218 19.604 110.128 19.5869 110.039 19.5934H110.024Z" fill="#373F41"/>
<path d="M112.885 17.8553H108.555V15.9975C108.556 15.7759 108.579 15.555 108.624 15.3383C108.664 15.1314 108.744 14.9346 108.859 14.7589C108.973 14.5864 109.125 14.4442 109.304 14.3444C109.525 14.233 109.769 14.1798 110.015 14.1896C110.18 14.1861 110.345 14.2063 110.504 14.2495C110.633 14.2885 110.756 14.3474 110.867 14.4243C110.969 14.4999 111.06 14.5908 111.136 14.694C111.211 14.7991 111.274 14.9131 111.322 15.0336L112.894 13.8151V15.1335L111.484 16.1873V16.6867H112.894L112.885 17.8553ZM110.544 16.6917V15.9475C110.551 15.8006 110.508 15.6556 110.421 15.538C110.373 15.4862 110.314 15.4456 110.249 15.4188C110.184 15.3921 110.114 15.38 110.044 15.3832C109.974 15.38 109.904 15.3921 109.839 15.4188C109.774 15.4456 109.715 15.4862 109.667 15.538C109.58 15.6556 109.537 15.8006 109.544 15.9475V16.6917H110.544Z" fill="#373F41"/>
<path d="M110.72 13.6702C110.426 13.6716 110.134 13.6209 109.858 13.5204C109.59 13.4255 109.345 13.274 109.138 13.0759C108.925 12.8693 108.759 12.6191 108.648 12.3418C108.408 11.6744 108.408 10.9416 108.648 10.2742C108.76 9.99605 108.927 9.74443 109.138 9.53506C109.347 9.3403 109.592 9.18929 109.858 9.09058C110.135 8.99164 110.426 8.94264 110.72 8.94575C111.012 8.94261 111.302 8.99163 111.577 9.09058C111.85 9.18789 112.1 9.3439 112.31 9.54807C112.519 9.75226 112.684 9.99984 112.791 10.2742C113.032 10.9416 113.032 11.6744 112.791 12.3418C112.683 12.6201 112.516 12.8707 112.302 13.0759C112.096 13.2755 111.85 13.4272 111.582 13.5204C111.305 13.6215 111.014 13.6722 110.72 13.6702ZM110.72 10.1394C110.554 10.1364 110.388 10.1617 110.23 10.2143C110.089 10.2629 109.96 10.3393 109.848 10.439C109.734 10.5362 109.646 10.6618 109.593 10.8036C109.533 10.9626 109.503 11.1323 109.505 11.303C109.503 11.4737 109.533 11.6432 109.593 11.8024C109.647 11.9435 109.735 12.0687 109.848 12.167C109.96 12.2651 110.09 12.3398 110.23 12.3867C110.388 12.4393 110.554 12.4646 110.72 12.4616C110.886 12.4642 111.051 12.4389 111.209 12.3867C111.349 12.3387 111.479 12.2641 111.592 12.167C111.702 12.066 111.789 11.9415 111.846 11.8024C111.907 11.6432 111.937 11.4737 111.934 11.303C111.937 11.1323 111.907 10.9626 111.846 10.8036C111.789 10.664 111.702 10.5393 111.592 10.439C111.479 10.3403 111.35 10.264 111.209 10.2143C111.051 10.1621 110.886 10.1368 110.72 10.1394Z" fill="#373F41"/>
<path d="M105.911 21.1016L104.348 22.3101C104.229 22.4031 104.086 22.4601 103.936 22.4748C103.786 22.4896 103.635 22.4614 103.5 22.3934C103.366 22.3253 103.252 22.2203 103.172 22.09C103.093 21.9597 103.051 21.8093 103.05 21.6558V19.2337C103.051 19.0802 103.093 18.93 103.172 18.7997C103.252 18.6694 103.366 18.5642 103.5 18.4962C103.635 18.4283 103.786 18.4 103.936 18.4147C104.086 18.4294 104.229 18.4865 104.348 18.5794L105.911 19.7881C106.01 19.8649 106.091 19.9642 106.146 20.0782C106.202 20.1921 106.23 20.3176 106.23 20.4448C106.23 20.5721 106.202 20.6976 106.146 20.8115C106.091 20.9253 106.01 21.0248 105.911 21.1016Z" fill="#6E54A6"/>
<path d="M22.2033 18.5127C22.7641 20.8051 23.1363 23.1415 23.316 25.4972C23.3285 25.7709 23.2759 26.0438 23.1629 26.2924C23.0497 26.5411 22.8793 26.7581 22.6664 26.9252C22.4532 27.0923 22.2038 27.2045 21.9391 27.2523C21.6744 27.3 21.4024 27.2819 21.146 27.1993C16.884 24.1184 14.2355 18.3255 15.927 16.8615H17.5517C17.6873 16.8624 17.8206 16.8253 17.9369 16.7542C18.0533 16.6831 18.1481 16.5808 18.2113 16.4584C18.2745 16.336 18.3034 16.1983 18.2951 16.0602C18.2866 15.9222 18.2412 15.7892 18.1638 15.6757L14.7975 10.6657C14.7288 10.565 14.6373 10.4828 14.5307 10.426C14.4241 10.3692 14.3057 10.3396 14.1854 10.3396C14.0652 10.3396 13.9467 10.3692 13.8402 10.426C13.7336 10.4828 13.6421 10.565 13.5734 10.6657L10.1682 15.6643C10.0928 15.7783 10.049 15.911 10.0416 16.0483C10.0342 16.1856 10.0635 16.3223 10.1263 16.444C10.1891 16.5657 10.2831 16.6677 10.3982 16.7392C10.5134 16.8108 10.6454 16.8491 10.7803 16.8502H12.3938C14.063 18.314 11.4368 24.1071 7.18035 27.1823H7.15252C6.89619 27.2648 6.62413 27.2829 6.35944 27.2352C6.09475 27.1876 5.84527 27.0755 5.63223 26.9084C5.41918 26.7411 5.24886 26.5241 5.13575 26.2753C5.02264 26.0267 4.97009 25.7539 4.98255 25.4802C5.16247 23.1244 5.53468 20.7882 6.09535 18.4956C3.846 16.7269 1.88059 14.6117 0.269829 12.226C0.117909 11.9767 0.0271502 11.6937 0.00521173 11.401C-0.0167266 11.1083 0.0308079 10.8146 0.143803 10.5446C0.256797 10.2746 0.431919 10.0364 0.654342 9.85004C0.876766 9.66371 1.13994 9.53479 1.42158 9.47416C3.91817 9.01049 6.44623 8.7449 8.98308 8.67982C10.235 5.16771 11.5815 2.33644 12.6776 0.76478C12.844 0.528157 13.0632 0.33537 13.3172 0.202372C13.5712 0.0693747 13.8526 0 14.1382 0C14.4237 0 14.7051 0.0693747 14.9591 0.202372C15.2131 0.33537 15.4323 0.528157 15.5987 0.76478C16.7115 2.33644 18.0358 5.16771 19.2933 8.67982C21.8301 8.7449 24.3582 9.01049 26.8548 9.47416C27.1364 9.53479 27.3995 9.66371 27.622 9.85004C27.8443 10.0364 28.0194 10.2746 28.1324 10.5446C28.2454 10.8146 28.293 11.1083 28.2711 11.401C28.2491 11.6937 28.1583 11.9767 28.0064 12.226C26.4021 14.6147 24.4444 16.7354 22.2033 18.5127Z" fill="#6E54A6"/>
<path d="M13.4288 24.5156L12.0823 26.3311C11.9803 26.4699 11.9181 26.6348 11.9025 26.8075C11.887 26.9802 11.9188 27.1537 11.9944 27.3092C12.0699 27.4644 12.1863 27.5953 12.3306 27.6872C12.4748 27.7789 12.6412 27.8281 12.8112 27.8291H15.5042C15.6747 27.8291 15.8418 27.7807 15.9868 27.6893C16.1319 27.5979 16.2491 27.4671 16.3253 27.3117C16.4016 27.156 16.4339 26.9819 16.4185 26.8089C16.4032 26.6357 16.3409 26.4702 16.2386 26.3311L14.8921 24.5156C14.8065 24.4004 14.6959 24.3071 14.569 24.2426C14.442 24.1784 14.3022 24.1448 14.1605 24.1448C14.0187 24.1448 13.8789 24.1784 13.752 24.2426C13.625 24.3071 13.5144 24.4004 13.4288 24.5156Z" fill="#6E54A6"/>
</g>
<defs>
<clipPath id="clip0_193_3881">
<rect width="113" height="28" fill="white"/>
</clipPath>
</defs>
</svg>
