<svg width="60" height="60" viewBox="0 0 60 60" fill="none" xmlns="http://www.w3.org/2000/svg">
<circle cx="30" cy="30" r="30" fill="url(#paint0_linear_322_2519)"/>
<path d="M18.8555 19.7313C18.6669 19.7319 18.4814 19.6833 18.3173 19.5902C18.1533 19.4972 18.0163 19.3629 17.9201 19.2007L15.7592 15.5627C15.6202 15.3157 15.5834 15.0242 15.6567 14.7505C15.7299 14.4768 15.9074 14.2426 16.1512 14.0981C16.3949 13.9536 16.6856 13.9103 16.9609 13.9774C17.2362 14.0445 17.4743 14.2167 17.6242 14.4571L19.791 18.0926C19.8888 18.2575 19.9412 18.4454 19.9428 18.6371C19.9444 18.8289 19.8951 19.0176 19.8001 19.1841C19.705 19.3507 19.5675 19.489 19.4016 19.5851C19.2357 19.6812 19.0473 19.7317 18.8555 19.7313Z" fill="white"/>
<path d="M16.0637 22.6507C15.8857 22.6506 15.7105 22.6068 15.5535 22.5231L11.8194 20.5332C11.6916 20.4673 11.5782 20.3768 11.4858 20.2667C11.3933 20.1567 11.3236 20.0293 11.2808 19.8921C11.238 19.7549 11.2228 19.6105 11.2362 19.4674C11.2497 19.3243 11.2914 19.1853 11.359 19.0585C11.4266 18.9316 11.5187 18.8194 11.63 18.7285C11.7413 18.6375 11.8696 18.5696 12.0073 18.5286C12.1451 18.4877 12.2897 18.4745 12.4326 18.4899C12.5755 18.5052 12.7139 18.5488 12.8398 18.6181L16.5739 20.608C16.7866 20.7223 16.9551 20.9043 17.0527 21.125C17.1503 21.3458 17.1716 21.5929 17.113 21.8271C17.0545 22.0613 16.9195 22.2693 16.7294 22.4182C16.5394 22.567 16.3051 22.6482 16.0637 22.649V22.6507Z" fill="white"/>
<path d="M40.2855 19.7314C40.0937 19.7317 39.9053 19.6813 39.7394 19.5852C39.5735 19.4891 39.436 19.3507 39.3409 19.1842C39.2458 19.0177 39.1966 18.829 39.1982 18.6372C39.1998 18.4455 39.2522 18.2576 39.35 18.0927L41.5109 14.4547C41.5817 14.3288 41.677 14.2184 41.7911 14.1299C41.9052 14.0414 42.0359 13.9765 42.1754 13.9392C42.3149 13.9018 42.4605 13.8928 42.6036 13.9125C42.7467 13.9322 42.8844 13.9803 43.0086 14.0539C43.1328 14.1276 43.2411 14.2253 43.3271 14.3413C43.413 14.4574 43.4749 14.5895 43.5091 14.7298C43.5433 14.8701 43.5491 15.0159 43.5263 15.1585C43.5034 15.3011 43.4522 15.4376 43.3758 15.5602L41.2209 19.2007C41.1247 19.363 40.9877 19.4972 40.8237 19.5903C40.6596 19.6834 40.4741 19.732 40.2855 19.7314Z" fill="white"/>
<path d="M43.0773 22.6508C42.8359 22.65 42.6016 22.5688 42.4116 22.4199C42.2215 22.2711 42.0865 22.0631 42.028 21.8289C41.9694 21.5946 41.9906 21.3476 42.0883 21.1268C42.1859 20.906 42.3544 20.7241 42.5671 20.6098L46.3011 18.6199C46.5547 18.4892 46.8495 18.4636 47.1217 18.5486C47.394 18.6336 47.6219 18.8224 47.756 19.0741C47.8901 19.3258 47.9198 19.6203 47.8385 19.8937C47.7572 20.1671 47.5715 20.3975 47.3216 20.535L43.5875 22.5249C43.4303 22.608 43.2551 22.6512 43.0773 22.6508Z" fill="white"/>
<path d="M29.5705 33.1344C27.76 33.1324 26.0243 32.4122 24.7441 31.1321C23.4639 29.8519 22.7438 28.1162 22.7418 26.3057V21.2671C22.7418 19.456 23.4613 17.7192 24.7419 16.4386C26.0225 15.1579 27.7594 14.4385 29.5705 14.4385C31.3815 14.4385 33.1184 15.1579 34.3991 16.4386C35.6797 17.7192 36.3991 19.456 36.3991 21.2671V26.3057C36.3971 28.1162 35.677 29.8519 34.3968 31.1321C33.1166 32.4122 31.3809 33.1324 29.5705 33.1344ZM29.5705 16.6078C28.3352 16.6092 27.1508 17.1005 26.2773 17.974C25.4038 18.8475 24.9125 20.0318 24.9112 21.2671V26.3057C24.9277 27.5304 25.4258 28.6994 26.2978 29.5596C27.1697 30.4198 28.3452 30.9021 29.5701 30.9021C30.7949 30.9021 31.9704 30.4198 32.8423 29.5596C33.7143 28.6994 34.2124 27.5304 34.2289 26.3057V21.2671C34.2276 20.032 33.7364 18.8478 32.8631 17.9743C31.9897 17.1008 30.8056 16.6094 29.5705 16.6078Z" fill="white"/>
<path d="M37.0948 24.4971H22.0428C21.0646 24.4971 20.1265 24.8857 19.4349 25.5773C18.7432 26.269 18.3546 27.2071 18.3546 28.1852V43.2372C18.3546 43.7215 18.45 44.2011 18.6354 44.6485C18.8208 45.0959 19.0924 45.5024 19.4349 45.8448C19.7774 46.1872 20.184 46.4588 20.6315 46.6441C21.0789 46.8293 21.5585 46.9246 22.0428 46.9245H37.0948C37.5791 46.9246 38.0586 46.8293 38.5061 46.6441C38.9536 46.4588 39.3602 46.1872 39.7026 45.8448C40.0451 45.5024 40.3168 45.0959 40.5022 44.6485C40.6875 44.2011 40.7829 43.7215 40.7829 43.2372V28.1852C40.7829 27.2071 40.3944 26.269 39.7027 25.5773C39.011 24.8857 38.0729 24.4971 37.0948 24.4971ZM36.9919 32.5205L28.6861 41.1095L23.3397 36.9341C23.1205 36.7545 22.9804 36.4963 22.9491 36.2147C22.9178 35.9331 22.9979 35.6505 23.1722 35.4272C23.3466 35.2038 23.6014 35.0575 23.8821 35.0196C24.1629 34.9816 24.4474 35.055 24.6748 35.2239L28.4837 38.2003L35.4323 31.0154C35.5306 30.91 35.6489 30.8253 35.7804 30.7661C35.9118 30.707 36.0537 30.6747 36.1978 30.671C36.3419 30.6673 36.4852 30.6924 36.6195 30.7447C36.7538 30.7971 36.8763 30.8756 36.9799 30.9758C37.0835 31.076 37.1661 31.1959 37.2229 31.3283C37.2797 31.4608 37.3095 31.6033 37.3106 31.7474C37.3117 31.8915 37.2841 32.0344 37.2294 32.1677C37.1746 32.3011 37.0939 32.4222 36.9919 32.5239V32.5205Z" fill="white"/>
<defs>
<linearGradient id="paint0_linear_322_2519" x1="0" y1="0" x2="72.329" y2="32.8727" gradientUnits="userSpaceOnUse">
<stop stop-color="#7433FF"/>
<stop offset="1" stop-color="#FFA3FD"/>
</linearGradient>
</defs>
</svg>
