<svg width="60" height="60" viewBox="0 0 60 60" fill="none" xmlns="http://www.w3.org/2000/svg">
<circle cx="30" cy="30" r="30" fill="url(#paint0_linear_322_2570)"/>
<path d="M38.5929 45.9817H20.5416C18.7947 45.9795 17.12 45.2844 15.8848 44.0491C14.6496 42.8137 13.9548 41.1389 13.9528 39.392V21.3424C13.9546 19.5954 14.6493 17.9205 15.8845 16.6851C17.1198 15.4497 18.7946 14.7547 20.5416 14.7527H38.5929C40.34 14.7547 42.0149 15.4496 43.2503 16.685C44.4857 17.9204 45.1806 19.5953 45.1826 21.3424V39.3937C45.1801 41.1405 44.485 42.815 43.2497 44.05C42.0144 45.285 40.3397 45.9797 38.5929 45.9817ZM20.5416 16.9204C19.3688 16.9204 18.244 17.3863 17.4147 18.2155C16.5855 19.0448 16.1196 20.1696 16.1196 21.3424V39.3937C16.1196 40.5665 16.5855 41.6913 17.4147 42.5206C18.244 43.3499 19.3688 43.8158 20.5416 43.8158H38.5929C39.7657 43.8158 40.8905 43.3499 41.7198 42.5206C42.5491 41.6913 43.015 40.5665 43.015 39.3937V21.3424C43.015 20.1696 42.5491 19.0448 41.7198 18.2155C40.8905 17.3863 39.7657 16.9204 38.5929 16.9204H20.5416Z" fill="white"/>
<path d="M23.8377 28.8462H19.6708C19.3832 28.8462 19.1075 28.732 18.9041 28.5286C18.7008 28.3253 18.5865 28.0496 18.5865 27.762V24.1401C18.5825 23.9951 18.6075 23.8508 18.6602 23.7156C18.7129 23.5805 18.7922 23.4573 18.8933 23.3533C18.9944 23.2493 19.1153 23.1666 19.249 23.1102C19.3826 23.0537 19.5262 23.0247 19.6712 23.0247C19.8163 23.0247 19.9599 23.0537 20.0935 23.1102C20.2271 23.1666 20.348 23.2493 20.4492 23.3533C20.5503 23.4573 20.6295 23.5805 20.6822 23.7156C20.7349 23.8508 20.76 23.9951 20.7559 24.1401V26.6769H23.8369C23.9819 26.6728 24.1262 26.6978 24.2614 26.7505C24.3965 26.8032 24.5197 26.8825 24.6237 26.9836C24.7277 27.0847 24.8104 27.2057 24.8668 27.3393C24.9233 27.4729 24.9524 27.6165 24.9524 27.7615C24.9524 27.9066 24.9233 28.0502 24.8668 28.1838C24.8104 28.3174 24.7277 28.4384 24.6237 28.5395C24.5197 28.6406 24.3965 28.7199 24.2614 28.7725C24.1262 28.8252 23.9819 28.8503 23.8369 28.8462H23.8377Z" fill="white"/>
<path d="M23.8377 25.0664C23.695 25.0664 23.5538 25.0382 23.422 24.9835C23.2902 24.9288 23.1706 24.8487 23.0698 24.7476C22.9691 24.6466 22.8893 24.5267 22.835 24.3947C22.7807 24.2628 22.753 24.1214 22.7535 23.9787V20.0397C22.755 19.7532 22.87 19.4789 23.0731 19.2769C23.2763 19.0748 23.5512 18.9614 23.8377 18.9614H28.2921C28.5799 18.9614 28.8559 19.0757 29.0594 19.2792C29.2629 19.4827 29.3772 19.7587 29.3772 20.0465V21.1444C29.3693 21.4268 29.2515 21.695 29.049 21.892C28.8464 22.0889 28.575 22.1991 28.2925 22.1991C28.01 22.1991 27.7386 22.0889 27.536 21.892C27.3335 21.695 27.2157 21.4268 27.2078 21.1444V21.1308H24.9228V23.9787C24.9232 24.1215 24.8953 24.2628 24.841 24.3948C24.7866 24.5267 24.7067 24.6466 24.6059 24.7477C24.5051 24.8487 24.3854 24.9289 24.2536 24.9836C24.1217 25.0383 23.9804 25.0664 23.8377 25.0664Z" fill="white"/>
<path d="M32.34 25.9644H27.7946C27.5068 25.9644 27.2308 25.8501 27.0273 25.6466C26.8238 25.4431 26.7095 25.1671 26.7095 24.8793C26.7095 24.5915 26.8238 24.3155 27.0273 24.112C27.2308 23.9085 27.5068 23.7942 27.7946 23.7942H32.34C32.6278 23.7942 32.9038 23.9085 33.1073 24.112C33.3108 24.3155 33.4251 24.5915 33.4251 24.8793C33.4251 25.1671 33.3108 25.4431 33.1073 25.6466C32.9038 25.8501 32.6278 25.9644 32.34 25.9644Z" fill="white"/>
<path d="M32.374 22.8434C32.0864 22.8434 31.8106 22.7292 31.6073 22.5258C31.404 22.3225 31.2897 22.0467 31.2897 21.7591V20.2607C31.2857 20.1157 31.3107 19.9714 31.3634 19.8363C31.4161 19.7011 31.4953 19.5779 31.5965 19.4739C31.6976 19.3699 31.8185 19.2872 31.9522 19.2308C32.0858 19.1744 32.2294 19.1453 32.3744 19.1453C32.5195 19.1453 32.663 19.1744 32.7967 19.2308C32.9303 19.2872 33.0512 19.3699 33.1524 19.4739C33.2535 19.5779 33.3327 19.7011 33.3854 19.8363C33.4381 19.9714 33.4631 20.1157 33.4591 20.2607V21.7591C33.4591 21.9016 33.431 22.0427 33.3765 22.1743C33.3219 22.3059 33.242 22.4254 33.1412 22.5261C33.0404 22.6268 32.9208 22.7067 32.7892 22.7611C32.6575 22.8155 32.5164 22.8435 32.374 22.8434Z" fill="white"/>
<path d="M19.6717 34.6586C19.5292 34.6586 19.3881 34.6306 19.2565 34.576C19.1249 34.5215 19.0054 34.4415 18.9047 34.3407C18.804 34.24 18.7241 34.1204 18.6697 33.9887C18.6153 33.8571 18.5873 33.716 18.5874 33.5735V31.7222C18.5953 31.4398 18.7131 31.1716 18.9156 30.9746C19.1182 30.7777 19.3896 30.6675 19.6721 30.6675C19.9546 30.6675 20.226 30.7777 20.4285 30.9746C20.6311 31.1716 20.7488 31.4398 20.7568 31.7222V33.5735C20.7568 33.8613 20.6424 34.1373 20.4389 34.3408C20.2354 34.5443 19.9594 34.6586 19.6717 34.6586Z" fill="white"/>
<path d="M27.5735 32.2156H23.12C22.975 32.2196 22.8306 32.1946 22.6955 32.1419C22.5604 32.0892 22.4371 32.01 22.3331 31.9088C22.2291 31.8077 22.1465 31.6868 22.09 31.5531C22.0336 31.4195 22.0045 31.276 22.0045 31.1309C22.0045 30.9858 22.0336 30.8423 22.09 30.7086C22.1465 30.575 22.2291 30.4541 22.3331 30.353C22.4371 30.2518 22.5604 30.1726 22.6955 30.1199C22.8306 30.0672 22.975 30.0422 23.12 30.0462H26.4884V28.3157C26.4843 28.1707 26.5094 28.0263 26.5621 27.8912C26.6148 27.756 26.694 27.6328 26.7951 27.5289C26.8963 27.4249 27.0172 27.3422 27.1508 27.2857C27.2844 27.2293 27.428 27.2002 27.5731 27.2002C27.7181 27.2002 27.8617 27.2293 27.9953 27.2857C28.129 27.3422 28.2499 27.4249 28.351 27.5289C28.4521 27.6328 28.5314 27.756 28.5841 27.8912C28.6368 28.0263 28.6618 28.1707 28.6578 28.3157V31.1296C28.658 31.2721 28.6301 31.4133 28.5757 31.5451C28.5213 31.6768 28.4415 31.7966 28.3408 31.8974C28.2401 31.9983 28.1205 32.0783 27.9888 32.1329C27.8572 32.1875 27.716 32.2156 27.5735 32.2156Z" fill="white"/>
<path d="M22.9763 41.2934H19.6716C19.3841 41.2934 19.1083 41.1792 18.905 40.9759C18.7016 40.7725 18.5874 40.4967 18.5874 40.2092V37.3357C18.5833 37.1907 18.6084 37.0463 18.6611 36.9112C18.7138 36.7761 18.793 36.6529 18.8941 36.5489C18.9952 36.4449 19.1162 36.3622 19.2498 36.3058C19.3834 36.2493 19.527 36.2202 19.6721 36.2202C19.8171 36.2202 19.9607 36.2493 20.0943 36.3058C20.2279 36.3622 20.3489 36.4449 20.45 36.5489C20.5511 36.6529 20.6304 36.7761 20.6831 36.9112C20.7358 37.0463 20.7608 37.1907 20.7567 37.3357V39.1215H22.9763C23.2587 39.1294 23.5269 39.2472 23.7238 39.4498C23.9208 39.6523 24.031 39.9237 24.031 40.2062C24.031 40.4888 23.9208 40.7601 23.7238 40.9627C23.5269 41.1653 23.2587 41.283 22.9763 41.2909V41.2934Z" fill="white"/>
<path d="M26.8549 41.4243C26.5671 41.4243 26.2911 41.31 26.0876 41.1065C25.8842 40.903 25.7698 40.627 25.7698 40.3393V36.5644H23.8377C23.5553 36.5564 23.2871 36.4387 23.0902 36.2362C22.8932 36.0336 22.783 35.7622 22.783 35.4797C22.783 35.1972 22.8932 34.9258 23.0902 34.7232C23.2871 34.5207 23.5553 34.4029 23.8377 34.395H26.8549C27.1426 34.395 27.4184 34.5092 27.6219 34.7125C27.8254 34.9158 27.9398 35.1916 27.94 35.4793V40.3367C27.9404 40.4794 27.9126 40.6208 27.8582 40.7527C27.8038 40.8847 27.7239 41.0046 27.6231 41.1056C27.5223 41.2066 27.4026 41.2868 27.2708 41.3415C27.139 41.3962 26.9976 41.4243 26.8549 41.4243Z" fill="white"/>
<path d="M30.8484 41.3124C30.5608 41.3124 30.285 41.1981 30.0817 40.9948C29.8784 40.7914 29.7641 40.5157 29.7641 40.2281V36.9592C29.7641 36.6716 29.8784 36.3958 30.0817 36.1925C30.285 35.9892 30.5608 35.8749 30.8484 35.8749H35.7356C35.8806 35.8709 36.0249 35.8959 36.1601 35.9486C36.2952 36.0013 36.4184 36.0805 36.5224 36.1817C36.6264 36.2828 36.7091 36.4037 36.7655 36.5374C36.822 36.671 36.8511 36.8146 36.8511 36.9596C36.8511 37.1047 36.822 37.2482 36.7655 37.3819C36.7091 37.5155 36.6264 37.6364 36.5224 37.7375C36.4184 37.8387 36.2952 37.9179 36.1601 37.9706C36.0249 38.0233 35.8806 38.0483 35.7356 38.0443H31.9335V40.2281C31.9335 40.3706 31.9054 40.5116 31.8509 40.6432C31.7963 40.7748 31.7164 40.8944 31.6156 40.9951C31.5148 41.0958 31.3952 41.1756 31.2636 41.2301C31.1319 41.2845 30.9908 41.3125 30.8484 41.3124Z" fill="white"/>
<path d="M39.4969 41.3055H35.0434C34.761 41.2976 34.4928 41.1799 34.2958 40.9773C34.0988 40.7747 33.9886 40.5034 33.9886 40.2208C33.9886 39.9383 34.0988 39.6669 34.2958 39.4644C34.4928 39.2618 34.761 39.1441 35.0434 39.1362H39.4969C39.6419 39.1321 39.7862 39.1571 39.9214 39.2098C40.0565 39.2625 40.1797 39.3417 40.2837 39.4429C40.3877 39.544 40.4704 39.665 40.5268 39.7986C40.5833 39.9322 40.6124 40.0758 40.6124 40.2208C40.6124 40.3659 40.5833 40.5095 40.5268 40.6431C40.4704 40.7767 40.3877 40.8976 40.2837 40.9988C40.1797 41.0999 40.0565 41.1792 39.9214 41.2318C39.7862 41.2845 39.6419 41.3096 39.4969 41.3055Z" fill="white"/>
<path d="M39.4237 38.1649C39.1362 38.1649 38.8604 38.0507 38.6571 37.8473C38.4537 37.644 38.3395 37.3682 38.3395 37.0806V33.6485H35.4014C35.1136 33.6485 34.8376 33.5341 34.6341 33.3307C34.4306 33.1272 34.3163 32.8512 34.3163 32.5634C34.3163 32.2756 34.4306 31.9996 34.6341 31.7961C34.8376 31.5926 35.1136 31.4783 35.4014 31.4783H39.4237C39.5666 31.4783 39.708 31.5065 39.84 31.5613C39.9719 31.6161 40.0917 31.6964 40.1925 31.7976C40.2933 31.8988 40.3732 32.0189 40.4275 32.1511C40.4817 32.2832 40.5094 32.4248 40.5088 32.5676V37.0849C40.5077 37.3719 40.3929 37.6467 40.1895 37.8491C39.9861 38.0516 39.7107 38.1651 39.4237 38.1649Z" fill="white"/>
<path d="M31.7498 33.6485C31.4629 33.6483 31.1877 33.5344 30.9846 33.3319C30.7814 33.1293 30.6667 32.8545 30.6655 32.5676V28.3157C30.6615 28.1707 30.6865 28.0263 30.7392 27.8912C30.7919 27.756 30.8711 27.6328 30.9723 27.5289C31.0734 27.4249 31.1943 27.3422 31.328 27.2857C31.4616 27.2293 31.6052 27.2002 31.7502 27.2002C31.8953 27.2002 32.0388 27.2293 32.1725 27.2857C32.3061 27.3422 32.427 27.4249 32.5282 27.5289C32.6293 27.6328 32.7085 27.756 32.7612 27.8912C32.8139 28.0263 32.8389 28.1707 32.8349 28.3157V32.5676C32.8338 32.8547 32.7189 33.1296 32.5156 33.3322C32.3122 33.5347 32.0368 33.6485 31.7498 33.6485Z" fill="white"/>
<path d="M36.2951 29.8787H35.7458C35.4634 29.8708 35.1952 29.7531 34.9982 29.5505C34.8012 29.348 34.6911 29.0766 34.6911 28.7941C34.6911 28.5115 34.8012 28.2402 34.9982 28.0376C35.1952 27.8351 35.4634 27.7173 35.7458 27.7094H36.2951C36.4401 27.7053 36.5845 27.7304 36.7196 27.7831C36.8548 27.8358 36.978 27.915 37.082 28.0161C37.186 28.1173 37.2686 28.2382 37.3251 28.3718C37.3815 28.5054 37.4106 28.649 37.4106 28.7941C37.4106 28.9391 37.3815 29.0827 37.3251 29.2163C37.2686 29.3499 37.186 29.4709 37.082 29.572C36.978 29.6731 36.8548 29.7524 36.7196 29.8051C36.5845 29.8578 36.4401 29.8828 36.2951 29.8787Z" fill="white"/>
<path d="M19.9463 21.7896C19.6588 21.7896 19.383 21.6754 19.1796 21.472C18.9763 21.2687 18.8621 20.9929 18.8621 20.7054V20.156C18.858 20.011 18.8831 19.8667 18.9357 19.7316C18.9884 19.5964 19.0677 19.4732 19.1688 19.3692C19.2699 19.2652 19.3909 19.1825 19.5245 19.1261C19.6581 19.0696 19.8017 19.0405 19.9467 19.0405C20.0918 19.0405 20.2354 19.0696 20.369 19.1261C20.5026 19.1825 20.6236 19.2652 20.7247 19.3692C20.8258 19.4732 20.9051 19.5964 20.9577 19.7316C21.0104 19.8667 21.0355 20.011 21.0314 20.156V20.7054C21.0314 20.8478 21.0033 20.9889 20.9488 21.1205C20.8943 21.2521 20.8143 21.3717 20.7135 21.4724C20.6128 21.5731 20.4931 21.6529 20.3615 21.7074C20.2299 21.7618 20.0888 21.7897 19.9463 21.7896Z" fill="white"/>
<path d="M39.644 29.8786C39.3564 29.8786 39.0807 29.7644 38.8773 29.561C38.674 29.3577 38.5597 29.0819 38.5597 28.7944V26.4447H36.0205C35.7381 26.4368 35.4699 26.3191 35.2729 26.1165C35.0759 25.914 34.9657 25.6426 34.9657 25.3601C34.9657 25.0775 35.0759 24.8061 35.2729 24.6036C35.4699 24.401 35.7381 24.2833 36.0205 24.2754H39.644C39.9318 24.2754 40.2078 24.3897 40.4113 24.5932C40.6148 24.7967 40.7291 25.0727 40.7291 25.3605V28.7986C40.728 29.0856 40.6131 29.3604 40.4097 29.5629C40.2063 29.7653 39.931 29.8788 39.644 29.8786Z" fill="white"/>
<path d="M39.3566 21.2437H35.6905C35.5455 21.2478 35.4012 21.2228 35.266 21.1701C35.1309 21.1174 35.0077 21.0381 34.9037 20.937C34.7997 20.8359 34.717 20.7149 34.6606 20.5813C34.6041 20.4477 34.575 20.3041 34.575 20.1591C34.575 20.014 34.6041 19.8704 34.6606 19.7368C34.717 19.6032 34.7997 19.4823 34.9037 19.3811C35.0077 19.28 35.1309 19.2007 35.266 19.1481C35.4012 19.0954 35.5455 19.0703 35.6905 19.0744H39.3532C39.4982 19.0703 39.6425 19.0954 39.7776 19.1481C39.9128 19.2007 40.036 19.28 40.14 19.3811C40.244 19.4823 40.3267 19.6032 40.3831 19.7368C40.4396 19.8704 40.4686 20.014 40.4686 20.1591C40.4686 20.3041 40.4396 20.4477 40.3831 20.5813C40.3267 20.7149 40.244 20.8359 40.14 20.937C40.036 21.0381 39.9128 21.1174 39.7776 21.1701C39.6425 21.2228 39.4982 21.2478 39.3532 21.2437H39.3566Z" fill="white"/>
<defs>
<linearGradient id="paint0_linear_322_2570" x1="0" y1="0" x2="72.329" y2="32.8727" gradientUnits="userSpaceOnUse">
<stop stop-color="#7433FF"/>
<stop offset="1" stop-color="#FFA3FD"/>
</linearGradient>
</defs>
</svg>
