<svg width="60" height="60" viewBox="0 0 60 60" fill="none" xmlns="http://www.w3.org/2000/svg">
<circle cx="30" cy="30" r="30" fill="url(#paint0_linear_322_2468)"/>
<path d="M29.35 18.8881C29.0624 18.8881 28.7866 18.7738 28.5833 18.5705C28.38 18.3672 28.2657 18.0914 28.2657 17.8038V13.5723C28.2617 13.4273 28.2867 13.2829 28.3394 13.1478C28.3921 13.0126 28.4713 12.8894 28.5724 12.7854C28.6736 12.6814 28.7945 12.5988 28.9281 12.5423C29.0618 12.4859 29.2053 12.4568 29.3504 12.4568C29.4954 12.4568 29.639 12.4859 29.7727 12.5423C29.9063 12.5988 30.0272 12.6814 30.1283 12.7854C30.2295 12.8894 30.3087 13.0126 30.3614 13.1478C30.4141 13.2829 30.4391 13.4273 30.4351 13.5723V17.8038C30.4351 17.9463 30.407 18.0873 30.3525 18.2189C30.2979 18.3505 30.218 18.4701 30.1172 18.5708C30.0164 18.6715 29.8968 18.7513 29.7652 18.8058C29.6335 18.8602 29.4924 18.8882 29.35 18.8881Z" fill="white"/>
<path d="M35.4694 19.6295C35.2939 19.6295 35.121 19.5869 34.9656 19.5054C34.8102 19.424 34.6769 19.306 34.577 19.1617C34.4772 19.0174 34.4138 18.851 34.3924 18.6768C34.371 18.5027 34.3921 18.3259 34.454 18.1617L35.9456 14.2023C36.0481 13.9344 36.2525 13.7179 36.5141 13.6003C36.7758 13.4827 37.0733 13.4734 37.3418 13.5746C37.6102 13.6758 37.8276 13.8791 37.9465 14.1402C38.0655 14.4012 38.0762 14.6987 37.9763 14.9676L36.4839 18.9271C36.4063 19.1334 36.2676 19.3112 36.0863 19.4367C35.9051 19.5622 35.6899 19.6294 35.4694 19.6295Z" fill="white"/>
<path d="M23.2314 19.6295C23.0108 19.6295 22.7955 19.5623 22.6141 19.4368C22.4327 19.3113 22.2938 19.1335 22.216 18.9271L20.7287 14.9677C20.6776 14.8342 20.6534 14.6919 20.6575 14.549C20.6616 14.4061 20.6939 14.2654 20.7525 14.135C20.8111 14.0047 20.8949 13.8871 20.9991 13.7893C21.1032 13.6914 21.2257 13.615 21.3595 13.5646C21.4932 13.5142 21.6357 13.4907 21.7785 13.4955C21.9214 13.5003 22.0619 13.5332 22.192 13.5925C22.3221 13.6518 22.4392 13.7362 22.5366 13.8408C22.6339 13.9455 22.7097 14.0683 22.7594 14.2023L24.251 18.1618C24.3523 18.4311 24.3425 18.7296 24.2239 18.9917C24.1053 19.2538 23.8875 19.4581 23.6183 19.5598C23.4946 19.6062 23.3635 19.6298 23.2314 19.6295Z" fill="white"/>
<path d="M42.3534 22.4241H16.3475C15.9946 22.424 15.6452 22.4934 15.3192 22.6283C14.9931 22.7633 14.6969 22.9611 14.4473 23.2106C14.1978 23.4601 13.9998 23.7562 13.8648 24.0822C13.7297 24.4082 13.6602 24.7576 13.6602 25.1105V38.0143C13.6601 38.1856 13.6763 38.3564 13.7087 38.5246L13.6126 38.4446V41.4584C13.6126 41.6062 13.6564 41.7507 13.7385 41.8736C13.8206 41.9964 13.9373 42.0922 14.0738 42.1488C14.2103 42.2054 14.3605 42.2203 14.5055 42.1916C14.6504 42.1628 14.7836 42.0918 14.8882 41.9874L16.1791 40.6931C16.2358 40.6965 16.2925 40.6982 16.3492 40.6982H42.3534C43.0658 40.6982 43.7491 40.4152 44.2529 39.9114C44.7567 39.4076 45.0397 38.7243 45.0397 38.0118V25.1105C45.0397 24.398 44.7567 23.7147 44.2529 23.2109C43.7491 22.7071 43.0658 22.4241 42.3534 22.4241ZM22.4295 32.5574C22.2327 32.5574 22.0403 32.499 21.8767 32.3897C21.7131 32.2804 21.5856 32.125 21.5103 31.9432C21.4349 31.7614 21.4152 31.5613 21.4536 31.3683C21.492 31.1753 21.5868 30.998 21.7259 30.8589C21.8651 30.7197 22.0424 30.625 22.2354 30.5866C22.4284 30.5482 22.6284 30.5679 22.8102 30.6432C22.992 30.7185 23.1474 30.846 23.2568 31.0096C23.3661 31.1733 23.4244 31.3656 23.4244 31.5624C23.4244 31.8263 23.3196 32.0794 23.133 32.2659C22.9464 32.4525 22.6934 32.5574 22.4295 32.5574ZM26.2324 32.5574C26.0357 32.5574 25.8433 32.499 25.6797 32.3897C25.516 32.2804 25.3885 32.125 25.3132 31.9432C25.2379 31.7614 25.2182 31.5613 25.2566 31.3683C25.295 31.1753 25.3897 30.998 25.5289 30.8589C25.668 30.7197 25.8453 30.625 26.0383 30.5866C26.2313 30.5482 26.4314 30.5679 26.6132 30.6432C26.795 30.7185 26.9504 30.846 27.0597 31.0096C27.169 31.1733 27.2274 31.3656 27.2274 31.5624C27.2274 31.6934 27.2015 31.8232 27.1513 31.9441C27.101 32.0651 27.0273 32.175 26.9345 32.2675C26.8416 32.3599 26.7315 32.4331 26.6102 32.4829C26.489 32.5326 26.3592 32.5579 26.2282 32.5574H26.2324ZM30.0354 32.5574C29.8386 32.5574 29.6462 32.499 29.4826 32.3897C29.319 32.2804 29.1915 32.125 29.1162 31.9432C29.0409 31.7614 29.0212 31.5613 29.0596 31.3683C29.0979 31.1753 29.1927 30.998 29.3319 30.8589C29.471 30.7197 29.6483 30.625 29.8413 30.5866C30.0343 30.5482 30.2343 30.5679 30.4162 30.6432C30.598 30.7185 30.7533 30.846 30.8627 31.0096C30.972 31.1733 31.0304 31.3656 31.0304 31.5624C31.0304 31.6934 31.0045 31.8232 30.9542 31.9441C30.9039 32.0651 30.8303 32.175 30.7374 32.2675C30.6446 32.3599 30.5344 32.4331 30.4132 32.4829C30.292 32.5326 30.1622 32.5579 30.0311 32.5574H30.0354ZM36.9976 31.1279L36.5681 31.5573L35.2313 32.8941L33.465 31.1279C33.2879 30.9505 33.1883 30.7101 33.1883 30.4594C33.1883 30.2088 33.2879 29.9684 33.465 29.791C33.6424 29.6138 33.8828 29.5143 34.1334 29.5143C34.3841 29.5143 34.6245 29.6138 34.8019 29.791L35.2313 30.2213L35.6616 29.791C35.8388 29.6139 36.0791 29.5144 36.3296 29.5144C36.5801 29.5144 36.8204 29.6139 36.9976 29.791C37.0852 29.879 37.1547 29.9834 37.2019 30.0982C37.2492 30.2131 37.2733 30.3361 37.2729 30.4603C37.2725 30.5845 37.2476 30.7074 37.1996 30.8219C37.1516 30.9365 37.0815 31.0404 36.9933 31.1279H36.9976Z" fill="white"/>
<path d="M19.8978 44.1269L20.1997 44.74C20.2403 44.822 20.3002 44.8928 20.3743 44.9464C20.4484 45.0001 20.5344 45.0349 20.6249 45.0479L21.301 45.1465C21.405 45.1617 21.5027 45.2056 21.583 45.2733C21.6634 45.3411 21.7232 45.4299 21.7558 45.5298C21.7883 45.6298 21.7923 45.7368 21.7672 45.8389C21.7421 45.9409 21.6891 46.034 21.6139 46.1075L21.1241 46.5845C21.0588 46.6484 21.01 46.7273 20.9818 46.8142C20.9537 46.9012 20.9471 46.9936 20.9625 47.0837L21.0782 47.7572C21.0962 47.861 21.0847 47.9677 21.0452 48.0653C21.0056 48.1629 20.9395 48.2475 20.8544 48.3094C20.7692 48.3714 20.6684 48.4083 20.5634 48.4159C20.4584 48.4235 20.3533 48.4015 20.2601 48.3525L19.6555 48.0344C19.5745 47.9921 19.4845 47.97 19.3931 47.97C19.3018 47.97 19.2118 47.9921 19.1308 48.0344L18.5253 48.3525C18.4321 48.4015 18.327 48.4235 18.222 48.4159C18.117 48.4083 18.0162 48.3714 17.931 48.3094C17.8459 48.2475 17.7798 48.1629 17.7402 48.0653C17.7007 47.9677 17.6892 47.861 17.7072 47.7572L17.8229 47.0837C17.8384 46.9936 17.8317 46.9012 17.8036 46.8142C17.7754 46.7273 17.7266 46.6484 17.6613 46.5845L17.1715 46.1075C17.0964 46.034 17.0433 45.9409 17.0182 45.8389C16.9931 45.7368 16.9971 45.6298 17.0297 45.5298C17.0622 45.4299 17.122 45.3411 17.2024 45.2733C17.2827 45.2056 17.3804 45.1617 17.4844 45.1465L18.1647 45.0479C18.2553 45.0349 18.3413 45.0001 18.4153 44.9464C18.4894 44.8928 18.5493 44.822 18.5899 44.74L18.8927 44.1269C18.9398 44.0341 19.0117 43.9562 19.1005 43.9018C19.1892 43.8474 19.2912 43.8186 19.3953 43.8186C19.4993 43.8186 19.6013 43.8474 19.6901 43.9018C19.7788 43.9562 19.8507 44.0341 19.8978 44.1269Z" fill="white"/>
<path d="M25.831 44.1269L26.1338 44.74C26.1744 44.822 26.2343 44.8928 26.3084 44.9464C26.3824 45.0001 26.4685 45.0349 26.559 45.0479L27.235 45.1465C27.339 45.1617 27.4367 45.2056 27.5171 45.2733C27.5974 45.3411 27.6573 45.4299 27.6898 45.5298C27.7224 45.6298 27.7263 45.7368 27.7013 45.8389C27.6762 45.9409 27.6231 46.034 27.548 46.1075L27.0582 46.5845C26.9928 46.6484 26.944 46.7273 26.9159 46.8142C26.8877 46.9012 26.8811 46.9936 26.8966 47.0837L27.0122 47.7572C27.0302 47.861 27.0188 47.9677 26.9792 48.0653C26.9397 48.1629 26.8736 48.2475 26.7884 48.3094C26.7033 48.3714 26.6025 48.4083 26.4975 48.4159C26.3924 48.4235 26.2874 48.4015 26.1942 48.3525L25.5887 48.0344C25.5077 47.9921 25.4177 47.97 25.3263 47.97C25.235 47.97 25.145 47.9921 25.064 48.0344L24.4594 48.3525C24.3662 48.4015 24.2611 48.4235 24.1561 48.4159C24.051 48.4083 23.9502 48.3714 23.8651 48.3094C23.7799 48.2475 23.7138 48.1629 23.6743 48.0653C23.6347 47.9677 23.6233 47.861 23.6413 47.7572L23.7569 47.0837C23.7724 46.9936 23.7658 46.9012 23.7376 46.8142C23.7095 46.7273 23.6607 46.6484 23.5954 46.5845L23.1055 46.1075C23.0304 46.034 22.9773 45.9409 22.9523 45.8389C22.9272 45.7368 22.9312 45.6298 22.9637 45.5298C22.9962 45.4299 23.0561 45.3411 23.1364 45.2733C23.2168 45.2056 23.3145 45.1617 23.4185 45.1465L24.0988 45.0479C24.1893 45.0349 24.2753 45.0001 24.3494 44.9464C24.4235 44.8928 24.4834 44.822 24.524 44.74L24.8259 44.1269C24.873 44.0341 24.945 43.9562 25.0337 43.9018C25.1224 43.8474 25.2244 43.8186 25.3285 43.8186C25.4325 43.8186 25.5346 43.8474 25.6233 43.9018C25.712 43.9562 25.7839 44.0341 25.831 44.1269Z" fill="white"/>
<path d="M31.7719 44.127L32.0746 44.7401C32.1152 44.8221 32.1751 44.8929 32.2492 44.9466C32.3233 45.0002 32.4093 45.035 32.4998 45.048L33.1759 45.1466C33.2799 45.1618 33.3775 45.2057 33.4579 45.2734C33.5383 45.3412 33.5981 45.43 33.6306 45.5299C33.6632 45.6299 33.6671 45.7369 33.6421 45.839C33.617 45.941 33.5639 46.0341 33.4888 46.1076L32.999 46.5846C32.9337 46.6485 32.8848 46.7274 32.8567 46.8143C32.8286 46.9013 32.8219 46.9937 32.8374 47.0838L32.9522 47.7573C32.9704 47.861 32.9592 47.9678 32.9198 48.0655C32.8803 48.1631 32.8143 48.2477 32.7292 48.3098C32.6441 48.3718 32.5433 48.4086 32.4382 48.4162C32.3332 48.4238 32.2281 48.4017 32.135 48.3526L31.5295 48.0345C31.4485 47.9922 31.3585 47.9701 31.2672 47.9701C31.1758 47.9701 31.0858 47.9922 31.0048 48.0345L30.4002 48.3526C30.307 48.4016 30.2019 48.4236 30.0969 48.416C29.9919 48.4084 29.8911 48.3715 29.8059 48.3095C29.7208 48.2476 29.6547 48.163 29.6151 48.0654C29.5756 47.9678 29.5641 47.8611 29.5821 47.7573L29.6978 47.0838C29.7133 46.9937 29.7066 46.9011 29.6783 46.8141C29.65 46.7271 29.6009 46.6484 29.5353 46.5846L29.0464 46.1076C28.9713 46.0341 28.9182 45.9412 28.8931 45.8392C28.868 45.7372 28.8718 45.6302 28.9043 45.5303C28.9367 45.4304 28.9965 45.3415 29.0767 45.2737C29.157 45.2059 29.2545 45.1619 29.3585 45.1466L30.0388 45.048C30.1293 45.035 30.2153 45.0002 30.2894 44.9466C30.3635 44.8929 30.4234 44.8221 30.464 44.7401L30.7659 44.127C30.8129 44.034 30.8849 43.9559 30.9737 43.9013C31.0625 43.8468 31.1646 43.8179 31.2689 43.8179C31.3731 43.8179 31.4753 43.8468 31.5641 43.9013C31.6529 43.9559 31.7248 44.034 31.7719 44.127Z" fill="white"/>
<path d="M37.7093 44.127L38.0121 44.7401C38.0526 44.8222 38.1124 44.8931 38.1865 44.9467C38.2606 45.0004 38.3467 45.0351 38.4373 45.048L39.1133 45.1466C39.2173 45.1618 39.315 45.2057 39.3954 45.2734C39.4757 45.3412 39.5356 45.43 39.5681 45.5299C39.6007 45.6299 39.6046 45.7369 39.5796 45.839C39.5545 45.941 39.5014 46.0341 39.4263 46.1076L38.9365 46.5846C38.8711 46.6485 38.8223 46.7274 38.7942 46.8143C38.766 46.9013 38.7594 46.9937 38.7749 47.0838L38.8897 47.7573C38.9079 47.861 38.8967 47.9678 38.8572 48.0655C38.8178 48.1631 38.7518 48.2477 38.6667 48.3098C38.5815 48.3718 38.4807 48.4086 38.3757 48.4162C38.2707 48.4238 38.1656 48.4017 38.0725 48.3526L37.467 48.0345C37.386 47.9922 37.296 47.9701 37.2046 47.9701C37.1133 47.9701 37.0233 47.9922 36.9423 48.0345L36.3377 48.3526C36.2445 48.4016 36.1394 48.4236 36.0344 48.416C35.9293 48.4084 35.8285 48.3715 35.7434 48.3095C35.6582 48.2476 35.5921 48.163 35.5526 48.0654C35.513 47.9678 35.5016 47.8611 35.5196 47.7573L35.6352 47.0838C35.6507 46.9937 35.6441 46.9011 35.6158 46.8141C35.5875 46.7271 35.5384 46.6484 35.4728 46.5846L34.9838 46.1076C34.9087 46.0341 34.8556 45.9412 34.8305 45.8392C34.8054 45.7372 34.8093 45.6302 34.8418 45.5303C34.8742 45.4304 34.9339 45.3415 35.0142 45.2737C35.0944 45.2059 35.192 45.1619 35.2959 45.1466L35.9762 45.048C36.0667 45.0349 36.1527 45 36.2267 44.9464C36.3008 44.8928 36.3607 44.822 36.4014 44.7401L36.7033 44.127C36.7504 44.034 36.8223 43.9559 36.9111 43.9013C36.9999 43.8468 37.1021 43.8179 37.2063 43.8179C37.3106 43.8179 37.4127 43.8468 37.5015 43.9013C37.5903 43.9559 37.6623 44.034 37.7093 44.127Z" fill="white"/>
<path d="M43.6468 44.1268L43.9495 44.74C43.99 44.822 44.0499 44.8929 44.124 44.9466C44.1981 45.0002 44.2842 45.035 44.3747 45.0478L45.0508 45.1465C45.1548 45.1616 45.2525 45.2055 45.3328 45.2733C45.4132 45.341 45.473 45.4299 45.5056 45.5298C45.5381 45.6297 45.5421 45.7368 45.517 45.8388C45.492 45.9409 45.4389 46.0339 45.3637 46.1074L44.8739 46.5845C44.8086 46.6484 44.7598 46.7272 44.7316 46.8142C44.7035 46.9011 44.6969 46.9936 44.7123 47.0837L44.8271 47.7572C44.8451 47.8609 44.8337 47.9677 44.7942 48.0653C44.7546 48.1629 44.6885 48.2474 44.6033 48.3094C44.5182 48.3714 44.4174 48.4082 44.3124 48.4158C44.2073 48.4234 44.1023 48.4015 44.0091 48.3524L43.4044 48.0344C43.3235 47.9921 43.2334 47.97 43.1421 47.97C43.0507 47.97 42.9607 47.9921 42.8797 48.0344L42.2751 48.3524C42.1819 48.4015 42.0768 48.4234 41.9718 48.4158C41.8668 48.4082 41.766 48.3714 41.6808 48.3094C41.5957 48.2474 41.5296 48.1629 41.49 48.0653C41.4505 47.9677 41.439 47.8609 41.457 47.7572L41.5727 47.0837C41.5882 46.9935 41.5815 46.901 41.5532 46.814C41.5249 46.727 41.4758 46.6482 41.4103 46.5845L40.9213 46.1074C40.8459 46.0341 40.7925 45.9411 40.7672 45.839C40.7419 45.737 40.7457 45.6298 40.7782 45.5298C40.8107 45.4297 40.8705 45.3408 40.951 45.2731C41.0314 45.2053 41.1293 45.1615 41.2334 45.1465L41.9094 45.0478C41.9999 45.0347 42.0859 44.9998 42.1599 44.9462C42.234 44.8926 42.2939 44.8218 42.3346 44.74L42.6365 44.1268C42.6832 44.0327 42.7552 43.9535 42.8444 43.8982C42.9337 43.8428 43.0366 43.8135 43.1417 43.8135C43.2467 43.8135 43.3496 43.8428 43.4389 43.8982C43.5281 43.9535 43.6001 44.0327 43.6468 44.1268Z" fill="white"/>
<defs>
<linearGradient id="paint0_linear_322_2468" x1="0" y1="0" x2="72.329" y2="32.8727" gradientUnits="userSpaceOnUse">
<stop stop-color="#7433FF"/>
<stop offset="1" stop-color="#FFA3FD"/>
</linearGradient>
</defs>
</svg>
