<svg width="60" height="60" viewBox="0 0 60 60" fill="none" xmlns="http://www.w3.org/2000/svg">
<circle cx="30" cy="30" r="30" fill="url(#paint0_linear_322_2627)"/>
<path d="M44.6724 42.3735L42.3907 40.0919L43.6408 38.8409C43.6939 38.7882 43.7326 38.7228 43.7532 38.6509C43.7738 38.5791 43.7757 38.5031 43.7586 38.4303C43.7416 38.3575 43.7062 38.2903 43.6558 38.235C43.6054 38.1798 43.5417 38.1383 43.4707 38.1147L36.3444 35.7761C36.2935 35.7593 36.2389 35.7569 36.1866 35.7693C36.1344 35.7817 36.0867 35.8083 36.0487 35.8462C36.0107 35.8841 35.984 35.9318 35.9715 35.984C35.959 36.0361 35.9612 36.0908 35.9779 36.1418L38.3165 43.2689C38.3402 43.3399 38.3816 43.4036 38.4368 43.454C38.4921 43.5044 38.5593 43.5398 38.6321 43.5568C38.7049 43.5739 38.7809 43.572 38.8528 43.5514C38.9247 43.5308 38.9901 43.4921 39.0427 43.439L40.4986 41.984L42.7802 44.2656C42.9046 44.3901 43.0522 44.489 43.2148 44.5564C43.3773 44.6238 43.5516 44.6585 43.7276 44.6585C43.9035 44.6585 44.0778 44.6238 44.2404 44.5564C44.4029 44.489 44.5506 44.3901 44.6749 44.2656C44.9253 44.0143 45.0657 43.6738 45.0653 43.319C45.0648 42.9642 44.9235 42.6241 44.6724 42.3735Z" fill="white"/>
<path d="M42.6076 14.4126H16.6017C15.9782 14.4128 15.3743 14.6299 14.8933 15.0266C14.4123 15.4233 14.0843 15.975 13.9655 16.587L13.8677 16.6721L13.9638 16.5921C13.9485 16.6772 13.9366 16.7563 13.9281 16.8405C13.9281 16.849 13.9281 16.8566 13.9281 16.8651C13.9281 16.8991 13.9221 16.9331 13.9204 16.9672C13.9187 17.0012 13.9204 17.0522 13.9204 17.099V30.0028C13.9204 30.0471 13.9204 30.0879 13.9204 30.1347C13.9204 30.1814 13.9255 30.2027 13.9281 30.2367C13.9281 30.2444 13.9281 30.2529 13.9281 30.2614C13.9366 30.3447 13.9485 30.4272 13.9638 30.5088L13.8677 30.4297L13.9655 30.5148C14.0845 31.1267 14.4126 31.6782 14.8935 32.0747C15.3745 32.4713 15.9784 32.6882 16.6017 32.6884H42.6076C43.3201 32.6884 44.0034 32.4054 44.5072 31.9016C45.011 31.3978 45.294 30.7145 45.294 30.002V17.1024C45.2945 16.7493 45.2253 16.3996 45.0905 16.0733C44.9557 15.747 44.7579 15.4504 44.5084 15.2006C44.2589 14.9508 43.9626 14.7526 43.6364 14.6174C43.3103 14.4822 42.9607 14.4126 42.6076 14.4126ZM22.142 24.3775V24.835C21.9356 24.8953 21.7543 25.0209 21.6252 25.1929C21.4961 25.3649 21.4262 25.5741 21.426 25.7891C21.4262 26.0043 21.496 26.2137 21.6251 26.3858C21.7542 26.558 21.9355 26.6837 22.142 26.7441V27.3726H21.9532C21.6981 27.3697 21.4512 27.4632 21.262 27.6344C21.0729 27.8056 20.9553 28.0419 20.9328 28.2961C20.9181 28.503 20.9685 28.7094 21.0767 28.8864C21.1849 29.0634 21.3457 29.2022 21.5366 29.2834C21.3919 29.3444 21.2349 29.3707 21.0782 29.3599C20.8237 29.3377 20.587 29.2203 20.4153 29.0311C20.2436 28.8419 20.1496 28.5949 20.1521 28.3395V24.3784C19.4793 24.1433 18.9113 23.6777 18.549 23.064C18.1866 22.4502 18.0532 21.728 18.1724 21.0253C18.2916 20.3227 18.6557 19.6848 19.2002 19.2249C19.7446 18.765 20.4344 18.5127 21.1471 18.5127C21.8598 18.5127 22.5495 18.765 23.094 19.2249C23.6385 19.6848 24.0026 20.3227 24.1218 21.0253C24.241 21.728 24.1076 22.4502 23.7452 23.064C23.3828 23.6777 22.8149 24.1433 22.142 24.3784V24.3775ZM30.7863 24.5323C30.5781 24.5679 30.364 24.5363 30.175 24.4421C29.986 24.3479 29.8318 24.196 29.7348 24.0084C29.6379 23.8208 29.6031 23.6072 29.6356 23.3985C29.6681 23.1898 29.7661 22.9969 29.9155 22.8476C30.0649 22.6984 30.258 22.6005 30.4667 22.5682C30.6754 22.536 30.889 22.571 31.0765 22.6681C31.264 22.7653 31.4157 22.9196 31.5097 23.1087C31.6037 23.2979 31.6351 23.512 31.5993 23.7202C31.5643 23.9229 31.4673 24.1099 31.3217 24.2553C31.1762 24.4007 30.9891 24.4975 30.7863 24.5323ZM34.5892 24.5323C34.3811 24.5679 34.167 24.5363 33.9779 24.4421C33.7889 24.3479 33.6348 24.196 33.5378 24.0084C33.4408 23.8208 33.406 23.6072 33.4385 23.3985C33.471 23.1898 33.5691 22.9969 33.7185 22.8476C33.8679 22.6984 34.0609 22.6005 34.2696 22.5682C34.4784 22.536 34.6919 22.571 34.8794 22.6681C35.0669 22.7653 35.2187 22.9196 35.3127 23.1087C35.4067 23.2979 35.438 23.512 35.4022 23.7202C35.3673 23.923 35.2704 24.11 35.1248 24.2554C34.9792 24.4009 34.7921 24.4976 34.5892 24.5323ZM38.3931 24.5323C38.1849 24.568 37.9707 24.5366 37.7816 24.4426C37.5925 24.3485 37.4382 24.1967 37.341 24.0092C37.2439 23.8216 37.209 23.608 37.2414 23.3992C37.2737 23.1905 37.3717 22.9975 37.521 22.8481C37.6704 22.6988 37.8634 22.6008 38.0722 22.5685C38.2809 22.5361 38.4945 22.571 38.6821 22.6681C38.8696 22.7652 39.0214 22.9195 39.1155 23.1087C39.2095 23.2978 39.2409 23.512 39.2052 23.7202C39.1702 23.9228 39.0734 24.1097 38.928 24.2551C38.7826 24.4005 38.5957 24.4973 38.3931 24.5323Z" fill="white"/>
<path d="M21.3155 19.5532C21.1071 19.5174 20.8928 19.5489 20.7035 19.643C20.5143 19.7372 20.3598 19.8891 20.2627 20.0768C20.1655 20.2645 20.1306 20.4783 20.1629 20.6872C20.1953 20.8961 20.2934 21.0893 20.4429 21.2388C20.5923 21.3883 20.7855 21.4863 20.9944 21.5187C21.2033 21.5511 21.4171 21.5162 21.6048 21.419C21.7925 21.3218 21.9445 21.1674 22.0386 20.9781C22.1328 20.7888 22.1642 20.5745 22.1285 20.3661C22.0935 20.1633 21.9966 19.9762 21.851 19.8306C21.7054 19.685 21.5184 19.5881 21.3155 19.5532Z" fill="white"/>
<path d="M30.0048 34.8901H16.259C14.9745 34.8901 13.9332 35.9315 13.9332 37.216V37.2449C13.9332 38.5294 14.9745 39.5707 16.259 39.5707H30.0048C31.2893 39.5707 32.3306 38.5294 32.3306 37.2449V37.216C32.3306 35.9315 31.2893 34.8901 30.0048 34.8901Z" fill="white"/>
<path d="M26.9111 41.7161H16.0396C14.8763 41.7161 13.9332 42.6591 13.9332 43.8225V44.2902C13.9332 45.4536 14.8763 46.3966 16.0396 46.3966H26.9111C28.0744 46.3966 29.0175 45.4536 29.0175 44.2902V43.8225C29.0175 42.6591 28.0744 41.7161 26.9111 41.7161Z" fill="white"/>
<defs>
<linearGradient id="paint0_linear_322_2627" x1="0" y1="0" x2="72.329" y2="32.8727" gradientUnits="userSpaceOnUse">
<stop stop-color="#7433FF"/>
<stop offset="1" stop-color="#FFA3FD"/>
</linearGradient>
</defs>
</svg>
