<svg width="60" height="60" viewBox="0 0 60 60" fill="none" xmlns="http://www.w3.org/2000/svg">
<circle cx="30" cy="30" r="30" fill="url(#paint0_linear_322_2645)"/>
<path d="M36.0149 21.926H23.1314C22.5111 21.9263 21.9163 22.1728 21.4778 22.6115C21.0392 23.0502 20.7929 23.6452 20.7929 24.2655V37.1481C20.7929 37.7683 21.0392 38.3631 21.4778 38.8017C21.9164 39.2403 22.5112 39.4867 23.1314 39.4867H36.0149C36.6351 39.4867 37.23 39.2403 37.6685 38.8017C38.1071 38.3631 38.3535 37.7683 38.3535 37.1481V24.2655C38.3535 23.6452 38.1071 23.0502 37.6686 22.6115C37.23 22.1728 36.6352 21.9263 36.0149 21.926ZM32.5793 30.7285L31.848 31.4598L30.0919 33.215C30.0238 33.2832 29.943 33.3373 29.854 33.3742C29.765 33.4111 29.6695 33.4301 29.5732 33.4301C29.4768 33.4301 29.3814 33.4111 29.2924 33.3742C29.2034 33.3373 29.1225 33.2832 29.0544 33.215L26.567 30.7285C26.2657 30.4266 26.0964 30.0176 26.0964 29.591C26.0964 29.1645 26.2657 28.7555 26.567 28.4536C26.7164 28.3042 26.8937 28.1857 27.0888 28.1048C27.284 28.024 27.4932 27.9823 27.7044 27.9823C27.9157 27.9823 28.1249 28.024 28.32 28.1048C28.5152 28.1857 28.6925 28.3042 28.8418 28.4536L29.5732 29.185L30.3045 28.4536C30.4539 28.3042 30.6312 28.1857 30.8263 28.1048C31.0215 28.024 31.2307 27.9823 31.4419 27.9823C31.6532 27.9823 31.8623 28.024 32.0575 28.1048C32.2527 28.1857 32.43 28.3042 32.5793 28.4536C32.8807 28.7555 33.0499 29.1645 33.0499 29.591C33.0499 30.0176 32.8807 30.4266 32.5793 30.7285Z" fill="white"/>
<path d="M28.2364 23.5622L28.5068 22.1165C29.0587 19.1801 30.2492 16.8253 31.9492 15.3057C33.4127 13.9969 35.247 13.3404 36.9818 13.5012C39.2736 13.7146 40.8741 15.2725 40.8741 17.2888C40.8741 19.4318 38.896 21.1156 34.9953 22.2959C33.2609 22.8043 31.4883 23.1717 29.6948 23.3946L28.2364 23.5622ZM36.4563 15.6535C35.4128 15.6535 34.3141 16.1076 33.3948 16.9291C32.3429 17.8696 31.5299 19.2626 31.0052 21.011C32.1484 20.8132 33.2791 20.5488 34.3915 20.2193C37.1323 19.3867 38.7039 18.3212 38.7039 17.2965C38.7039 16.5753 38.1086 15.793 36.7803 15.6688C36.6731 15.6586 36.5651 15.6535 36.4563 15.6535Z" fill="white"/>
<path d="M30.91 23.5621L29.4516 23.398C27.6581 23.1751 25.8855 22.8076 24.1511 22.2993C20.2503 21.1198 18.2723 19.4352 18.2723 17.2922C18.2723 15.2759 19.8727 13.7205 22.1646 13.5045C23.8994 13.3429 25.7362 14.0011 27.1972 15.3091C28.898 16.8287 30.0885 19.1835 30.6396 22.1199L30.91 23.5621ZM22.6901 15.6535C22.5813 15.6535 22.4733 15.6586 22.3661 15.6679C21.0369 15.7921 20.4425 16.5744 20.4425 17.2956C20.4425 18.3246 22.0225 19.3926 24.7795 20.226C25.8841 20.552 27.0065 20.8141 28.1411 21.0109C27.6164 19.2642 26.8035 17.8704 25.7515 16.9291C24.8322 16.1084 23.7327 15.6535 22.6901 15.6535Z" fill="white"/>
<path d="M41.596 47.2533C41.4074 47.2539 41.2219 47.2053 41.0578 47.1122C40.8938 47.0191 40.7568 46.8849 40.6606 46.7226L38.5023 43.0846C38.4259 42.9621 38.3747 42.8255 38.3519 42.6829C38.329 42.5403 38.3348 42.3945 38.369 42.2542C38.4032 42.1139 38.4651 41.9818 38.551 41.8658C38.637 41.7497 38.7453 41.652 38.8695 41.5783C38.9937 41.5047 39.1314 41.4566 39.2745 41.4369C39.4176 41.4172 39.5632 41.4263 39.7027 41.4636C39.8422 41.5009 39.9729 41.5658 40.087 41.6543C40.2011 41.7428 40.2964 41.8533 40.3672 41.9791L42.5281 45.6171C42.6257 45.7817 42.6781 45.9692 42.6799 46.1606C42.6817 46.352 42.6328 46.5404 42.5382 46.7068C42.4437 46.8732 42.3068 47.0116 42.1415 47.108C41.9762 47.2045 41.7883 47.2555 41.5969 47.2558L41.596 47.2533Z" fill="white"/>
<path d="M45.9577 42.6868C45.7798 42.6866 45.6046 42.6428 45.4475 42.5592L41.7142 40.5701C41.4644 40.4326 41.2787 40.2022 41.1974 39.9288C41.1161 39.6554 41.1457 39.361 41.2798 39.1092C41.414 38.8575 41.6418 38.6687 41.9141 38.5837C42.1864 38.4987 42.4812 38.5244 42.7347 38.6551L46.4688 40.645C46.6815 40.7592 46.8499 40.9412 46.9476 41.162C47.0452 41.3827 47.0664 41.6298 47.0079 41.864C46.9493 42.0982 46.8144 42.3062 46.6243 42.4551C46.4342 42.6039 46.2 42.6852 45.9586 42.6859L45.9577 42.6868Z" fill="white"/>
<path d="M42.6123 36.2382C42.3505 36.2404 42.0968 36.1479 41.8979 35.9778C41.699 35.8077 41.5683 35.5714 41.5299 35.3125C41.4915 35.0536 41.5479 34.7895 41.6889 34.5689C41.8298 34.3484 42.0457 34.1862 42.2968 34.1123L46.3438 32.8792C46.4801 32.8376 46.6231 32.8233 46.7649 32.8371C46.9067 32.8509 47.0444 32.8924 47.1701 32.9594C47.2958 33.0263 47.4071 33.1174 47.4976 33.2274C47.5881 33.3374 47.6561 33.4641 47.6976 33.6003C47.7392 33.7366 47.7535 33.8797 47.7397 34.0214C47.726 34.1632 47.6844 34.3009 47.6175 34.4266C47.5505 34.5523 47.4594 34.6636 47.3495 34.7541C47.2395 34.8446 47.1127 34.9126 46.9765 34.9541L42.9295 36.1881C42.8267 36.2201 42.7199 36.237 42.6123 36.2382Z" fill="white"/>
<path d="M16.5341 36.2383C16.4266 36.2381 16.3198 36.2223 16.2169 36.1915L12.1699 34.9576C12.0336 34.916 11.9069 34.848 11.7969 34.7575C11.6869 34.667 11.5959 34.5557 11.5289 34.43C11.4619 34.3043 11.4204 34.1666 11.4066 34.0249C11.3929 33.8831 11.4072 33.74 11.4487 33.6038C11.4903 33.4675 11.5582 33.3408 11.6488 33.2308C11.7393 33.1208 11.8506 33.0298 11.9763 32.9628C12.102 32.8958 12.2397 32.8543 12.3815 32.8405C12.5232 32.8268 12.6663 32.8411 12.8026 32.8826L16.8496 34.1157C17.1007 34.1896 17.3166 34.3518 17.4575 34.5724C17.5984 34.7929 17.6549 35.057 17.6164 35.3159C17.578 35.5748 17.4473 35.8111 17.2484 35.9812C17.0495 36.1513 16.7958 36.2438 16.5341 36.2417V36.2383Z" fill="white"/>
<path d="M17.5503 47.2534C17.3586 47.2538 17.1701 47.2034 17.0042 47.1073C16.8383 47.0111 16.7008 46.8728 16.6058 46.7062C16.5107 46.5397 16.4615 46.351 16.4631 46.1592C16.4647 45.9675 16.5171 45.7796 16.6149 45.6147L18.7757 41.9767C18.9256 41.7363 19.1637 41.564 19.439 41.4969C19.7143 41.4298 20.005 41.4731 20.2487 41.6176C20.4925 41.7621 20.67 41.9963 20.7432 42.27C20.8165 42.5438 20.7797 42.8353 20.6406 43.0822L18.4798 46.7202C18.3844 46.8821 18.2485 47.0163 18.0856 47.1098C17.9226 47.2032 17.7382 47.2528 17.5503 47.2534Z" fill="white"/>
<path d="M13.1886 42.6866C12.9472 42.6859 12.713 42.6047 12.5229 42.4558C12.3329 42.3069 12.1979 42.0989 12.1393 41.8647C12.0808 41.6305 12.102 41.3835 12.1996 41.1627C12.2973 40.9419 12.4658 40.76 12.6784 40.6457L16.4125 38.6558C16.666 38.5251 16.9608 38.4995 17.2331 38.5845C17.5054 38.6695 17.7332 38.8582 17.8674 39.11C18.0015 39.3617 18.0311 39.6561 17.9498 39.9295C17.8685 40.2029 17.6828 40.4333 17.433 40.5709L13.6989 42.5608C13.5416 42.6437 13.3664 42.687 13.1886 42.6866Z" fill="white"/>
<defs>
<linearGradient id="paint0_linear_322_2645" x1="0" y1="0" x2="72.329" y2="32.8727" gradientUnits="userSpaceOnUse">
<stop stop-color="#7433FF"/>
<stop offset="1" stop-color="#FFA3FD"/>
</linearGradient>
</defs>
</svg>
