<svg width="60" height="60" viewBox="0 0 60 60" fill="none" xmlns="http://www.w3.org/2000/svg">
<circle cx="30" cy="30" r="30" fill="url(#paint0_linear_322_2487)"/>
<path d="M45.5278 35.9768L44.7965 36.7082L43.0404 38.4634C42.9027 38.6009 42.716 38.6782 42.5213 38.6782C42.3266 38.6782 42.1399 38.6009 42.0021 38.4634L39.5156 35.9768C39.3661 35.8275 39.2476 35.6502 39.1667 35.455C39.0859 35.2599 39.0443 35.0507 39.0443 34.8394C39.0443 34.6282 39.0859 34.419 39.1667 34.2238C39.2476 34.0287 39.3661 33.8514 39.5156 33.702C39.6649 33.5526 39.8422 33.4341 40.0374 33.3532C40.2325 33.2723 40.4417 33.2307 40.653 33.2307C40.8642 33.2307 41.0734 33.2723 41.2686 33.3532C41.4637 33.4341 41.641 33.5526 41.7904 33.702L42.5217 34.4334L43.253 33.702C43.4024 33.5526 43.5797 33.4341 43.7748 33.3532C43.97 33.2723 44.1792 33.2307 44.3904 33.2307C44.6017 33.2307 44.8109 33.2723 45.006 33.3532C45.2012 33.4341 45.3785 33.5526 45.5278 33.702C45.8292 34.0038 45.9984 34.4129 45.9984 34.8394C45.9984 35.2659 45.8292 35.675 45.5278 35.9768Z" fill="white"/>
<path d="M15.8959 46.2112L15.1033 45.1057L14.457 46.2112H13.1508L14.4366 44.1889L13.1024 42.3342H14.4366L15.2215 43.4253L15.8678 42.3342H17.174L15.861 44.3071L17.2293 46.2112H15.8959Z" fill="white"/>
<path d="M19.4616 40.5144V38.8477H22.438V46.2112H20.5671V40.5136L19.4616 40.5144Z" fill="white"/>
<path d="M23.4899 42.4515C23.4899 41.3058 23.7223 40.3987 24.1872 39.7303C24.6521 39.0619 25.3951 38.7268 26.4161 38.7251C27.4298 38.7251 28.171 39.0602 28.6399 39.7303C29.1087 40.4004 29.3432 41.3075 29.3432 42.4515C29.3432 43.6035 29.1087 44.5166 28.6399 45.1906C28.171 45.8647 27.4298 46.2015 26.4161 46.2009C25.3956 46.2009 24.6527 45.8642 24.1872 45.1906C23.7218 44.5171 23.4893 43.6041 23.4899 42.4515ZM27.5718 42.4515C27.5718 41.7916 27.4936 41.2865 27.3371 40.9361C27.1806 40.5858 26.8733 40.4103 26.4153 40.4097C25.9504 40.4097 25.6386 40.5869 25.4798 40.9412C25.3211 41.2956 25.2411 41.799 25.24 42.4515C25.24 43.1114 25.3199 43.62 25.4798 43.9771C25.6397 44.3343 25.9515 44.5132 26.4153 44.5137C26.8739 44.5137 27.1812 44.3349 27.3371 43.9771C27.493 43.6194 27.5712 43.1109 27.5718 42.4515Z" fill="white"/>
<path d="M30.1995 42.4515C30.1995 41.3058 30.4319 40.3987 30.8968 39.7303C31.3617 39.0619 32.1047 38.7268 33.1257 38.7251C34.1394 38.7251 34.8806 39.0602 35.3495 39.7303C35.8183 40.4004 36.0527 41.3075 36.0527 42.4515C36.0527 43.6035 35.8183 44.5166 35.3495 45.1906C34.8806 45.8647 34.1394 46.2015 33.1257 46.2009C32.1052 46.2009 31.3623 45.8642 30.8968 45.1906C30.4314 44.5171 30.1989 43.6041 30.1995 42.4515ZM34.2814 42.4515C34.2814 41.7916 34.2031 41.2865 34.0467 40.9361C33.8902 40.5858 33.5829 40.4103 33.1248 40.4097C32.6594 40.4097 32.3476 40.5869 32.1894 40.9412C32.0312 41.2956 31.9513 41.799 31.9496 42.4515C31.9496 43.1114 32.0295 43.62 32.1894 43.9771C32.3493 44.3343 32.6611 44.5132 33.1248 44.5137C33.5829 44.5137 33.8902 44.3349 34.0467 43.9771C34.2031 43.6194 34.2817 43.1109 34.2822 42.4515H34.2814Z" fill="white"/>
<path d="M44.2752 16.4304C43.0917 15.2474 41.4867 14.5828 39.8132 14.5828C38.1398 14.5828 36.5348 15.2474 35.3512 16.4304L32.482 19.3005L29.6128 16.4304C28.4293 15.2474 26.8245 14.5828 25.1512 14.5828C23.4778 14.5828 21.873 15.2474 20.6896 16.4304C20.1036 17.0164 19.6387 17.712 19.3216 18.4776C19.0044 19.2432 18.8412 20.0638 18.8412 20.8924C18.8412 21.7211 19.0044 22.5417 19.3216 23.3073C19.6387 24.0729 20.1036 24.7685 20.6896 25.3545L30.4453 35.111C30.9856 35.651 31.7181 35.9543 32.482 35.9543C33.2458 35.9543 33.9784 35.651 34.5187 35.111L41.4069 28.2228L44.2769 25.3536C45.4595 24.1698 46.1236 22.5649 46.1233 20.8917C46.123 19.2184 45.4583 17.6137 44.2752 16.4304ZM40.9732 21.2726L32.6674 29.8615L27.3209 25.6853C27.0943 25.5082 26.9472 25.2484 26.9121 24.9629C26.8771 24.6774 26.9568 24.3897 27.1339 24.1631C27.3109 23.9364 27.5707 23.7893 27.8562 23.7543C28.1417 23.7192 28.4294 23.7989 28.6561 23.976L32.4641 26.9524L39.4135 19.7674C39.5125 19.665 39.6307 19.5831 39.7614 19.5263C39.8921 19.4696 40.0326 19.4392 40.175 19.4368C40.3174 19.4344 40.4589 19.46 40.5914 19.5123C40.7239 19.5646 40.8448 19.6424 40.9472 19.7414C41.0496 19.8404 41.1315 19.9586 41.1883 20.0893C41.245 20.2199 41.2754 20.3605 41.2778 20.5029C41.2802 20.6453 41.2546 20.7868 41.2023 20.9193C41.15 21.0518 41.0722 21.1727 40.9732 21.2751V21.2726Z" fill="white"/>
<path d="M21.8214 33.5608L19.539 31.2792L20.7899 30.0291C20.8429 29.9763 20.8816 29.9108 20.9022 29.8389C20.9228 29.767 20.9247 29.691 20.9076 29.6181C20.8906 29.5453 20.8552 29.478 20.8048 29.4226C20.7545 29.3673 20.6908 29.3258 20.6198 29.302L13.4901 26.9643C13.4392 26.9473 13.3846 26.9449 13.3323 26.9572C13.2801 26.9695 13.2323 26.9962 13.1943 27.0341C13.1564 27.0721 13.1297 27.1199 13.1174 27.1721C13.1051 27.2244 13.1075 27.279 13.1245 27.3299L15.4622 34.4563C15.486 34.5272 15.5275 34.5909 15.5828 34.6413C15.6382 34.6916 15.7054 34.727 15.7783 34.7441C15.8512 34.7611 15.9272 34.7592 15.9991 34.7386C16.071 34.718 16.1365 34.6794 16.1893 34.6263L17.6443 33.1705L19.9259 35.4529C20.1774 35.7041 20.5182 35.8452 20.8737 35.8452C21.2291 35.8452 21.57 35.7041 21.8214 35.4529C22.0716 35.2016 22.212 34.8614 22.212 34.5069C22.212 34.1523 22.0716 33.8121 21.8214 33.5608Z" fill="white"/>
<defs>
<linearGradient id="paint0_linear_322_2487" x1="0" y1="0" x2="72.329" y2="32.8727" gradientUnits="userSpaceOnUse">
<stop stop-color="#7433FF"/>
<stop offset="1" stop-color="#FFA3FD"/>
</linearGradient>
</defs>
</svg>
