<svg width="60" height="60" viewBox="0 0 60 60" fill="none" xmlns="http://www.w3.org/2000/svg">
<circle cx="30" cy="30" r="30" fill="url(#paint0_linear_322_2507)"/>
<path d="M40.4782 28.4619V17.5377C40.4782 16.9344 40.2386 16.3558 39.812 15.9292C39.3853 15.5026 38.8067 15.2629 38.2034 15.2629H16.1867C15.5834 15.2629 15.0048 15.5026 14.5782 15.9292C14.1516 16.3558 13.9119 16.9344 13.9119 17.5377V28.4619C13.9123 28.6046 13.9259 28.7469 13.9527 28.8871L13.8677 28.8199V31.3711C13.8676 31.4963 13.9046 31.6187 13.974 31.7228C14.0435 31.827 14.1423 31.9082 14.2579 31.9562C14.3735 32.0041 14.5008 32.0167 14.6236 31.9924C14.7464 31.968 14.8592 31.9077 14.9477 31.8192L16.0405 30.7256C16.0881 30.7256 16.1349 30.7307 16.1833 30.7307H38.2C38.8029 30.7316 39.3815 30.4932 39.8086 30.0678C40.2358 29.6424 40.4766 29.0648 40.4782 28.4619ZM20.2184 25.3937C20.0216 25.3937 19.8292 25.3353 19.6656 25.2259C19.5019 25.1166 19.3744 24.9611 19.2991 24.7793C19.2239 24.5974 19.2042 24.3973 19.2427 24.2043C19.2811 24.0112 19.376 23.834 19.5152 23.6948C19.6544 23.5557 19.8318 23.461 20.0249 23.4227C20.2179 23.3845 20.418 23.4043 20.5998 23.4797C20.7816 23.5552 20.9369 23.6828 21.0461 23.8466C21.1554 24.0103 21.2136 24.2027 21.2134 24.3996C21.2134 24.5302 21.1877 24.6595 21.1377 24.7802C21.0876 24.9008 21.0143 25.0105 20.9219 25.1028C20.8295 25.1951 20.7198 25.2683 20.5991 25.3182C20.4784 25.3681 20.3491 25.3938 20.2184 25.3937ZM24.0214 25.3937C23.8246 25.3937 23.6322 25.3353 23.4685 25.2259C23.3049 25.1166 23.1774 24.9611 23.1021 24.7793C23.0268 24.5974 23.0072 24.3973 23.0456 24.2043C23.0841 24.0112 23.1789 23.834 23.3182 23.6948C23.4574 23.5557 23.6348 23.461 23.8278 23.4227C24.0209 23.3845 24.221 23.4043 24.4028 23.4797C24.5845 23.5552 24.7399 23.6828 24.8491 23.8466C24.9583 24.0103 25.0165 24.2027 25.0164 24.3996C25.0164 24.5302 24.9906 24.6596 24.9405 24.7804C24.8905 24.9011 24.8171 25.0108 24.7246 25.1031C24.6321 25.1954 24.5223 25.2686 24.4015 25.3185C24.2807 25.3683 24.1512 25.3939 24.0206 25.3937H24.0214ZM27.8252 25.3937C27.6284 25.3937 27.436 25.3353 27.2724 25.2259C27.1087 25.1166 26.9812 24.9611 26.9059 24.7793C26.8306 24.5974 26.811 24.3973 26.8494 24.2043C26.8879 24.0112 26.9827 23.834 27.122 23.6948C27.2612 23.5557 27.4386 23.461 27.6316 23.4227C27.8247 23.3845 28.0248 23.4043 28.2066 23.4797C28.3884 23.5552 28.5437 23.6828 28.6529 23.8466C28.7621 24.0103 28.8203 24.2027 28.8202 24.3996C28.8202 24.5302 28.7944 24.6596 28.7443 24.7804C28.6943 24.9011 28.6209 25.0108 28.5284 25.1031C28.4359 25.1954 28.3261 25.2686 28.2053 25.3185C28.0845 25.3683 27.9551 25.3939 27.8244 25.3937H27.8252ZM33.158 25.3409H33.0917C32.8745 25.3409 32.6662 25.2546 32.5126 25.1011C32.3591 24.9475 32.2728 24.7392 32.2728 24.522C32.2728 24.3048 32.3591 24.0965 32.5126 23.9429C32.6662 23.7894 32.8745 23.7031 33.0917 23.7031H33.158C33.3752 23.7031 33.5835 23.7894 33.7371 23.9429C33.8907 24.0965 33.977 24.3048 33.977 24.522C33.977 24.7392 33.8907 24.9475 33.7371 25.1011C33.5835 25.2546 33.3752 25.3409 33.158 25.3409ZM35.4677 21.7897C35.131 22.0753 34.7162 22.253 34.2772 22.2999C34.1705 22.3138 34.0725 22.3659 34.0015 22.4466C33.9305 22.5274 33.8912 22.6312 33.8911 22.7387C33.8911 22.856 33.8445 22.9685 33.7616 23.0514C33.6786 23.1344 33.5662 23.1809 33.4489 23.1809H33.3995C33.1197 23.1809 32.8512 23.0698 32.6533 22.8718C32.4554 22.6739 32.3442 22.4055 32.3442 22.1256V21.9164C32.3442 21.8321 32.3608 21.7486 32.3931 21.6707C32.4253 21.5928 32.4726 21.522 32.5323 21.4624C32.5919 21.4028 32.6627 21.3555 32.7406 21.3232C32.8185 21.291 32.9019 21.2744 32.9863 21.2744C33.446 21.2744 33.8038 21.2089 34.0595 21.0779C34.3151 20.947 34.443 20.7122 34.443 20.3738C34.4487 20.2809 34.4355 20.1877 34.4042 20.1C34.3729 20.0124 34.3242 19.9319 34.261 19.8636C34.1961 19.8016 34.1193 19.7535 34.0352 19.7222C33.9512 19.691 33.8616 19.6771 33.772 19.6816C33.6725 19.6761 33.5729 19.6916 33.4797 19.727C33.3866 19.7625 33.3019 19.8171 33.2312 19.8874C33.1666 19.9546 33.1163 20.0341 33.0832 20.1212C33.0531 20.205 32.9981 20.2775 32.9256 20.329C32.8531 20.3806 32.7665 20.4086 32.6776 20.4095H31.9726C31.9065 20.4097 31.8411 20.3949 31.7814 20.3665C31.7218 20.338 31.6692 20.2964 31.6278 20.2449C31.5863 20.1934 31.5569 20.1332 31.5418 20.0688C31.5267 20.0045 31.5263 19.9375 31.5406 19.8729C31.5809 19.6943 31.6468 19.5225 31.7362 19.3627C31.9208 19.0382 32.2 18.7778 32.5364 18.616C32.9396 18.423 33.383 18.3292 33.8298 18.3422C34.5068 18.3422 35.0453 18.5162 35.4456 18.8643C35.8458 19.2124 36.0468 19.7125 36.0485 20.3644C36.0531 20.9716 35.8592 21.4475 35.4669 21.7922L35.4677 21.7897Z" fill="white"/>
<path d="M45.22 43.3107C45.2389 43.2118 45.2483 43.1113 45.2481 43.0105V35.3434C45.2481 34.9203 45.08 34.5145 44.7808 34.2153C44.4816 33.9161 44.0758 33.748 43.6527 33.748H28.2036C27.7805 33.748 27.3748 33.9161 27.0756 34.2153C26.7764 34.5145 26.6083 34.9203 26.6083 35.3434V43.008C26.6083 43.4311 26.7764 43.8369 27.0756 44.1361C27.3748 44.4353 27.7805 44.6033 28.2036 44.6033H43.6502C43.6834 44.6033 43.7174 44.6033 43.7497 44.6033L44.515 45.3687C44.5771 45.4307 44.6562 45.4729 44.7423 45.4901C44.8284 45.5072 44.9176 45.4984 44.9987 45.4648C45.0798 45.4312 45.1491 45.3744 45.1979 45.3014C45.2466 45.2285 45.2727 45.1427 45.2727 45.0549V43.2631L45.22 43.3107ZM37.8216 39.5486L37.3913 39.9789L36.0545 41.3157L34.2882 39.5486C34.111 39.3713 34.0115 39.1308 34.0115 38.8802C34.0115 38.6295 34.111 38.3891 34.2882 38.2118C34.4655 38.0346 34.7059 37.9351 34.9566 37.9351C35.2073 37.9351 35.4477 38.0346 35.625 38.2118L36.0545 38.6421L36.4848 38.2118C36.6621 38.0346 36.9025 37.9351 37.1532 37.9351C37.4039 37.9351 37.6443 38.0346 37.8216 38.2118C37.9988 38.3891 38.0983 38.6295 38.0983 38.8802C38.0983 39.1308 37.9988 39.3713 37.8216 39.5486Z" fill="white"/>
<defs>
<linearGradient id="paint0_linear_322_2507" x1="0" y1="0" x2="72.329" y2="32.8727" gradientUnits="userSpaceOnUse">
<stop stop-color="#7433FF"/>
<stop offset="1" stop-color="#FFA3FD"/>
</linearGradient>
</defs>
</svg>
