<svg width="60" height="60" viewBox="0 0 60 60" fill="none" xmlns="http://www.w3.org/2000/svg">
<circle cx="30" cy="30" r="30" fill="url(#paint0_linear_322_2664)"/>
<path d="M36.4293 23.3628C37.7542 24.5091 38.4164 26.1532 38.4158 28.2951C38.4158 30.2924 37.7695 31.8585 36.4769 32.9935C35.4468 33.8978 34.1411 34.4553 32.56 34.6662C32.2087 34.7119 31.886 34.8837 31.6521 35.1497C31.4182 35.4157 31.289 35.7577 31.2886 36.1119C31.2886 36.3032 31.251 36.4926 31.1777 36.6694C31.1045 36.8461 30.9972 37.0067 30.862 37.142C30.7267 37.2773 30.5661 37.3845 30.3894 37.4577C30.2126 37.531 30.0232 37.5686 29.8319 37.5686H29.6848C29.2286 37.5689 28.7768 37.4792 28.3553 37.3049C27.9337 37.1305 27.5506 36.8748 27.2279 36.5524C26.9052 36.23 26.6491 35.8471 26.4743 35.4257C26.2995 35.0044 26.2095 34.5527 26.2092 34.0965V33.4094C26.2095 32.849 26.4322 32.3118 26.8285 31.9156C27.2248 31.5195 27.7621 31.297 28.3225 31.297C29.8362 31.297 31.0137 31.0813 31.855 30.6498C32.6963 30.2184 33.1167 29.446 33.1161 28.3325C33.1161 27.6176 32.9163 27.0603 32.5166 26.6606C32.1169 26.2609 31.5809 26.0625 30.9085 26.0654C30.1517 26.0654 29.5578 26.2921 29.1269 26.7457C28.9149 26.9653 28.7497 27.2257 28.6414 27.511C28.5424 27.7869 28.3612 28.0258 28.1224 28.1956C27.8836 28.3654 27.5984 28.458 27.3054 28.4609H24.9872C24.7691 28.4617 24.5535 28.4133 24.3566 28.3194C24.1597 28.2255 23.9865 28.0885 23.8497 27.9185C23.713 27.7485 23.6163 27.55 23.5667 27.3375C23.5172 27.1251 23.5162 26.9042 23.5637 26.6913C23.6965 26.1006 23.9136 25.5321 24.2083 25.0032C24.7865 23.9623 25.6653 23.1426 26.8445 22.5439C28.0237 21.9452 29.4427 21.6456 31.1015 21.645C33.3284 21.6445 35.1044 22.217 36.4293 23.3628ZM31.5727 41.9864C31.5727 42.7016 31.2886 43.3875 30.7829 43.8932C30.2771 44.3989 29.5913 44.683 28.8761 44.683H28.655C27.9399 44.6828 27.2543 44.3986 26.7487 43.8929C26.2432 43.3872 25.9592 42.7015 25.9592 41.9864C25.9592 41.2714 26.2432 40.5856 26.7487 40.08C27.2543 39.5743 27.9399 39.2901 28.655 39.2898H28.8761C29.2305 39.2898 29.5816 39.3597 29.909 39.4955C30.2364 39.6313 30.5339 39.8303 30.7844 40.0812C31.0348 40.332 31.2334 40.6298 31.3686 40.9574C31.5039 41.2851 31.5732 41.6362 31.5727 41.9907V41.9864Z" fill="white"/>
<path d="M30.9077 18.7179C30.6201 18.7179 30.3443 18.6037 30.141 18.4003C29.9377 18.197 29.8234 17.9212 29.8234 17.6337V13.4021C29.8194 13.2571 29.8444 13.1128 29.8971 12.9776C29.9498 12.8425 30.029 12.7193 30.1302 12.6153C30.2313 12.5113 30.3522 12.4286 30.4858 12.3721C30.6195 12.3157 30.763 12.2866 30.9081 12.2866C31.0531 12.2866 31.1967 12.3157 31.3303 12.3721C31.464 12.4286 31.5849 12.5113 31.686 12.6153C31.7872 12.7193 31.8664 12.8425 31.9191 12.9776C31.9718 13.1128 31.9968 13.2571 31.9928 13.4021V17.6337C31.9928 17.7761 31.9647 17.9172 31.9102 18.0488C31.8556 18.1804 31.7757 18.2999 31.6749 18.4006C31.5741 18.5013 31.4545 18.5812 31.3229 18.6356C31.1912 18.6901 31.0501 18.718 30.9077 18.7179Z" fill="white"/>
<path d="M37.0271 19.4628C36.8964 19.4625 36.7668 19.4389 36.6444 19.393C36.3753 19.2914 36.1575 19.087 36.0389 18.8249C35.9202 18.5628 35.9105 18.2643 36.0117 17.995L37.5033 14.0356C37.5507 13.8985 37.6251 13.7723 37.7221 13.6645C37.8191 13.5567 37.9367 13.4695 38.068 13.4079C38.1993 13.3463 38.3416 13.3117 38.4865 13.306C38.6314 13.3003 38.7759 13.3238 38.9116 13.375C39.0473 13.4261 39.1714 13.5039 39.2765 13.6039C39.3816 13.7038 39.4656 13.8237 39.5235 13.9567C39.5815 14.0896 39.6122 14.2328 39.6138 14.3778C39.6155 14.5228 39.5881 14.6667 39.5332 14.8009L38.0416 18.7603C37.964 18.9667 37.8253 19.1445 37.644 19.2699C37.4628 19.3954 37.2476 19.4627 37.0271 19.4628Z" fill="white"/>
<path d="M24.7891 19.463C24.5685 19.4629 24.3533 19.3956 24.1719 19.2701C23.9905 19.1446 23.8516 18.9669 23.7737 18.7606L22.2821 14.8011C22.1823 14.5322 22.193 14.2347 22.3119 13.9736C22.4308 13.7126 22.6483 13.5093 22.9167 13.4081C23.1851 13.3069 23.4827 13.3162 23.7443 13.4338C24.006 13.5514 24.2104 13.7679 24.3129 14.0358L25.8045 17.9952C25.9057 18.2645 25.896 18.563 25.7773 18.8251C25.6587 19.0872 25.4409 19.2916 25.1718 19.3933C25.0494 19.4391 24.9198 19.4627 24.7891 19.463Z" fill="white"/>
<path d="M39.205 44.7747C39.0163 44.7754 38.8306 44.7267 38.6666 44.6334C38.5025 44.5402 38.3656 44.4057 38.2695 44.2432L36.1087 40.6061C36.0323 40.4835 35.9811 40.347 35.9582 40.2044C35.9353 40.0618 35.9412 39.916 35.9754 39.7757C36.0096 39.6354 36.0715 39.5033 36.1574 39.3872C36.2434 39.2712 36.3516 39.1735 36.4759 39.0998C36.6001 39.0262 36.7378 38.9781 36.8809 38.9584C37.024 38.9387 37.1695 38.9478 37.3091 38.9851C37.4486 39.0224 37.5792 39.0873 37.6934 39.1758C37.8075 39.2643 37.9028 39.3747 37.9736 39.5006L40.1345 43.1377C40.2322 43.3027 40.2846 43.4906 40.2861 43.6824C40.2877 43.8742 40.2385 44.0629 40.1435 44.2295C40.0484 44.3961 39.911 44.5345 39.7451 44.6307C39.5792 44.7269 39.3908 44.7775 39.199 44.7773L39.205 44.7747Z" fill="white"/>
<path d="M43.5675 40.2073C43.3895 40.2075 43.2142 40.1637 43.0573 40.0797L39.324 38.0864C39.1983 38.0194 39.0871 37.9283 38.9966 37.8183C38.9061 37.7083 38.8382 37.5816 38.7967 37.4453C38.7552 37.3091 38.7409 37.166 38.7547 37.0242C38.7685 36.8824 38.8101 36.7448 38.8771 36.6191C38.9441 36.4934 39.0353 36.3821 39.1453 36.2916C39.2553 36.2012 39.382 36.1332 39.5183 36.0917C39.6545 36.0502 39.7976 36.036 39.9394 36.0498C40.0811 36.0636 40.2188 36.1052 40.3445 36.1722L44.0786 38.1613C44.2912 38.2755 44.4597 38.4575 44.5574 38.6782C44.655 38.899 44.6762 39.1461 44.6177 39.3803C44.5591 39.6145 44.4241 39.8225 44.2341 39.9714C44.044 40.1202 43.8098 40.2014 43.5683 40.2022L43.5675 40.2073Z" fill="white"/>
<path d="M16.5649 40.4243C16.3318 40.4238 16.105 40.3482 15.9182 40.2088C15.7314 40.0693 15.5945 39.8734 15.5277 39.6501C15.4609 39.4267 15.4678 39.1878 15.5474 38.9687C15.627 38.7496 15.7751 38.5619 15.9696 38.4335L19.5022 36.1052C19.7422 35.9638 20.0274 35.9202 20.2986 35.9833C20.5699 36.0464 20.8066 36.2114 20.9596 36.4442C21.1125 36.6769 21.1702 36.9596 21.1205 37.2337C21.0708 37.5078 20.9177 37.7522 20.6927 37.9165L17.1602 40.2449C16.9837 40.3619 16.7767 40.4243 16.5649 40.4243Z" fill="white"/>
<path d="M14.632 34.4094C14.4896 34.412 14.3481 34.3866 14.2155 34.3345C14.083 34.2825 13.962 34.2048 13.8594 34.106C13.6524 33.9064 13.533 33.6327 13.5277 33.3452C13.5251 33.2028 13.5506 33.0613 13.6026 32.9287C13.6547 32.7962 13.7324 32.6752 13.8312 32.5726C13.93 32.4701 14.0481 32.388 14.1786 32.3311C14.3091 32.2742 14.4496 32.2435 14.592 32.2409L18.8202 32.0819C19.1076 32.0706 19.3878 32.174 19.599 32.3693C19.8102 32.5646 19.9352 32.8358 19.9465 33.1232C19.9578 33.4106 19.8544 33.6908 19.6591 33.902C19.4639 34.1133 19.1927 34.2383 18.9052 34.2495L14.677 34.4086L14.632 34.4094Z" fill="white"/>
<defs>
<linearGradient id="paint0_linear_322_2664" x1="0" y1="0" x2="72.329" y2="32.8727" gradientUnits="userSpaceOnUse">
<stop stop-color="#7433FF"/>
<stop offset="1" stop-color="#FFA3FD"/>
</linearGradient>
</defs>
</svg>
