<svg width="175" height="43" viewBox="0 0 175 43" fill="none" xmlns="http://www.w3.org/2000/svg">
<g clip-path="url(#clip0_52_1872)">
<path d="M80.4387 13.7383V33.7866H75.1977V23.1335L70.9429 29.7217H67.909L63.6616 23.1028V33.7866H58.4208V13.7383H63.3811L69.4486 23.1335L75.5163 13.7383H80.4387Z" fill="#F9F9F9"/>
<path d="M92.0279 13.7377C93.1733 13.7297 94.3168 13.8376 95.441 14.0599C96.4165 14.2512 97.3447 14.6371 98.1715 15.1949C98.9483 15.7324 99.5772 16.4609 99.9994 17.3117C100.439 18.3543 100.666 19.4761 100.666 20.6097C100.666 21.7432 100.439 22.8651 99.9994 23.9076C99.581 24.7567 98.9508 25.481 98.1715 26.0091C97.3414 26.5606 96.4146 26.946 95.441 27.1442C94.3187 27.382 93.1744 27.4977 92.0279 27.4893H89.4187V33.786H84.178V13.7377H92.0279ZM95.2818 20.6403C95.2992 20.2505 95.2183 19.8625 95.0465 19.5129C94.8901 19.2219 94.6597 18.9783 94.3792 18.8073C94.0808 18.6327 93.7548 18.5108 93.4159 18.4469C93.04 18.3816 92.6595 18.3482 92.2781 18.3472H89.4187V22.9489H92.2781C92.6598 22.9517 93.0406 22.9183 93.4159 22.8492C93.7558 22.7885 94.0821 22.6664 94.3792 22.4887C94.6576 22.3184 94.8876 22.0779 95.0465 21.7908C95.2281 21.4172 95.3093 21.0019 95.2818 20.5867V20.6403Z" fill="#F9F9F9"/>
<path d="M118.035 13.7383V18.4627H112.453V33.8018H107.212V18.4627H101.6V13.7383H118.035Z" fill="#F9F9F9"/>
<path d="M118.688 23.7622C118.68 22.4062 118.906 21.0592 119.355 19.7817C119.782 18.5406 120.461 17.404 121.35 16.4454C122.278 15.4466 123.409 14.6618 124.664 14.1446C127.661 13.0195 130.958 13.0195 133.955 14.1446C135.185 14.6473 136.295 15.4094 137.211 16.3802C138.126 17.3509 138.827 18.5079 139.265 19.774C140.144 22.3532 140.144 25.1559 139.265 27.7352C138.827 29.0012 138.126 30.1581 137.211 31.1289C136.295 32.0997 135.185 32.8618 133.955 33.3646C130.958 34.4895 127.661 34.4895 124.664 33.3646C123.409 32.8472 122.278 32.0625 121.35 31.0635C120.461 30.1051 119.782 28.9684 119.355 27.7274C118.907 26.4547 118.682 25.113 118.688 23.7622ZM134.555 23.7622C134.562 23.0069 134.447 22.2556 134.213 21.538C133.998 20.8881 133.661 20.2864 133.22 19.7664C132.772 19.2479 132.207 18.8455 131.574 18.5929C130.107 18.0349 128.49 18.0349 127.023 18.5929C126.391 18.8476 125.827 19.2496 125.377 19.7664C124.936 20.2864 124.599 20.8881 124.384 21.538C124.157 22.2569 124.044 23.0076 124.05 23.7622C124.043 24.5143 124.156 25.2627 124.384 25.9787C124.597 26.6318 124.934 27.2363 125.377 27.758C125.827 28.2749 126.391 28.6768 127.023 28.9314C128.49 29.4896 130.107 29.4896 131.574 28.9314C132.207 28.679 132.772 28.2765 133.22 27.758C133.663 27.2363 134 26.6318 134.213 25.9787C134.447 25.264 134.563 24.515 134.555 23.7622Z" fill="#F9F9F9"/>
<path d="M150.535 13.7386C151.681 13.7314 152.824 13.8393 153.948 14.0608C154.924 14.2521 155.852 14.638 156.679 15.1959C157.456 15.7334 158.085 16.4618 158.507 17.3126C158.947 18.3552 159.174 19.477 159.174 20.6106C159.174 21.7441 158.947 22.866 158.507 23.9085C158.088 24.7576 157.458 25.4819 156.679 26.01C155.849 26.5615 154.922 26.9469 153.948 27.1451C152.826 27.3821 151.682 27.4978 150.535 27.4902H147.926V33.7869H142.685V13.7386H150.535ZM153.789 20.6412C153.807 20.2504 153.724 19.8616 153.546 19.5138C153.395 19.2218 153.166 18.9776 152.886 18.8082C152.588 18.6336 152.262 18.5117 151.923 18.4478C151.547 18.3825 151.167 18.3491 150.785 18.3481H147.926V22.9498H150.785C151.167 22.9526 151.548 22.9192 151.923 22.8501C152.263 22.7894 152.589 22.6673 152.886 22.4896C153.164 22.3211 153.392 22.08 153.546 21.7917C153.734 21.42 153.818 21.0038 153.789 20.5876V20.6412Z" fill="#F9F9F9"/>
<path d="M168.116 31.2018C168.114 30.8104 168.152 30.4195 168.23 30.0361C168.291 29.7048 168.418 29.3892 168.602 29.108C168.783 28.8406 169.028 28.6243 169.315 28.479C169.663 28.3324 170.037 28.2568 170.414 28.2568C170.792 28.2568 171.166 28.3324 171.514 28.479C171.8 28.6223 172.043 28.8393 172.219 29.108C172.403 29.3903 172.532 29.7051 172.599 30.0361C172.677 30.4195 172.715 30.8104 172.712 31.2018V32.0915H174.821V33.8785H168.116V31.2018ZM170.392 30.0898C170.26 30.086 170.13 30.1149 170.013 30.1742C169.915 30.2279 169.834 30.3073 169.777 30.4041C169.719 30.5063 169.678 30.618 169.656 30.734C169.644 30.8616 169.644 30.9898 169.656 31.1174V32.0915H171.173V31.1097C171.181 30.9821 171.181 30.8539 171.173 30.7263C171.151 30.6103 171.11 30.4986 171.052 30.3966C170.995 30.2996 170.914 30.2202 170.816 30.1665C170.691 30.1061 170.553 30.0799 170.414 30.0898H170.392Z" fill="#F9F9F9"/>
<path d="M174.821 27.4205H168.116V24.5674C168.117 24.2272 168.153 23.8879 168.222 23.555C168.285 23.2373 168.409 22.9351 168.587 22.6654C168.763 22.4003 169 22.182 169.277 22.0288C169.618 21.8577 169.996 21.776 170.377 21.791C170.632 21.7856 170.888 21.8166 171.135 21.8831C171.335 21.9429 171.524 22.0334 171.696 22.1515C171.855 22.2676 171.996 22.4072 172.113 22.5657C172.23 22.727 172.327 22.9022 172.402 23.0872L174.836 21.2158V23.2406L172.652 24.8589V25.6258H174.836L174.821 27.4205ZM171.196 25.6335V24.4907C171.208 24.265 171.141 24.0423 171.006 23.8618C170.931 23.7822 170.84 23.7198 170.74 23.6788C170.639 23.6377 170.531 23.6191 170.422 23.6241C170.313 23.6191 170.205 23.6377 170.105 23.6788C170.004 23.7198 169.913 23.7822 169.838 23.8618C169.704 24.0423 169.636 24.265 169.648 24.4907V25.6335H171.196Z" fill="#F9F9F9"/>
<path d="M171.469 20.9939C171.014 20.9961 170.562 20.9182 170.134 20.7638C169.719 20.6181 169.339 20.3855 169.019 20.0812C168.69 19.764 168.431 19.3797 168.26 18.9538C167.888 17.9289 167.888 16.8035 168.26 15.7786C168.433 15.3515 168.691 14.965 169.019 14.6435C169.343 14.3444 169.722 14.1125 170.134 13.9609C170.562 13.809 171.014 13.7337 171.469 13.7385C171.92 13.7337 172.37 13.809 172.796 13.9609C173.22 14.1104 173.607 14.35 173.931 14.6635C174.256 14.9771 174.51 15.3573 174.677 15.7786C175.049 16.8035 175.049 17.9289 174.677 18.9538C174.509 19.3812 174.25 19.7661 173.918 20.0812C173.6 20.3878 173.22 20.6207 172.803 20.7638C172.375 20.9191 171.923 20.997 171.469 20.9939ZM171.469 15.5715C171.211 15.5669 170.955 15.6058 170.71 15.6866C170.492 15.7613 170.292 15.8785 170.118 16.0317C169.942 16.181 169.806 16.3738 169.724 16.5916C169.63 16.8359 169.584 17.0964 169.588 17.3585C169.584 17.6207 169.631 17.881 169.724 18.1255C169.808 18.3421 169.943 18.5345 170.118 18.6854C170.292 18.8361 170.493 18.9508 170.71 19.0228C170.955 19.1036 171.211 19.1425 171.469 19.1379C171.726 19.1418 171.982 19.1029 172.227 19.0228C172.444 18.9491 172.644 18.8346 172.819 18.6854C172.989 18.5303 173.124 18.3391 173.213 18.1255C173.307 17.881 173.353 17.6207 173.349 17.3585C173.353 17.0964 173.307 16.8359 173.213 16.5916C173.125 16.3772 172.99 16.1858 172.819 16.0317C172.644 15.8801 172.444 15.763 172.227 15.6866C171.982 15.6065 171.726 15.5677 171.469 15.5715Z" fill="#F9F9F9"/>
<path d="M164.021 32.4056L161.601 34.2615C161.416 34.4043 161.195 34.4919 160.963 34.5145C160.731 34.5371 160.497 34.4939 160.288 34.3894C160.079 34.2849 159.903 34.1237 159.78 33.9236C159.657 33.7234 159.592 33.4924 159.591 33.2568V29.537C159.592 29.3013 159.657 29.0706 159.78 28.8705C159.903 28.6704 160.079 28.5089 160.288 28.4044C160.497 28.3002 160.731 28.2567 160.963 28.2793C161.195 28.3019 161.416 28.3895 161.601 28.5323L164.021 30.3885C164.175 30.5064 164.299 30.6589 164.386 30.8339C164.471 31.0089 164.516 31.2016 164.516 31.397C164.516 31.5925 164.471 31.7851 164.386 31.9602C164.299 32.1349 164.175 32.2876 164.021 32.4056Z" fill="#6E54A6"/>
<path d="M34.3856 28.4302C35.2541 31.9507 35.8306 35.5387 36.1089 39.1565C36.1282 39.5768 36.0467 39.9958 35.8717 40.3775C35.6965 40.7596 35.4326 41.0928 35.1028 41.3495C34.7727 41.6061 34.3864 41.7784 33.9764 41.8517C33.5665 41.925 33.1453 41.8972 32.7482 41.7704C26.1478 37.039 22.0462 28.1427 24.6657 25.8945H27.1818C27.3919 25.8958 27.5982 25.8388 27.7784 25.7297C27.9586 25.6205 28.1055 25.4633 28.2034 25.2754C28.3012 25.0874 28.3459 24.8759 28.3331 24.6639C28.32 24.452 28.2497 24.2477 28.1298 24.0734L22.9165 16.3794C22.8101 16.2248 22.6684 16.0986 22.5033 16.0114C22.3383 15.9242 22.1548 15.8786 21.9686 15.8786C21.7824 15.8786 21.5989 15.9242 21.4339 16.0114C21.2689 16.0986 21.1271 16.2248 21.0208 16.3794L15.7473 24.056C15.6304 24.2309 15.5626 24.4347 15.5512 24.6456C15.5397 24.8564 15.585 25.0664 15.6823 25.2533C15.7796 25.4402 15.9251 25.5969 16.1035 25.7067C16.2818 25.8165 16.4863 25.8754 16.6951 25.8771H19.194C21.779 28.125 17.7119 37.0216 11.12 41.7442H11.0769C10.6799 41.871 10.2586 41.8988 9.84869 41.8255C9.43878 41.7524 9.05241 41.5802 8.72248 41.3236C8.39254 41.0667 8.12876 40.7334 7.95359 40.3514C7.77843 39.9696 7.69704 39.5506 7.71634 39.1303C7.99497 35.5125 8.57141 31.9247 9.4397 28.404C5.9562 25.6878 2.91242 22.4394 0.417877 18.7756C0.182602 18.3927 0.0420467 17.9582 0.00807126 17.5087C-0.0259041 17.0592 0.0477114 16.6081 0.222703 16.1935C0.397694 15.7789 0.668901 15.413 1.01336 15.1268C1.35782 14.8407 1.76539 14.6427 2.20157 14.5496C6.06796 13.8375 9.9831 13.4297 13.9119 13.3297C15.8506 7.93612 17.9359 3.5881 19.6335 1.17448C19.8911 0.811099 20.2307 0.515033 20.624 0.310785C21.0174 0.10654 21.4532 0 21.8954 0C22.3376 0 22.7733 0.10654 23.1667 0.310785C23.5601 0.515033 23.8996 0.811099 24.1573 1.17448C25.8807 3.5881 27.9316 7.93612 29.8789 13.3297C33.8077 13.4297 37.7229 13.8375 41.5892 14.5496C42.0254 14.6427 42.4329 14.8407 42.7774 15.1268C43.1217 15.413 43.3929 15.7789 43.5679 16.1935C43.7429 16.6081 43.8165 17.0592 43.7827 17.5087C43.7486 17.9582 43.608 18.3927 43.3727 18.7756C40.8881 22.4439 37.8564 25.7007 34.3856 28.4302Z" fill="#6E54A6"/>
<path d="M20.7966 37.6486L18.7114 40.4367C18.5534 40.6498 18.457 40.9031 18.4329 41.1682C18.4089 41.4334 18.4582 41.6999 18.5752 41.9387C18.6922 42.1771 18.8725 42.378 19.0958 42.5192C19.3192 42.66 19.5769 42.7355 19.8402 42.7372H24.0107C24.2748 42.7372 24.5336 42.6628 24.7582 42.5225C24.9828 42.3822 25.1643 42.1812 25.2824 41.9425C25.4005 41.7035 25.4505 41.4362 25.4268 41.1704C25.4031 40.9044 25.3066 40.6503 25.1482 40.4367L23.0629 37.6486C22.9303 37.4716 22.759 37.3283 22.5624 37.2293C22.3658 37.1306 22.1493 37.0791 21.9298 37.0791C21.7102 37.0791 21.4937 37.1306 21.2971 37.2293C21.1005 37.3283 20.9292 37.4716 20.7966 37.6486Z" fill="#6E54A6"/>
</g>
<defs>
<clipPath id="clip0_52_1872">
<rect width="175" height="43" fill="white"/>
</clipPath>
</defs>
</svg>
