<svg width="170" height="37" viewBox="0 0 170 37" fill="none" xmlns="http://www.w3.org/2000/svg">
<path fill-rule="evenodd" clip-rule="evenodd" d="M20.5364 0.101807C16.7171 -0.298579 12.8669 0.488126 9.51511 2.35379C6.16331 4.21945 3.4744 7.07248 1.81797 10.5207C0.161551 13.969 -0.38107 17.8432 0.264696 21.6108C0.910462 25.3784 2.71291 28.8545 5.4243 31.5612C8.13569 34.268 11.6229 36.0725 15.4066 36.7269C19.1904 37.3812 23.0849 36.8531 26.5548 35.2153C30.0247 33.5775 32.8998 30.9103 34.7848 27.5804C36.6698 24.2504 37.4722 20.4211 37.0817 16.6189C36.652 12.3925 34.7721 8.44251 31.7585 5.43408C28.7449 2.42565 24.7818 0.542534 20.5364 0.101807ZM19.934 28.2902C17.8799 28.5645 15.791 28.1912 13.961 27.223C12.1311 26.2548 10.6519 24.7402 9.73153 22.8921C8.81114 21.0441 8.49575 18.9555 8.8297 16.9198C9.16365 14.8842 10.1301 13.0038 11.5934 11.543C13.0566 10.0823 14.9429 9.11454 16.9873 8.77583C19.0317 8.43711 21.1314 8.74445 22.9912 9.65465C24.851 10.5648 26.3775 12.0321 27.3561 13.8503C28.3347 15.6685 28.7163 17.7462 28.4471 19.7913C28.1647 21.9425 27.1776 23.9409 25.6386 25.4773C24.0996 27.0138 22.0946 28.0024 19.934 28.2902ZM47.0242 0.833688C46.3795 0.835224 45.7432 0.979787 45.1617 1.25686C44.5801 1.53393 44.068 1.93654 43.6625 2.43539C43.257 2.93424 42.9684 3.51678 42.8176 4.14063C42.6668 4.76448 42.6576 5.41393 42.7908 6.04174C43.1987 8.07564 45.1076 9.46534 47.1871 9.46534H59.2547L40.4747 34.1991C40.3358 34.3817 40.2508 34.5991 40.2291 34.8271C40.2075 35.0551 40.2501 35.2846 40.3521 35.4899C40.4542 35.6952 40.6116 35.8681 40.8069 35.9893C41.0022 36.1105 41.2275 36.1751 41.4576 36.176H70.9158C72.9939 36.176 74.9042 34.7867 75.3121 32.7524C75.4453 32.1247 75.4362 31.4753 75.2856 30.8516C75.1349 30.2278 74.8464 29.6453 74.4411 29.1464C74.0358 28.6475 73.5239 28.2448 72.9425 27.9675C72.3612 27.6903 71.7251 27.5455 71.0805 27.5437H56.377L75.1425 2.82915C75.2828 2.64478 75.3687 2.42517 75.3905 2.19494C75.4123 1.96472 75.3692 1.733 75.2661 1.52577C75.163 1.31855 75.0039 1.14403 74.8066 1.02178C74.6094 0.899531 74.3819 0.834398 74.1495 0.833688H47.0242ZM164.737 0.933252C163.762 1.16405 162.895 1.71918 162.28 2.50686C161.665 3.29454 161.338 4.2676 161.354 5.26515V19.6366L137.955 1.10513C137.771 0.960169 137.55 0.869706 137.317 0.844146C137.085 0.818587 136.849 0.85897 136.638 0.96065C136.428 1.06233 136.25 1.22118 136.126 1.41891C136.002 1.61665 135.936 1.84525 135.937 2.07841V31.7522C135.921 32.7498 136.247 33.7229 136.863 34.5106C137.478 35.2983 138.345 35.8534 139.32 36.0841C139.954 36.2228 140.61 36.2182 141.241 36.0707C141.873 35.9232 142.463 35.6365 142.968 35.2318C143.473 34.8271 143.88 34.3148 144.16 33.7325C144.439 33.1502 144.584 32.5129 144.583 31.8675V17.3717L167.983 35.9035C168.166 36.0484 168.387 36.1388 168.62 36.1643C168.852 36.1899 169.088 36.1495 169.298 36.0479C169.509 35.9462 169.687 35.7874 169.811 35.5898C169.935 35.3921 170.001 35.1637 170 34.9306V5.14846C170.001 4.50327 169.856 3.86614 169.576 3.28406C169.297 2.70199 168.889 2.1898 168.384 1.78527C167.879 1.38074 167.289 1.09418 166.658 0.946717C166.027 0.799256 165.371 0.794654 164.737 0.933252ZM103.812 8.63913C113.71 8.63913 121.105 13.8444 121.105 18.5005C121.105 23.1566 113.71 28.3618 103.812 28.3618C93.9152 28.3618 86.5201 23.1566 86.5201 18.5005C86.5201 13.8444 93.9152 8.63913 103.812 8.63913ZM103.812 0.0078332C89.4866 0.0078332 77.8735 8.28734 77.8735 18.5005C77.8735 28.7136 89.4866 36.9931 103.812 36.9931C118.138 36.9931 129.751 28.7136 129.751 18.5005C129.751 8.28734 118.138 0.0078332 103.812 0.0078332Z" fill="#6E54A6"/>
</svg>
