<svg width="192" height="23" viewBox="0 0 192 23" fill="none" xmlns="http://www.w3.org/2000/svg">
<path d="M5.8 21.9L0 0.400024H3.8L8.3 16.9L13.1 0.400024H16.7L21.5 17L26 0.400024H29.8L24 21.9H19.6L14.9 5.80002L10.2 21.9H5.8Z" fill="url(#paint0_linear_93_5496)"/>
<path d="M32.5 0.300049H36.1V21.8H32.5V0.300049Z" fill="url(#paint1_linear_93_5496)"/>
<path d="M43.9 18.5H52.8V21.9H40.4V0.400024H44V18.5H43.9Z" fill="url(#paint2_linear_93_5496)"/>
<path d="M64.1 0.400055C67.1 0.400055 69.6 1.40005 71.5 3.50005C73.5 5.60005 74.5 8.10005 74.5 11.1001C74.5 14.1001 73.5 16.7001 71.5 18.7001C69.5 20.8001 67 21.8 64.1 21.8H55.5V0.300049L64.1 0.400055ZM64.1 18.5C66.2 18.5 67.8 17.8001 69.1 16.4001C70.4 15.0001 71.1 13.2001 71.1 11.1001C71.1 8.90005 70.4 7.20005 69.1 5.80005C67.8 4.40005 66.1 3.70006 64.1 3.70006H59.1V18.4001H64.1V18.5Z" fill="url(#paint3_linear_93_5496)"/>
<path d="M93.7 15.7C93.7 17.5 93.1 18.9 91.8 20.1C90.5 21.3 89 21.9 87.1 21.9H77.8V0.400024H86.5C88.3 0.400024 89.8 1.00002 91 2.10002C92.3 3.20002 92.9 4.70002 92.9 6.30002C92.9 8.20002 92.1 9.60003 90.7 10.7C92.6 11.7 93.7 13.5 93.7 15.7ZM81.4 3.70003V9.40002H86.5C88.1 9.40002 89.3 8.20002 89.3 6.60002C89.3 5.00002 88.1 3.80002 86.5 3.80002H81.4V3.70003ZM87.2 18.5C88.9 18.5 90.2 17.2 90.2 15.5C90.2 13.8 88.9 12.5 87.2 12.5H81.4V18.5H87.2Z" fill="url(#paint4_linear_93_5496)"/>
<path d="M100.7 18.5H110.4V21.9H97.2V0.400024H110.3V3.80002H100.8V9.40002H109.5V12.8H100.8V18.5H100.7Z" fill="url(#paint5_linear_93_5496)"/>
<path d="M126 21.9L121.4 14.1H117.2V21.9H113.6V0.400024H122.3C124.3 0.400024 125.9 1.10002 127.3 2.40002C128.7 3.70002 129.4 5.40002 129.4 7.30002C129.4 10 127.7 12.5 125.1 13.5L130.1 21.9H126ZM117.2 3.70003V10.9H122.3C124.2 10.9 125.7 9.30002 125.7 7.30002C125.7 5.30002 124.2 3.70003 122.3 3.70003H117.2Z" fill="url(#paint6_linear_93_5496)"/>
<path d="M145.4 21.5L140.8 13.6H136.6V21.5H133V0H141.7C143.7 0 145.3 0.7 146.7 2C148.1 3.3 148.8 4.99999 148.8 6.89999C148.8 9.59999 147.1 12.1 144.5 13.1L149.5 21.5H145.4ZM136.6 3.2V10.4H141.7C143.6 10.4 145.1 8.8 145.1 6.8C145.1 4.8 143.6 3.2 141.7 3.2H136.6Z" fill="url(#paint7_linear_93_5496)"/>
<path d="M151.7 0.300049H155.3V21.8H151.7V0.300049Z" fill="url(#paint8_linear_93_5496)"/>
<path d="M163.1 18.5H172.8V21.9H159.6V0.400024H172.6V3.80002H163.1V9.40002H171.8V12.8H163.1V18.5Z" fill="url(#paint9_linear_93_5496)"/>
<path d="M175.3 17L178.4 15.2C179.3 17.6 181.1 18.8 183.8 18.8C186.5 18.8 187.9 17.7 187.9 16C187.9 15.1 187.5 14.5 186.8 14C186.1 13.5 184.8 13 182.9 12.5C180.8 11.9 179.8 11.5 178.3 10.5C176.9 9.5 176.2 8.10001 176.2 6.20001C176.2 4.30001 176.9 2.80001 178.3 1.70001C179.7 0.600012 181.3 0 183.3 0C186.8 0 189.5 1.80001 190.9 4.70001L187.9 6.40001C187 4.40001 185.5 3.40001 183.3 3.40001C181.2 3.40001 179.9 4.40001 179.9 6.10001C179.9 7.70001 181 8.4 184.3 9.5C185.1 9.8 185.7 10 186.1 10.1C186.5 10.2 187 10.4 187.7 10.7C188.4 11 189 11.3 189.3 11.6C190.5 12.5 191.7 14 191.5 16C191.5 17.9 190.8 19.5 189.4 20.6C188 21.7 186.1 22.3 183.8 22.3C179.5 22.2 176.4 20.3 175.3 17Z" fill="url(#paint10_linear_93_5496)"/>
<defs>
<linearGradient id="paint0_linear_93_5496" x1="14.9" y1="0.400024" x2="14.9" y2="21.9" gradientUnits="userSpaceOnUse">
<stop stop-color="#BF10A6"/>
<stop offset="1" stop-color="#551079"/>
</linearGradient>
<linearGradient id="paint1_linear_93_5496" x1="34.3" y1="0.300049" x2="34.3" y2="21.8" gradientUnits="userSpaceOnUse">
<stop stop-color="#BF10A6"/>
<stop offset="1" stop-color="#551079"/>
</linearGradient>
<linearGradient id="paint2_linear_93_5496" x1="46.6" y1="0.400024" x2="46.6" y2="21.9" gradientUnits="userSpaceOnUse">
<stop stop-color="#BF10A6"/>
<stop offset="1" stop-color="#551079"/>
</linearGradient>
<linearGradient id="paint3_linear_93_5496" x1="65" y1="0.300049" x2="65" y2="21.8" gradientUnits="userSpaceOnUse">
<stop stop-color="#BF10A6"/>
<stop offset="1" stop-color="#551079"/>
</linearGradient>
<linearGradient id="paint4_linear_93_5496" x1="85.75" y1="0.400024" x2="85.75" y2="21.9" gradientUnits="userSpaceOnUse">
<stop stop-color="#BF10A6"/>
<stop offset="1" stop-color="#551079"/>
</linearGradient>
<linearGradient id="paint5_linear_93_5496" x1="103.8" y1="0.400024" x2="103.8" y2="21.9" gradientUnits="userSpaceOnUse">
<stop stop-color="#BF10A6"/>
<stop offset="1" stop-color="#551079"/>
</linearGradient>
<linearGradient id="paint6_linear_93_5496" x1="121.85" y1="0.400024" x2="121.85" y2="21.9" gradientUnits="userSpaceOnUse">
<stop stop-color="#BF10A6"/>
<stop offset="1" stop-color="#551079"/>
</linearGradient>
<linearGradient id="paint7_linear_93_5496" x1="141.25" y1="0" x2="141.25" y2="21.5" gradientUnits="userSpaceOnUse">
<stop stop-color="#BF10A6"/>
<stop offset="1" stop-color="#551079"/>
</linearGradient>
<linearGradient id="paint8_linear_93_5496" x1="153.5" y1="0.300049" x2="153.5" y2="21.8" gradientUnits="userSpaceOnUse">
<stop stop-color="#BF10A6"/>
<stop offset="1" stop-color="#551079"/>
</linearGradient>
<linearGradient id="paint9_linear_93_5496" x1="166.2" y1="0.400024" x2="166.2" y2="21.9" gradientUnits="userSpaceOnUse">
<stop stop-color="#BF10A6"/>
<stop offset="1" stop-color="#551079"/>
</linearGradient>
<linearGradient id="paint10_linear_93_5496" x1="183.411" y1="0" x2="183.411" y2="22.3" gradientUnits="userSpaceOnUse">
<stop stop-color="#BF10A6"/>
<stop offset="1" stop-color="#551079"/>
</linearGradient>
</defs>
</svg>
